<?xml version="1.0" encoding="utf-8"?>
<!-- Generator: Adobe Illustrator 19.1.1, SVG Export Plug-In . SVG Version: 6.00 Build 0)  -->
<!DOCTYPE svg PUBLIC "-//W3C//DTD SVG 1.1//EN" "http://www.w3.org/Graphics/SVG/1.1/DTD/svg11.dtd">
<svg version="1.1" id="Layer_1" xmlns="http://www.w3.org/2000/svg" xmlns:xlink="http://www.w3.org/1999/xlink" x="0px" y="0px"
	 viewBox="0 0 612 792" style="enable-background:new 0 0 612 792;" xml:space="preserve">
<style type="text/css">
	.st0{fill:#00B4D7;}
	.st1{fill:#A5D0EB;}
	.st2{fill:#76644D;}
	.st3{fill:#D7EEFB;}
	.st4{fill:#B3895B;}
	.st5{fill:#B4B4B4;}
	.st6{fill:#E6E6E5;}
	.st7{fill:#1D4864;}
	.st8{fill:#E3BB91;}
	.st9{fill:#8B5E3C;}
	.st10{fill:#FBD5AE;}
	.st11{fill:#C1915D;}
	.st12{fill:#1B5375;}
	.st13{fill:#FDBD68;}
	.st14{fill:#F7941E;}
	.st15{fill:#1C75BC;}
	.st16{fill:#FFFFFF;}
	.st17{fill:#676767;}
	.st18{fill:#E5B683;}
	.st19{fill-rule:evenodd;clip-rule:evenodd;fill:none;stroke:#676767;stroke-width:1.9199;stroke-miterlimit:22.9256;}
	.st20{fill-rule:evenodd;clip-rule:evenodd;fill:none;stroke:#1B5375;stroke-width:1.9199;stroke-miterlimit:22.9256;}
	
		.st21{fill-rule:evenodd;clip-rule:evenodd;fill:none;stroke:#676767;stroke-width:0.9601;stroke-linecap:round;stroke-linejoin:round;stroke-miterlimit:22.9256;}
	.st22{fill:#65CBE3;}
	.st23{fill:#83D3E7;}
	.st24{fill:#7B7A88;}
	.st25{fill:#3F4544;}
	.st26{opacity:0.5;fill:#CDCCCC;}
	.st27{fill:#E18C66;}
</style>
<g>
	<path class="st0" d="M277.7,444.1c0.8,0.1,1.6,0.2,2.5,0.3c0-1.2,0-2.4,0-3.6C279.3,442,278.5,443.1,277.7,444.1z"/>
	<path class="st0" d="M353.7,445.1c-0.2-6.9,5.3-18.6,12.7-29.4c0.3-0.6,0.6-1.1,0.9-1.7c1.1-2.6,2.7-4.7,4.8-6.4
		c3.2-3.1,6.5-4.7,9-5.7c-28.3-5.8-31.5-26.4-25.3-41.9c3.4-8.5,8.2-15.8,14.5-21.2v-0.1h0.2c7.1-6,16.1-9.6,27.1-9.6
		c20.9,0,36.7,14,42.3,29.5c4.9,13.5,3.1,37.4-26.2,43.5c1.2,0.5,2.7,1.2,4.2,2.1c1.9,0.4,3.7,1.5,4.9,3.4c0.4,0.6,0.8,1.2,1.2,1.8
		c0.8,0.9,1.6,2,2.3,3.1C469.7,370,488.4,317.7,469,277c-27.7-58.4-123.6-71.2-213.4-28.6C165.8,291.1,115.2,373.6,143,431.9
		c7.4,15.7,19.8,28.1,35.6,37c0.1-2.4,0.3-4.8,0.4-7.3c-8.7-9.3-22.3-25-19.2-29.8c2.6-10.7,22.2-31.2,36.8-40.3
		c0.8-0.5,1.7-0.8,2.6-1c3.1-1.5,5.5-2.4,6.3-2.9l0-0.2l0.2,0.1c0.1-0.1,0.1-0.2,0.2-0.2c0,0.1,0,0.2,0,0.3l0.2,0.1
		c0-0.3-0.1-0.7-0.1-1c0-0.2,0-0.4,0-0.6c-10.5-4.4-18.5-13.5-21.1-24.7c-0.3,0.3-0.6,0.5-1,0.6c-2.4,0.8-5.7-2.4-7.3-7.1
		c-1.6-4.7-0.9-9.2,1.6-10c1.5-0.5,3.4,0.6,4.9,2.6c-0.5-3.9-0.3-8.3,1.3-12.5c3.6-9.5,16.5-21.9,33-22.7
		c14.3-0.7,21.3,7.3,21.3,7.3s7.3,1.4,12.9,7.6c3,3.3,3.5,11,2.9,18c0.2,0.7,0.3,1.4,0.5,2.2c1.5-1.9,3.3-2.9,4.8-2.4
		c2.4,0.8,3.2,5.3,1.6,10c-1.5,4.5-4.5,7.6-6.9,7.2c-3,11.6-11.8,21-23.1,24.8c0,0.2,0,0.3,0,0.5l0,0l0,0.2c1.6,0.8,8.4,1.6,14.3,8
		c7.7,5.7,15.8,13.6,21.9,21c2.8-3.5,6.1-7.2,9.6-10.4c-10.9-10-10.9-26.6-9.4-43.6c-0.8-3.4-0.3-6.4,1.1-7.7
		c4.8-22.3,21.7-31.4,40.7-31.4c20.9,0,39.4,10.2,42.3,36.5c2,17.9,2.4,37.2-11.4,47.8c6.6,6.8,11.6,15.1,14,21.2
		c-1.4,0.9-3.9,2.2-6.9,3.7c2.1,11.2,1.4,20.8-3.6,22.2c0,0,0,0,0,0c-0.7,0.9-1.9,1.7-3.4,2.5c0,3.6,0,6.9,0.1,10
		c4.6-1.9,9.2-3.9,13.8-6C353.2,455.9,352.3,447.7,353.7,445.1z"/>
	<path class="st0" d="M172.4,435c2.6,1.8,5.3,4,8,6.4c0.4-4.4,0.8-8.6,1.3-12.5C178.5,431.3,175.3,433.4,172.4,435z"/>
	<path class="st0" d="M268.3,449.7c-1.8-1.3-2.4-4.2-2-8c-2.1,0.7-4.4,1.3-6.8,1.9l-1.8,8.6c1.2,12.2,2.2,24.4,2.8,33.3
		c6-0.3,12.2-0.8,18.4-1.7c0.2-3,1-15.3,1.2-30.3C274.8,452.7,270.2,451.6,268.3,449.7z"/>
	<path class="st1" d="M287,485.9c0,0.2,0,0.3,0,0.5C287,486.2,287,486,287,485.9C287,485.9,287,485.9,287,485.9z"/>
	<g>
		<path class="st2" d="M299.3,457.6c-0.6-0.6-1.3-1.2-2.1-1.7c-4-0.6-8.9-1.2-13.6-1.8l-1.6,4l15.7,6.2c0.7-1,3-1.5,3.6-2.8
			C302.2,459.5,298.2,459.9,299.3,457.6z"/>
		<path class="st2" d="M322.7,423.9l-21.8-8.6l-1.7-0.7l-0.2,0.4l-12,30.4c3.9,0.8,8,1.8,12.1,2.9c0,0,0,0.1,0,0.1
			c1.6,0.4,3.6,0.5,6.7-0.5c4.2-1.3,5.4-4.3,7.1-2.1c1.8,2.3-2.5,2.5-1.5,4.3c1.1,1.8,5.4,1.2,3.9,4c-1.3,2.4-2.3,2.1-3,4.1
			c0.4-0.1,0.7-0.2,1-0.3c0,0,0,0,0-0.1c0.4-0.2,0.8-0.3,1.2-0.5l10.4-26.4l2.1-5.4L322.7,423.9z"/>
	</g>
	<g>
		<path class="st3" d="M316.3,465c-0.8,0.7-1.4,1.5-2,2.2c-1.3,1.7-2.2,3.3-3.5,4c-2.8,1.5-7.7,2.5-8.8-0.7
			c-0.7-2.2-1.4-2.3-2.4-3.1c-0.4-0.3-0.9-0.8-1.5-1.6c-0.5-0.7-0.5-1.3-0.3-1.7l-15.7-6.2l1.6-4c-1.2-0.2-2.4-0.3-3.5-0.5
			c-0.2,14.9-1,27.3-1.2,30.3c2.6-0.3,5.3-0.7,8-1.2l0,0c8.5-1.4,17.1-3.3,25.8-5.7c6.8-1.9,13.7-4.1,20.5-6.6
			c2.5-0.9,4.9-1.9,7.4-2.8c0-3.1-0.1-6.4-0.1-10C334.7,460.4,323.9,462.7,316.3,465z"/>
		<path class="st3" d="M340.6,407.9c-3.1-3.2-6.6-6.1-10.3-8.3c-1.6-1-3.2-1.5-4.8-1.6c-1.5-0.6-3-1.1-4.6-1.5
			c-0.2,0.8-0.5,1.8-0.9,2.8c-0.7,1.8-1.7,3.8-2.8,5.8c-2.8,5.1-6.4,9.8-8.2,9.8c-1.3,0-4-3.1-6.6-7c-2.1-3.2-4.1-7-5.2-9.9
			c-0.2-0.6-0.4-1.2-0.5-1.7c-1.4,0.3-2.8,0.7-4.1,1.2c-0.9,0.1-1.9,0.3-2.9,0.6c-4.1,1.4-8.5,4.5-12.6,8.1
			c-3.5,3.2-6.9,6.8-9.6,10.4c1.8,2.2,3.4,4.4,4.8,6.4c1,1.5,1.8,2.9,2.5,4.2c1.1-1.5,2.8-2.6,4.7-2.9c0.3,0,0.5-0.1,0.8-0.1
			c0.5,0,1,0.1,1.4,0.2c0,0,0,0,0,0c2.6,0.6,4.6,2.5,5.2,5.1c0.1,0.5,0.2,1,0.2,1.5c0,3.1-2.1,5.8-5,6.5c-0.2,0.1-0.4,0.1-0.6,0.1
			c-0.4,0.1-0.8,0.1-1.2,0.1c-0.1,0-0.2,0-0.3,0c0,1,0,1.9,0,2.9c0,1.2,0,2.4,0,3.6c2.1,0.3,4.4,0.7,6.8,1.2l12-30.4l0.2-0.4
			l1.7,0.7l21.8,8.6l4.4,1.7l-2.1,5.4l-10.4,26.4c8.6-3.6,17.5-6.9,23.4-7.5c-1.2-2.1-2.3-4.6-3.4-7.5c0,0.4,0,0.8,0,1.2
			c-0.2,0.1-0.4,0.1-0.7,0.1c-1.6,0.2-3-0.2-3.1-1c-0.1-0.7,1.2-1.5,2.8-1.7c0.2,0,0.4,0,0.5,0c-0.2-0.6-0.4-1.2-0.7-1.8
			c2.2-0.9,4.8-2.1,7.5-3.3c2.3-1.1,4.7-2.1,6.8-3.2c3-1.5,5.6-2.8,6.9-3.7C352.2,422.9,347.2,414.7,340.6,407.9z"/>
	</g>
	<path class="st4" d="M310.5,374.9c10.1-0.4,7-6,2.5-11.1C315.1,369.2,317.3,372.6,310.5,374.9z"/>
	<path class="st5" d="M277.7,433.5c0.6,0.7,1.4,1.1,2.3,1.2c-0.1-2.4-0.2-4.8-0.3-7.1c-1.7,0.3-3,1.8-3,3.6c0,0.5,0.1,0.9,0.3,1.3
		C277.4,432.7,277.6,433.1,277.7,433.5z"/>
	<path class="st5" d="M280.4,434.7c2,0,3.6-1.6,3.6-3.6c0-2-1.6-3.6-3.6-3.6c-0.2,0-0.4,0-0.7,0.1c0.1,2.4,0.2,4.7,0.3,7.1
		C280.2,434.7,280.3,434.7,280.4,434.7z"/>
	<path class="st5" d="M330.7,442.8c0.1,0.7,1.5,1.2,3.1,1c0.2,0,0.5-0.1,0.7-0.1c0.1-0.4,0.1-0.8,0-1.2c-0.2-0.5-0.4-0.9-0.5-1.4
		c-0.2,0-0.3,0-0.5,0C331.9,441.3,330.6,442.1,330.7,442.8z"/>
	<path class="st5" d="M334.5,442.3c-0.1-0.5-0.2-0.9-0.4-1.3c-0.1,0-0.1,0-0.2,0C334.2,441.5,334.4,442,334.5,442.3
		C334.5,442.4,334.5,442.4,334.5,442.3z"/>
	<path class="st5" d="M343.8,439c0.2,0.4,0.4,0.8,0.7,1.1c0.2-0.1,0.4-0.2,0.6-0.3c1.5-0.7,2.5-1.8,2.1-2.5c-0.3-0.7-1.8-0.7-3.3,0
		c-0.2,0.1-0.4,0.2-0.6,0.3C343.5,438.2,343.6,438.6,343.8,439z"/>
	<path class="st6" d="M431.8,444.6C431.8,444.6,431.8,444.6,431.8,444.6c-0.1-0.1-0.2-0.2-0.3-0.2c0,0.1,0,0.1,0,0.2
		C431.6,444.6,431.7,444.6,431.8,444.6z"/>
	<path class="st6" d="M411.3,450.6c0.3-0.1,0.7-0.2,1-0.4c0-0.1,0-0.2,0-0.3C412,450.2,411.6,450.4,411.3,450.6z"/>
	<path class="st6" d="M422.6,446.7c0.4-0.1,0.8-0.2,1.2-0.4c-0.3-0.3-0.6-0.6-0.9-1C422.8,445.8,422.7,446.3,422.6,446.7z"/>
	<path class="st6" d="M423.8,446.3c2.8-0.8,5.5-1.5,7.7-1.7c0-0.1,0-0.1,0-0.2c-2.2-0.6-5.3-0.2-8.6,0.7c0,0.1,0,0.1,0,0.2
		C423.2,445.7,423.5,446,423.8,446.3z"/>
	<path class="st6" d="M422.8,445.2c-0.2,0.1-0.4,0.1-0.5,0.2c0.8,0.6,0.4,0.7-0.6,0.2c-3.1,1-6.2,2.5-8.7,4
		c-0.2,0.1-0.4,0.3-0.7,0.4c0,0.1,0,0.2,0,0.3c1.9-0.7,4.1-1.5,6.3-2.2c0.1-0.7,1.3-1.3,2.8-1.5c0.2,0,0.5,0,0.7,0
		c0.1,0.1,0.1,0.3,0.1,0.4c0.1,0,0.3-0.1,0.4-0.1c0.1-0.4,0.2-0.9,0.3-1.3C422.9,445.3,422.8,445.3,422.8,445.2z"/>
	<path class="st6" d="M422.9,445.4c0-0.1,0-0.1,0-0.2c-0.1,0-0.1,0-0.2,0C422.8,445.3,422.9,445.3,422.9,445.4z"/>
	<path class="st7" d="M398,436.1l-15.1-5.9l-1.6-0.6l-0.6-0.2l-1.1,2.8l-7,17.8l-1.1,2.8l-0.7,1.7c0.1-0.1,0.1-0.1,0.1-0.1
		s0.5,2.4,0.5,3.8c0,0.5,1.5,1.3,3.5,2.3c2.2,1.1,5,2.4,6.9,3.6c1.6,1,2.7,1.9,2.4,2.6c-0.3,0.8-1.3,0.7-2.4,0.2
		c-2.2-0.9-5.2-2.9-5.7-2.4c-0.5,0.6,3.8,2.3,5.7,4.1c0.4,0.4,0.7,0.8,0.8,1.2c0.1,0.3,0,0.6-0.1,0.8c-0.1,0.1-0.2,0.2-0.3,0.3
		c-0.1,0.1-0.2,0.1-0.4,0.2c-0.3,0.1-0.7,0-1.1-0.2c-0.5-0.2-1-0.5-1.5-0.9c-1-0.7-2-1.6-2.9-2.3c-0.7-0.6-1.3-1-1.6-0.8
		c-0.4,0.3,0.6,1.2,1.8,2.2c0.4,0.3,0.7,0.6,1.1,1c0.2,0.2,0.5,0.5,0.7,0.7c0.7,0.8,1.2,1.6,0.7,2.1c0,0,0,0.1-0.1,0.1
		c-0.3,0.3-0.7,0.3-1.1,0.2c-0.3-0.1-0.5-0.2-0.8-0.4c-0.7-0.5-1.4-1.2-2.1-1.9c-0.1-0.1-0.2-0.2-0.3-0.3c-1-1-1.9-1.8-2.4-1.6
		c-0.7,0.3,0.6,1.6,1.9,2.9c0.2,0.2,0.4,0.4,0.6,0.7c1,1.1,1.8,2.1,1.3,2.7c-0.4,0.4-0.8,0.6-1.2,0.5c-0.2,0-0.4-0.1-0.6-0.2
		c-0.8-0.4-1.8-1.4-3.1-2.5c-1.2-1.1-3.7-2.3-6.1-3.8l-1.3,3.4l10.6,4.2l0.6,0.2l3.4,1.3l3.6,1.4l0,0l7.9,3.1l1.8,0.7l1.3-3.4
		l1.3-3.3l1.6-4.2l0,0l0.8-1.9l0.6-1.6l1.4-3.5c-1.2,0-2.2,0.1-3,0.3c-3,0.7-5,1.4-5.4-0.4c-0.3-1.7,7.3-2.4,6.4-3.6
		c-0.9-1.2-7.1,2.4-7.8,0.3c-0.7-2.1,7.2-2.3,6.7-3.3c-0.5-1-8.4,2.1-8.6-0.6c-0.2-2.8,8.7-1.2,8.5-2.3c-0.2-1.1-8.5,0.4-8.1-2.1
		c0.4-2.5,14.6,0.1,15.3-1.2c0.7-1.3,2.3-3.1,2.3-3.1s0,0,0,0.1l3.8-9.6L398,436.1z"/>
	<g>
		<path class="st8" d="M317,395.6c-2.5,0.8-4.9,1.3-7,1.3c-2.3,0-5-0.5-7.9-1.6c-1.7-0.6-3.5-1.4-5.3-2.4c-0.2,0.6-0.2,1.2-0.2,1.8
			c0,0.4,0.1,0.9,0.2,1.5c0.1,0.5,0.3,1.1,0.5,1.7c1,2.9,3,6.7,5.2,9.9c2.5,3.9,5.2,7,6.6,7c1.8,0,5.4-4.8,8.2-9.8
			c1.1-2,2.1-4,2.8-5.8c0.4-1,0.7-2,0.9-2.8c0.1-0.6,0.2-1.2,0.2-1.6c0-0.3,0-0.6-0.1-0.8C319.7,394.7,318.3,395.2,317,395.6z"/>
		<path class="st8" d="M409,399.4c-1.4,0.7-2.8,1.2-4.1,1.7c-2.5,0.8-4.9,1.3-7,1.3c-2.3,0-5-0.5-7.9-1.6c-1.7-0.6-3.5-1.4-5.3-2.4
			c-0.2,0.6-0.2,1.2-0.2,1.8c0,0.1,0,0.3,0,0.4c0,0.3,0.1,0.7,0.2,1.1c0.1,0.3,0.1,0.5,0.2,0.8c0,0.1,0,0.1,0,0.2
			c1.9,6.3,9.4,17.6,12,17.6c2.7,0,9.8-11.1,11.7-17.5c0.1-0.3,0.2-0.7,0.3-1c0.1-0.6,0.2-1.2,0.2-1.6
			C409,399.9,409,399.7,409,399.4z"/>
	</g>
	<path class="st5" d="M364.7,436.5c0,2,1.6,3.6,3.6,3.6c0.6,0,1.2-0.2,1.7-0.4c-0.6-2.2-1.2-4.4-1.9-6.8
		C366.2,433,364.7,434.6,364.7,436.5z"/>
	<path class="st5" d="M371.9,436.5c0-2-1.6-3.6-3.6-3.6c-0.1,0-0.2,0-0.2,0c0.7,2.4,1.3,4.6,1.9,6.8
		C371.1,439.1,371.9,437.9,371.9,436.5z"/>
	<path class="st9" d="M405.6,358.9c3.2-3.1,6.8-1.4,8.9-1.2c3.3,0.2-5.4-3.9-10.1-0.1C403.2,358.6,404.5,359.9,405.6,358.9z"/>
	<path class="st9" d="M390.5,357.6c-4.6-3.8-13.3,0.3-10.1,0.1c2.1-0.1,5.7-1.8,8.9,1.2C390.5,359.9,391.7,358.6,390.5,357.6z"/>
	<g>
		<path class="st10" d="M340.8,436c-2.6,1.2-5.3,2.4-7.5,3.3c0.2,0.6,0.4,1.2,0.7,1.8c0.1,0,0.1,0,0.2,0c0.2,0.4,0.3,0.8,0.4,1.3
			c0,0,0,0.1,0,0.1c1.1,2.8,2.3,5.4,3.4,7.5c-5.9,0.6-14.9,3.9-23.4,7.5c-0.4,0.2-0.8,0.3-1.2,0.5c0,0,0,0,0,0.1
			c-0.3,0.1-0.7,0.2-1,0.3c0.6-2.1,1.7-1.7,3-4.1c1.5-2.8-2.9-2.2-3.9-4c-1.1-1.8,3.2-2,1.5-4.3c-1.8-2.3-2.9,0.8-7.1,2.1
			c-3.1,1-5.1,0.8-6.7,0.5c0,0,0-0.1,0-0.1c-4-1.1-8.2-2.1-12.1-2.9c-2.4-0.5-4.7-0.9-6.8-1.2c-0.9-0.1-1.7-0.2-2.5-0.3
			c0.8-1,1.6-2.1,2.4-3.3c0-1,0-1.9,0-2.9c-1.3-0.1-2.5-0.5-3.5-1.1c-1.9,1.9-5.7,3.5-10.4,5c-0.4,3.8,0.1,6.6,2,8
			c1.9,1.9,6.5,3,11.9,3.8c1.1,0.2,2.3,0.4,3.5,0.5c4.6,0.6,9.5,1.1,13.6,1.8c0.8,0.5,1.5,1.1,2.1,1.7c-1.1,2.3,2.9,2,2.1,3.8
			c-0.6,1.4-2.9,1.8-3.6,2.8c-0.3,0.4-0.3,1,0.3,1.7c0.6,0.8,1.1,1.2,1.5,1.6c1,0.7,1.7,0.9,2.4,3.1c1,3.1,5.9,2.2,8.8,0.7
			c1.3-0.7,2.3-2.3,3.5-4c0.6-0.8,1.2-1.5,2-2.2c7.6-2.4,18.4-4.6,24.3-7.6c1.5-0.8,2.7-1.6,3.4-2.5c0,0,0,0,0,0
			c5-1.4,5.8-11,3.6-22.2C345.5,433.8,343.2,434.9,340.8,436z M345.2,439.9c-0.2,0.1-0.4,0.2-0.6,0.3c-0.3-0.3-0.5-0.7-0.7-1.1
			c-0.2-0.4-0.3-0.8-0.4-1.3c0.2-0.1,0.4-0.2,0.6-0.3c1.5-0.7,3-0.7,3.3,0C347.7,438.1,346.7,439.2,345.2,439.9z"/>
		<path class="st10" d="M339.4,348.7c-5.1,1.2-11.7,1.3-18,0c5.3,1.8,11.8,2.9,19.6,3.2C340.6,350.8,340,349.7,339.4,348.7z"/>
		<path class="st10" d="M348.6,354.5c-0.9-0.3-1.9,0-2.9,0.6c-0.1,2.4-0.5,4.9-1.2,7.6c0,0,0,0,0,0.1c-1,3.6-0.9,0.5-1.7-4.2
			c-0.3-1.5-0.6-3.3-1.1-4.9c-7.7,2.4-16.4,2.1-24.1-0.1c-0.7,0.5-1.4,0.1-1.5-0.5c-8.1-2.7-14.8-7.7-17.2-14.1
			c-4.9,7.7-13.9,14.2-20.5,14.8c-0.9,2.8-1.3,5.7-1.6,7.7c-0.4,2.6-0.5,3.7-1.2,1.3c-0.1-0.4-0.2-0.8-0.3-1.2
			c-0.4-1.6-0.6-3.1-0.8-4.6c-1.5-2-3.3-3-4.8-2.5c-0.3,0.1-0.6,0.3-0.8,0.5c-1.4,1.3-1.9,4.3-1.1,7.7c0.1,0.5,0.3,1,0.4,1.5
			c1.5,4.6,4.6,7.6,7,6.9c0.5-0.2,0.9-0.5,1.2-0.9c3,9.9,11.7,18.2,20.3,22.8c1.8,0.9,3.5,1.7,5.3,2.4c2.8,1,5.5,1.6,7.9,1.6
			c2.1,0,4.5-0.5,7-1.3c1.3-0.4,2.7-1,4.1-1.7c9-4.2,18.5-12.7,22-23c0,0,0,0,0.1,0c2.4,0.8,5.5-2.3,7-6.9
			C351.6,359.6,351,355.3,348.6,354.5z M301.5,353.5c-3.2-3.1-6.8-1.4-8.9-1.2c-3.3,0.2,5.4-3.9,10.1-0.1
			C303.9,353.2,302.6,354.5,301.5,353.5z M310.5,374.9c6.8-2.4,4.6-5.7,2.5-11.1C317.5,368.9,320.5,374.5,310.5,374.9z"/>
		<path class="st10" d="M436.5,359.9c-0.9-0.3-1.9,0-2.9,0.6c-0.1,2.4-0.5,4.9-1.2,7.6c0,0,0,0,0,0.1c-0.3,1.2-0.5,1.6-0.7,1.5
			c0,0.2-0.1,0.3-0.1,0.5c-0.5-1.4-1-3-1.7-4.5c-1.7-3.8-4.1-7.8-7.1-11.5c-7.6-1.4-15.6-2.2-23.3-2.4c-0.5-3.9-1.3-6.4-2-7.2
			c-1.1,1-1.7,4.2-1.8,7.2c-7.1,0.1-15.1,0.6-22.3,1.8c-4,4.3-6.9,9.2-8.4,13.9c-0.2,0.7-0.4,1.4-0.6,2.1c0-0.1,0-0.1,0-0.2
			c-0.2,0.4-0.4,0.1-0.7-1.1c-0.1-0.4-0.2-0.8-0.3-1.2c-0.4-1.6-0.6-3.1-0.8-4.6c-1.5-2-3.3-3-4.8-2.5c-2.4,0.8-3,5.1-1.5,9.7
			c1.5,4.6,4.6,7.6,7,6.9c0.5-0.2,0.9-0.5,1.2-0.9c3,9.9,11.7,18.2,20.3,22.8c1.8,0.9,3.5,1.7,5.3,2.4c2.8,1,5.5,1.6,7.9,1.6
			c2.1,0,4.5-0.5,7-1.3c1.3-0.4,2.7-1,4.1-1.7c9-4.2,18.5-12.7,22-23c0,0,0,0,0.1,0c2.4,0.8,5.5-2.3,7-6.9
			C439.5,365,438.8,360.7,436.5,359.9z M389.4,358.9c-3.2-3.1-6.8-1.4-8.9-1.2c-3.3,0.2,5.4-3.9,10.1-0.1
			C391.7,358.6,390.5,359.9,389.4,358.9z M414.5,357.7c-2.1-0.1-5.7-1.8-8.9,1.2c-1.1,1-2.3-0.3-1.1-1.3
			C409.1,353.8,417.8,357.9,414.5,357.7z"/>
		<path class="st10" d="M381.8,464c-2-1.2-4.7-2.5-6.9-3.6c-2-1-3.5-1.8-3.5-2.3c0-1.5-0.5-3.8-0.5-3.8s0,0.1-0.1,0.1
			c-0.5,0.6-2.6,3-4.5,3.6c-0.6,0.2-1.2,0.2-1.7-0.1c-0.9-0.1-1.7,0.1-2.4,0.5c-2,1.1-2.9,3.8-2.5,6.4c0.3,0.5,0.7,0.9,1.1,1.4
			c0.3,0.3,0.7,0.7,1.1,1c0.9,0.7,2,1.4,3,2c2.4,1.4,4.9,2.7,6.1,3.8c1.3,1.1,2.3,2.1,3.1,2.5c0.2,0.1,0.4,0.2,0.6,0.2
			c0.4,0.1,0.8,0,1.2-0.5c0.5-0.6-0.3-1.6-1.3-2.7c-0.2-0.2-0.4-0.4-0.6-0.7c-1.3-1.3-2.6-2.6-1.9-2.9c0.5-0.2,1.4,0.6,2.4,1.6
			c0.1,0.1,0.2,0.2,0.3,0.3c0.7,0.7,1.4,1.4,2.1,1.9c0.3,0.2,0.6,0.4,0.8,0.4c0.4,0.1,0.8,0.1,1.1-0.2c0,0,0-0.1,0.1-0.1
			c0.5-0.5,0-1.3-0.7-2.1c-0.2-0.2-0.4-0.5-0.7-0.7c-0.3-0.3-0.7-0.7-1.1-1c-1.2-1.1-2.2-2-1.8-2.2c0.3-0.2,0.8,0.2,1.6,0.8
			c0.8,0.6,1.9,1.5,2.9,2.3c0.5,0.4,1,0.7,1.5,0.9c0.4,0.2,0.8,0.2,1.1,0.2c0.1,0,0.3-0.1,0.4-0.2c0.1-0.1,0.2-0.2,0.3-0.3
			c0.2-0.3,0.2-0.6,0.1-0.8c-0.1-0.4-0.4-0.8-0.8-1.2c-1.9-1.8-6.2-3.5-5.7-4.1c0.5-0.5,3.4,1.5,5.7,2.4c1.2,0.4,2.2,0.6,2.4-0.2
			C384.5,465.9,383.5,465,381.8,464z"/>
		<path class="st10" d="M409.3,456.5c-0.2-0.2-0.5-0.3-0.8-0.4c-1.4,0-2.4-1.8-3-3.6c-0.4-1.2-0.7-2.4-0.7-2.7c0-0.1,0-0.1,0-0.1
			s-1.6,1.8-2.3,3.1c-0.7,1.3-14.9-1.3-15.3,1.2c-0.4,2.5,7.9,1,8.1,2.1c0.2,1.1-8.7-0.5-8.5,2.3c0.2,2.8,8-0.4,8.6,0.6
			c0.5,1-7.4,1.2-6.7,3.3c0.7,2.1,7-1.5,7.8-0.3c0.9,1.2-6.7,1.9-6.4,3.6c0.3,1.7,2.3,1.1,5.4,0.4c0.8-0.2,1.8-0.2,3-0.3
			c2.7-0.1,6.2,0.1,8.9-0.6c0.8-0.2,1.5-0.4,2.1-0.8c0.6-0.7,1-1.6,1.3-2.4C411.5,460,411.1,457.7,409.3,456.5z"/>
	</g>
	<path class="st5" d="M422.1,446.4c-0.2,0-0.5,0-0.7,0c-1.5,0.2-2.7,0.8-2.8,1.5c1.2-0.4,2.4-0.8,3.6-1.2
		C422.1,446.7,422.1,446.6,422.1,446.4z"/>
	<path class="st5" d="M422.4,449.1c0.1-0.4,0.1-0.9,0-1.3c0,0,0-0.1,0-0.1c-0.1,0.5-0.2,1-0.3,1.5
		C422.2,449.1,422.3,449.1,422.4,449.1z"/>
	<path class="st5" d="M418.6,448c0,0.1,0,0.1,0,0.2c0.1,0.7,1.5,1.2,3.1,1c0.1,0,0.2,0,0.4-0.1c0.1-0.5,0.2-1,0.3-1.5
		c0-0.3-0.1-0.5-0.2-0.8C421,447.2,419.8,447.6,418.6,448z"/>
	<path class="st5" d="M431.7,444.4c0,0,0,0.1,0.1,0.1c0.1,0,0.2,0.1,0.2,0.1c0.8-0.1,1.5,0,2.1,0c0.8-0.6,1.3-1.3,1.1-1.8
		c-0.3-0.7-1.8-0.7-3.3,0c-0.2,0.1-0.4,0.2-0.5,0.3c0,0.2,0,0.5,0.1,0.7C431.5,444,431.6,444.2,431.7,444.4z"/>
	<path class="st5" d="M431.5,443.8c0-0.2,0-0.5-0.1-0.7c0,0-0.1,0-0.1,0C431.4,443.4,431.4,443.6,431.5,443.8z"/>
	<path class="st5" d="M432,444.6c-0.1,0-0.2-0.1-0.2-0.1c0,0,0,0.1,0.1,0.1C431.9,444.6,431.9,444.6,432,444.6z"/>
	<path class="st5" d="M432,444.6c0.4,0.2,0.8,0.4,1.1,0.6c0.4-0.2,0.7-0.4,1-0.6C433.5,444.6,432.8,444.6,432,444.6z"/>
	<path class="st5" d="M431.8,444.6c0.2,0.3,0.4,0.6,0.6,0.9c0.2-0.1,0.4-0.2,0.6-0.3c0,0,0,0,0.1,0c-0.3-0.3-0.7-0.5-1.1-0.6
		C431.9,444.6,431.9,444.6,431.8,444.6z"/>
	<path class="st6" d="M421.7,445.6c0.2-0.1,0.4-0.1,0.6-0.2c0,0,0,0,0,0c-1.4-1-3.8-4.9-5.8-8.7c-1-1.5-1.9-3.1-2.8-4.7
		C415.2,440.7,419.7,444.5,421.7,445.6z"/>
	<path class="st6" d="M413.3,428.9c0.1,1,0.2,2,0.4,3c0.9,1.6,1.9,3.2,2.8,4.7C414.8,433.4,413.5,430.2,413.3,428.9z"/>
	<path class="st6" d="M422.3,445.4c-0.2,0.1-0.4,0.1-0.6,0.2C422.7,446.1,423.1,446,422.3,445.4z"/>
	<path class="st11" d="M228.5,387.8c-2.8,0.7-5.7,1.1-8.7,1.1c-3.4,0-6.7-0.5-9.9-1.4c-1.4-0.4-2.7-0.8-4-1.4c0,0.2,0,0.4,0,0.6
		c0,0.3,0,0.7,0.1,1l0.8,0.4l11.6,6h0.6l11.1-6l1-0.6l0.1-0.1l0.1-0.1c0-0.2,0-0.3,0-0.5C230.5,387.2,229.5,387.5,228.5,387.8z"/>
	<path class="st4" d="M233.7,369.8c-9.3,2-18.7,2-28,0C205.2,373.3,232.7,373.7,233.7,369.8z"/>
	<path class="st4" d="M213.6,374c-0.2,2.4,11.8,2.7,12.2,0C221.7,375.4,217.7,375.4,213.6,374z"/>
	<path class="st4" d="M220.4,366c10.4-0.5,7.3-6.3,2.6-11.5C225.1,360.1,227.5,363.6,220.4,366z"/>
	<path class="st12" d="M205.5,387.4l0,0.2c0,0,0,0,0,0L205.5,387.4z"/>
	<path class="st12" d="M206.4,392.5l-0.7-4.2c0,0.2-0.1,0.5-0.1,0.7l0.1,2.9C205.9,392.1,206.2,392.3,206.4,392.5z"/>
	<path class="st12" d="M214.5,396.4L214.5,396.4l4.2-2.2l-8.9,3.1c0.2,0.5,0.3,0.9,0.4,1.4L214.5,396.4z"/>
	<path class="st12" d="M206.1,400.9l4.1-2.2c-0.1-0.5-0.2-1-0.4-1.4l-2.4,0.8l-1-5.6c-0.2-0.2-0.5-0.4-0.7-0.5L206.1,400.9z"/>
	<path class="st12" d="M205.7,388.3l-0.1-0.7c0,0,0,0,0,0l0,0.7C205.6,388.3,205.6,388.3,205.7,388.3z"/>
	<path class="st12" d="M205.7,388.3L205.7,388.3c0,0-0.1,0-0.1,0l0,0.7C205.6,388.8,205.6,388.6,205.7,388.3z"/>
	<polygon class="st12" points="231.4,387.6 231.4,387.4 231.4,387.6 	"/>
	<path class="st12" d="M231.3,391.7l0.1-2.6c0-0.2,0-0.3-0.1-0.4l-0.3,3.2C231.1,391.8,231.2,391.7,231.3,391.7z"/>
	<path class="st12" d="M222.9,396.5l3.5,1.9c0.1-0.3,0.1-0.6,0.2-0.9l-7.9-3.3L222.9,396.5L222.9,396.5z"/>
	<path class="st12" d="M231.3,391.7c-0.1,0.1-0.2,0.1-0.3,0.2l-0.7,7.2l-3.6-1.5c-0.1,0.3-0.2,0.6-0.2,0.9l4.5,2.5L231.3,391.7z"/>
	<path class="st12" d="M231.3,388.4C231.3,388.4,231.4,388.4,231.3,388.4l0.1-0.8c0,0,0,0,0,0L231.3,388.4z"/>
	<path class="st12" d="M231.4,389.1l0-0.7c0,0,0,0-0.1,0l0,0.3C231.3,388.8,231.3,388.9,231.4,389.1z"/>
	<polygon class="st13" points="220.6,400.8 222.9,396.5 222.9,396.5 218.7,394.2 214.5,396.4 214.5,396.4 216.8,400.8 212.4,427.2 
		219,442.4 225,427.2 	"/>
	<g>
		<path class="st14" d="M302.7,352.2c-4.6-3.8-13.3,0.3-10.1,0.1c2.1-0.1,5.7-1.8,8.9,1.2C302.6,354.5,303.9,353.2,302.7,352.2z"/>
		<path class="st14" d="M276.5,370.2c-0.3,0.4-0.7,0.7-1.2,0.9c-2.4,0.8-5.5-2.3-7-6.9c-0.2-0.5-0.3-1-0.4-1.5
			c-1.5,17-1.6,33.6,9.4,43.6c4.1-3.7,8.4-6.7,12.6-8.1c1-0.3,2-0.5,2.9-0.6c1.3-0.5,2.7-0.8,4.1-1.2c-0.1-0.6-0.2-1.1-0.2-1.5
			c0-0.6,0.1-1.2,0.2-1.8C288.2,388.4,279.5,380.1,276.5,370.2z"/>
		<path class="st14" d="M309.7,323.6c-19,0-35.9,9.1-40.7,31.4c0.3-0.2,0.5-0.4,0.8-0.5c1.5-0.5,3.3,0.5,4.8,2.5
			c0.2,1.5,0.4,3,0.8,4.6c0.1,0.4,0.2,0.8,0.3,1.2c0.7,2.4,0.8,1.3,1.2-1.3c0.3-2,0.7-4.9,1.6-7.7c6.5-0.6,15.6-7.2,20.5-14.8
			c2.4,6.5,9.1,11.4,17.2,14.1c0.1,0.6,0.8,1,1.5,0.5c7.6,2.2,16.4,2.5,24.1,0.1c0.5,1.7,0.9,3.4,1.1,4.9c0.8,4.6,0.7,7.7,1.7,4.2
			c0,0,0,0,0-0.1c0.7-2.7,1.1-5.2,1.2-7.6c1-0.7,2-0.9,2.9-0.6c2.4,0.8,3,5.1,1.5,9.7c-1.5,4.6-4.6,7.6-7,6.9c0,0,0,0-0.1,0
			c-3.5,10.3-13,18.7-22,23c0,0.3,0.1,0.6,0.1,0.8c0,0.5-0.1,1-0.2,1.6c1.6,0.4,3.2,0.9,4.6,1.5c1.5,0.2,3.1,0.7,4.8,1.6
			c3.7,2.2,7.2,5.1,10.3,8.3c13.8-10.5,13.4-29.8,11.4-47.8C349.1,333.8,330.6,323.6,309.7,323.6z M321.4,348.7
			c6.3,1.3,12.9,1.2,18,0c0.6,1,1.2,2.1,1.6,3.2C333.2,351.7,326.7,350.5,321.4,348.7z"/>
		<path class="st14" d="M411.4,427.8c0-0.7-0.1-1.3-0.1-2c-0.4-8-0.9-15-1.4-19.9c-0.1-1.2-0.2-2.2-0.3-3.2c0-0.2-0.1-0.5-0.1-0.7
			c-0.2-0.1-0.5-0.1-0.7-0.2c-0.1,0.3-0.2,0.6-0.3,1c-1.9,6.3-8.9,17.5-11.7,17.5c-2.6,0-10.1-11.3-12-17.6c-0.2,1.4-0.3,3.1-0.5,5
			c-0.4,5-0.9,11.6-1.3,19c-0.1,1.1-0.1,2.3-0.2,3.5l15.1,5.9l10.7,4.2l-3.8,9.6c0.1,0.3,0.3,1.5,0.7,2.7c0.5-0.2,1.1-0.4,1.9-0.6
			c1.1-0.3,2.4-0.8,3.9-1.3c0.3-0.2,0.6-0.4,1-0.6C412.1,442.3,411.8,434.7,411.4,427.8z"/>
		<path class="st14" d="M367.3,414c1.5-2.7,3.1-4.8,4.8-6.4C370,409.4,368.3,411.5,367.3,414z"/>
		<path class="st14" d="M249.4,445.7c-3.1,0.6-5.9,1-8.3,1.4c0.1-1.5,0.1-3,0.1-4.5c-2,1.6-3.5,3.2-5.1,3.6c0,0-0.1,0-0.1,0
			c-1.9,0.5-4.6,0.5-6.4-0.3l-1.3,6.6l8.1,0.7l11.4,0.9l9.2,0.7l0.6-2.8l1.8-8.6c-0.9,0.2-1.7,0.4-2.6,0.6
			C254.4,444.8,251.8,445.3,249.4,445.7z M243.4,451c-0.2,0-0.5,0-0.7,0c-1.7-0.1-3.1-0.8-3-1.5c0-0.8,1.4-1.4,3.1-1.3
			c0.2,0,0.5,0,0.7,0.1c0.1,0.4,0.2,0.9,0.1,1.4C243.6,450.1,243.6,450.6,243.4,451z M257.6,446.8c0.1,0.3-0.1,0.6-0.3,0.9
			c-0.4,0.5-1.3,1-2.3,1.2c-0.2,0.1-0.5,0.1-0.7,0.2c-0.2-0.4-0.4-0.8-0.6-1.3c-0.1-0.5-0.2-0.9-0.2-1.4c0.2-0.1,0.4-0.2,0.7-0.2
			c1.2-0.3,2.3-0.3,2.9,0C257.4,446.4,257.5,446.6,257.6,446.8z"/>
		<path class="st14" d="M252.4,412.1l-15.7-3l-0.8,4.2l-1.4,7.5l-1.9,9.9c0.7,0.6,1.6,1.2,2.7,1.7c0,0,0.1,0,0.1,0.1
			c2.5,1.1,3.9,1.3,5.1,1.1c-0.1-0.5-0.2-1-0.3-1.5c3.5-0.9,7.3-1.5,11.1-2c1.3-0.2,2.6-0.3,3.9-0.4c0.1,0,0.3,0,0.4,0
			c2.4-0.2,4.7-0.3,6.9-0.3l0.8-3.8l0.9-4.4l1.4-6.5l-12.8-2.5L252.4,412.1z"/>
	</g>
	<path class="st5" d="M189.2,428c2.1,0,3.8-1.7,3.8-3.8c0-1.2-0.6-2.3-1.5-3c-1.8,1.5-3.7,3.1-5.6,4.6
		C186.4,427.1,187.7,428,189.2,428z"/>
	<path class="st5" d="M185.5,424.3c0,0.6,0.1,1.1,0.3,1.5c1.9-1.5,3.8-3,5.6-4.6c-0.6-0.5-1.4-0.7-2.2-0.7
		C187.2,420.5,185.5,422.2,185.5,424.3z"/>
	<path class="st5" d="M243.5,448.3c-0.2,0-0.5-0.1-0.7-0.1c-1.7-0.1-3.1,0.5-3.1,1.3c0,0.8,1.3,1.5,3,1.5c0.2,0,0.5,0,0.7,0
		c0.1-0.4,0.2-0.9,0.3-1.4C243.7,449.2,243.6,448.7,243.5,448.3z"/>
	<path class="st5" d="M257.6,446.8c-0.1-0.2-0.2-0.4-0.5-0.5c0,0.5,0.1,1,0.1,1.4C257.5,447.4,257.7,447.1,257.6,446.8z"/>
	<path class="st5" d="M254.3,446.2c-0.2,0.1-0.5,0.1-0.7,0.2c0,0.5,0,0.9,0.2,1.4c0.1,0.5,0.3,0.9,0.6,1.3c0.2,0,0.5-0.1,0.7-0.2
		c1-0.3,1.8-0.7,2.3-1.2c0-0.5-0.1-1-0.1-1.4C256.5,445.9,255.4,445.9,254.3,446.2z"/>
	<g>
		<path class="st15" d="M236.5,453.3l-8.1-0.7l1.3-6.6c-1.2-0.5-2.1-1.4-2.2-2.8c-0.2-3.4-1.5-2.7-2.7-5.7c-1.1-3,3.2-1.9,4.6-3.6
			c1.3-1.7-3-2.5-1-4.6c1.5-1.5,2.3-0.3,4.2,1.2l1.9-9.9c-0.3-3.3-0.5-6.5-0.8-9.5c-0.7-8.2-1.4-15.1-2-19.8
			c-0.1-0.9-0.2-1.7-0.3-2.4l-0.1,2.6l-0.4,9.2l-4.5-2.5l-3.5-1.9l-2.3,4.3l4.4,26.4l-6,15.2l-6.5-15.2l4.4-26.4l-2.3-4.4l-4.3,2.3
			l-4.1,2.2l-0.4-8.9l-0.1-2.9c-0.1,0.8-0.2,1.6-0.3,2.6c-0.6,4.6-1.3,11.3-1.9,19.2c-1.3,15-2.6,34.3-3.2,51.3c0,0.5,0,1,0,1.5
			c11.9,1.6,25,1.6,36.8,0c0-0.7,0-1.4-0.1-2.1C236.7,458.8,236.6,456.1,236.5,453.3z"/>
		<path class="st15" d="M199.1,390.6c-1.8,0.8-3.4,1.8-4.9,2.9C195.9,392.3,197.6,391.3,199.1,390.6z"/>
		<polygon class="st15" points="205.7,388.3 205.7,388.3 206.4,392.5 207.4,398.1 209.8,397.3 218.7,394.2 226.6,397.6 230.2,399.1 
			231,391.9 231.3,388.6 231.3,388.4 231.4,387.6 231.4,387.4 231.4,387.4 231.2,387.5 231.1,387.5 230.1,388.1 219,394 218.4,394 
			206.8,388 206,387.6 205.8,387.5 205.7,387.5 205.5,387.4 205.5,387.6 		"/>
	</g>
	<g>
		<path class="st16" d="M429,418.1c-0.2-0.6-0.4-1.2-0.6-1.7c-0.7-1.5-1.4-2.8-2.1-4c-0.7-1.1-1.5-2.2-2.3-3.1
			c-0.4-0.6-0.8-1.2-1.2-1.8c-1.2-1.9-3-3-4.9-3.4c-1.5-0.9-2.9-1.6-4.2-2.1c-2.6-1.1-4.4-1.4-4.5-1.9c0.1,0.5,0.2,1.2,0.3,1.9
			c0,0.2,0.1,0.4,0.1,0.7c0.1,0.9,0.2,2,0.3,3.2c0.5,5,1,12,1.4,19.9c0,0.6,0.1,1.3,0.1,2c0.4,6.9,0.7,14.5,0.9,22.2
			c0.2-0.1,0.4-0.3,0.7-0.4c2.5-1.5,5.6-2.9,8.7-4c-2-1.1-6.5-4.9-8-13.7c-0.2-0.9-0.3-1.9-0.4-3c0.2,1.2,1.6,4.4,3.2,7.7
			c2,3.8,4.3,7.7,5.8,8.7c0,0,0,0,0,0c0.2-0.1,0.4-0.1,0.5-0.2c0.1,0,0.1,0,0.2,0c3.3-1,6.4-1.4,8.6-0.7c0.1,0,0.2,0.1,0.2,0.1
			c0,0,0-0.1-0.1-0.1c-0.1-0.2-0.2-0.4-0.2-0.6c-0.1-0.2-0.1-0.5-0.1-0.7c0,0,0.1,0,0.1,0c0.2-0.1,0.3-0.2,0.5-0.3
			c1.5-0.7,3-0.7,3.3,0c0.2,0.5-0.2,1.2-1.1,1.8c-0.3,0.2-0.6,0.4-1,0.6c0,0,0,0-0.1,0c-0.2,0.1-0.4,0.2-0.6,0.3
			c-0.2-0.3-0.4-0.6-0.6-0.9c-0.1,0-0.2,0-0.3,0c-2.2,0.2-4.9,0.8-7.7,1.7c-0.4,0.1-0.8,0.2-1.2,0.4c-0.1,0-0.3,0.1-0.4,0.1
			c0.1,0.3,0.2,0.5,0.2,0.8c0,0,0,0.1,0,0.1c0.1,0.5,0,0.9,0,1.3c-0.1,0-0.2,0-0.3,0.1c-0.1,0-0.2,0-0.4,0.1c-1.6,0.2-3-0.2-3.1-1
			c0-0.1,0-0.1,0-0.2c-2.2,0.8-4.3,1.5-6.3,2.2c-0.3,0.1-0.7,0.2-1,0.4c-1.5,0.5-2.8,1-3.9,1.3c-0.7,0.2-1.4,0.4-1.9,0.6
			c0.6,1.7,1.6,3.6,3,3.6c0.3,0.1,0.5,0.3,0.8,0.4c1.8,1.2,2.2,3.4,1.5,5.6c-0.3,0.8-0.7,1.7-1.3,2.4c-0.6,0.3-1.3,0.6-2.1,0.8
			c0.8,0.4,1.7,0.5,2.6,0.4c0.4-0.1,1.3-0.4,2.6-0.8c1.8-0.7,4.3-1.8,7-3.1c4.2-2.1,9-4.7,12.5-7.5c2.9-2.3,4.8-4.6,4.9-6.6
			C439,441.7,435.1,429.8,429,418.1z"/>
		<path class="st16" d="M384.6,401.7c-0.1-0.4-0.1-0.7-0.2-1.1c-0.7,0.3-1.9,0.6-3.4,1.2c-2.5,1-5.8,2.6-9,5.7
			c-1.7,1.7-3.4,3.8-4.8,6.4c-0.3,0.5-0.6,1.1-0.9,1.7c-7.3,10.8-12.9,22.4-12.7,29.4c-1.4,2.6-0.6,10.8,0.7,16.3
			c0.6,2.6,1.3,4.6,1.9,5.1c1.1,0.8,2.8,0.7,4.4-0.2c-0.5-0.4-0.8-0.9-1.1-1.4c-0.5-2.6,0.5-5.3,2.5-6.4c0.7-0.4,1.5-0.6,2.4-0.5
			c0.5,0.3,1.1,0.3,1.7,0.1c1.9-0.6,4-3,4.5-3.6l0.7-1.7l1.1-2.8l7-17.8l1.1-2.8l0.6,0.2l1.6,0.6c0.1-1.2,0.1-2.3,0.2-3.5
			c0.4-7.4,0.8-14,1.3-19c0.2-1.9,0.3-3.6,0.5-5c0-0.1,0-0.1,0-0.2C384.8,402.2,384.7,402,384.6,401.7z M374.6,439.1
			c-0.5,1.2-1.4,2.3-2.5,3c-0.4,0.3-0.8,0.5-1.3,0.7c-0.8,0.3-1.6,0.5-2.5,0.5c-2,0-3.9-0.9-5.1-2.3c-1-1.2-1.7-2.8-1.7-4.5
			c0-2.2,1.1-4.2,2.7-5.4c0.9-0.6,1.9-1.1,2.9-1.3c0.4-0.1,0.7-0.1,1.1-0.1c0.5,0,1,0.1,1.4,0.2c0,0,0,0,0,0
			c3.1,0.7,5.4,3.4,5.4,6.6C375.1,437.4,374.9,438.3,374.6,439.1z"/>
		<path class="st16" d="M205.5,387.6c-0.8,0.6-3.3,1.4-6.3,2.9c-0.9,0.2-1.7,0.5-2.6,1c-14.7,9.1-34.2,29.6-36.8,40.3
			c-3.1,4.8,10.5,20.5,19.2,29.8c-0.1,2.5-0.3,4.9-0.4,7.3c1.2,0.7,2.4,1.3,3.6,1.9c3.1,1.6,6.3,3.1,9.6,4.4c1.3,0.5,2.7,1.1,4,1.5
			c1.3,0.5,2.6,0.9,3.9,1.3c0-4.5,0.1-9.4,0.2-14.5c0-0.5,0-1,0-1.5c0.6-17,1.9-36.2,3.2-51.3c0.7-7.9,1.4-14.6,1.9-19.2
			c0.1-1,0.2-1.8,0.3-2.6l0-0.7L205.5,387.6z M182.4,422.7c0.3-1.4,1-2.6,2-3.6c1.3-1.2,3-1.9,4.8-1.9c0.5,0,1,0.1,1.5,0.2
			c0,0,0,0,0,0c1.2,0.3,2.4,0.9,3.3,1.7c1.4,1.3,2.3,3.1,2.3,5.2c0,3.9-3.2,7-7,7c-1.5,0-2.8-0.5-4-1.2c-0.9-0.6-1.6-1.4-2.1-2.2
			c-0.5-0.9-0.9-2-1-3.1c0-0.2,0-0.3,0-0.5C182.2,423.7,182.3,423.2,182.4,422.7z M180.5,441.4c-2.7-2.4-5.4-4.6-8-6.4
			c2.9-1.6,6-3.7,9.3-6.1C181.3,432.8,180.9,437.1,180.5,441.4z M195.4,463.7c-4,0.2-11.3,0.3-13.1,0.3c-0.1-0.3-0.1-0.6-0.2-0.9
			c2-2.9,4.2-5.6,6.6-8.1c0.1,0.1,0.2,0.2,0.4,0.3c1.3,1.3,2.9,2.8,4.7,4.5c0.8,0.8,1.5,1.5,2,2.2c0.3,0.4,0.6,0.7,0.8,1.1
			c0.1,0.2,0.2,0.3,0.3,0.5C196.4,463.6,195.9,463.7,195.4,463.7z M194.2,393.4c1.4-1.1,3.1-2,4.9-2.9
			C197.6,391.3,195.9,392.3,194.2,393.4z"/>
		<path class="st16" d="M205.8,387.5c0-0.1,0-0.2,0-0.3c0,0.1-0.1,0.1-0.2,0.2L205.8,387.5z"/>
		<path class="st16" d="M257.1,455l-9.2-0.7l-11.4-0.9c0.1,2.8,0.2,5.5,0.3,8.2c0,0.7,0,1.4,0.1,2.1c0.2,8,0.3,15.4,0.1,21.6
			c2.1,0.2,4.2,0.3,6.3,0.3c5.6,0.2,11.4,0.2,17.2-0.1c-0.6-8.9-1.6-21.1-2.8-33.3L257.1,455z"/>
		<path class="st16" d="M277.1,432.4c-0.1-0.1-0.2-0.2-0.3-0.3c-0.3-1.5-1-3.1-1.9-4.9c-0.7-1.3-1.5-2.7-2.5-4.2
			c-1.4-2.1-3-4.2-4.8-6.4c-6.1-7.4-14.2-15.3-21.9-21c-5.9-6.4-12.7-7.2-14.3-8l0,0.8l0,0.7c0.1,0.7,0.2,1.5,0.3,2.4
			c0.6,4.7,1.3,11.7,2,19.8c0.3,3,0.5,6.2,0.8,9.5l1.4-7.5l0.8-4.2l15.7,3l0.5,0.1l12.8,2.5l-1.4,6.5l-0.9,4.4l-0.8,3.8
			c-2.2,0-4.5,0.1-6.9,0.3c-0.1,0-0.3,0-0.4,0c-1.3,0.1-2.6,0.2-3.9,0.4c-3.8,0.5-7.6,1.2-11.1,2c0.1,0.5,0.2,1,0.3,1.5
			c0.5,3,0.7,6,0.7,9.2c0,1.5,0,3-0.1,4.5c2.4-0.4,5.2-0.8,8.3-1.4c2.4-0.5,5-1,7.5-1.5c0.9-0.2,1.8-0.4,2.6-0.6
			c2.3-0.6,4.6-1.2,6.8-1.9c4.7-1.5,8.5-3.1,10.4-5c0.5-0.5,0.8-0.9,1-1.4c0.2-0.4,0.2-0.8,0.2-1.3c0-0.2-0.1-0.4-0.1-0.6
			C277.6,433.1,277.4,432.7,277.1,432.4z"/>
	</g>
	<g>
		<path class="st17" d="M281.9,424.5C281.9,424.5,281.9,424.5,281.9,424.5c-0.5-0.1-0.9-0.2-1.4-0.2c-0.3,0-0.6,0-0.8,0.1
			c-2,0.2-3.7,1.3-4.7,2.9c0.9,1.8,1.6,3.4,1.9,4.9c0.1,0.1,0.2,0.2,0.3,0.3c-0.2-0.4-0.3-0.8-0.3-1.3c0-1.8,1.3-3.2,3-3.6
			c0.2,0,0.4-0.1,0.7-0.1c2,0,3.6,1.6,3.6,3.6c0,2-1.6,3.6-3.6,3.6c-0.1,0-0.3,0-0.4,0c-0.9-0.1-1.7-0.5-2.3-1.2
			c0.1,0.2,0.1,0.4,0.1,0.6c0,0.4,0,0.8-0.2,1.3c-0.2,0.5-0.5,1-1,1.4c1,0.7,2.2,1.1,3.5,1.1c0.1,0,0.2,0,0.3,0c0.4,0,0.8,0,1.2-0.1
			c0.2,0,0.4-0.1,0.6-0.1c2.9-0.8,5-3.4,5-6.5c0-0.5-0.1-1-0.2-1.5C286.5,427,284.4,425,281.9,424.5z"/>
		<path class="st17" d="M369.7,429.9C369.7,429.9,369.7,429.9,369.7,429.9c-0.5-0.1-0.9-0.2-1.4-0.2c-0.4,0-0.7,0-1.1,0.1
			c-1.1,0.2-2.1,0.6-2.9,1.3c-1.6,1.2-2.7,3.2-2.7,5.4c0,1.7,0.6,3.3,1.7,4.5c1.2,1.4,3.1,2.3,5.1,2.3c0.9,0,1.7-0.2,2.5-0.5
			c0.4-0.2,0.9-0.4,1.3-0.7c1.1-0.7,2-1.8,2.5-3c0.3-0.8,0.5-1.7,0.5-2.6C375.1,433.2,372.8,430.5,369.7,429.9z M370,439.7
			c-0.5,0.3-1.1,0.4-1.7,0.4c-2,0-3.6-1.6-3.6-3.6c0-1.9,1.5-3.5,3.4-3.6c0.1,0,0.2,0,0.2,0c2,0,3.6,1.6,3.6,3.6
			C371.9,437.9,371.1,439.1,370,439.7z"/>
		<path class="st17" d="M200,463.7c-0.2,5.1-0.2,10-0.2,14.5c11.4,3.7,23.9,6.1,37.2,7.1c0.2-6.2,0.1-13.6-0.1-21.6
			C225,465.3,211.9,465.3,200,463.7z"/>
		<path class="st17" d="M202.6,343.3c2.6-1.8,7.6-1.1,10.1,0.7c1.5,1,3.5-0.7,2.1-1.7c-3.6-2.6-9.9-2.6-13.7-0.1
			C199.5,343.2,201.1,344.3,202.6,343.3z"/>
		<path class="st17" d="M240.2,342.2c-3.8-2.5-10.1-2.5-13.7,0.1c-1.5,1.1,0.6,2.8,2.1,1.7c2.5-1.8,7.4-2.5,10.1-0.7
			C240.1,344.3,241.7,343.2,240.2,342.2z"/>
		<path class="st17" d="M190.7,417.4C190.7,417.4,190.7,417.4,190.7,417.4c-0.5-0.1-1-0.2-1.5-0.2c-1.9,0-3.6,0.7-4.8,1.9
			c-1,0.9-1.7,2.2-2,3.6c-0.1,0.5-0.2,1-0.2,1.5c0,0.2,0,0.3,0,0.5c0.1,1.1,0.4,2.2,1,3.1c0.5,0.9,1.2,1.7,2.1,2.2
			c1.1,0.8,2.5,1.2,4,1.2c3.9,0,7-3.2,7-7c0-2-0.9-3.9-2.3-5.2C193.1,418.3,192,417.7,190.7,417.4z M189.2,428
			c-1.5,0-2.8-0.9-3.4-2.2c-0.2-0.5-0.3-1-0.3-1.5c0-2.1,1.7-3.8,3.8-3.8c0.8,0,1.6,0.3,2.2,0.7c0.9,0.7,1.5,1.8,1.5,3
			C193,426.3,191.3,428,189.2,428z"/>
		<path class="st17" d="M238.8,319.6c0,0-7-8-21.3-7.3c-16.6,0.8-29.4,13.2-33,22.7c-1.6,4.2-1.8,8.6-1.3,12.5
			c0.4,0.5,0.7,1.1,1.1,1.7c0.5,0.9,0.9,1.8,1.2,2.8c0.6,1.9,0.9,3.8,0.8,5.4c0.2,0.4,0.5,0.8,0.7,1.1c2.3,3.3-0.8-17.3,3.9-23
			c7-8.4,10.9-5.6,19.9-7c9-1.4,21.8-4.7,25.2-3.1c5.9,2.9,9.1,6.4,11.5,11.8c2.5,5.6,0.8,25.3,3.9,21.3c0.1-0.2,0.3-0.4,0.4-0.7
			c-0.2-1.7,0.1-3.8,0.8-5.8c0.4-1.3,1-2.5,1.6-3.5c0.2-1.1,0.3-2.2,0.4-3.4c0.6-7,0.1-14.7-2.9-18
			C246.1,321,238.8,319.6,238.8,319.6z"/>
	</g>
	<g>
		<path class="st18" d="M235.4,432.4c0,0-0.1,0-0.1-0.1c-1.1-0.5-2-1.2-2.7-1.7c-1.9-1.5-2.7-2.7-4.2-1.2c-2.1,2.1,2.3,2.9,1,4.6
			c-1.3,1.7-5.7,0.6-4.6,3.6c1.1,3,2.5,2.3,2.7,5.7c0.1,1.4,1,2.3,2.2,2.8c1.8,0.8,4.5,0.7,6.4,0.3c0,0,0.1,0,0.1,0
			c1.6-0.4,3.1-2,5.1-3.6c0-3.1-0.2-6.2-0.7-9.2C239.4,433.7,237.9,433.5,235.4,432.4z"/>
		<path class="st18" d="M195.8,462.1c-0.5-0.7-1.2-1.4-2-2.2c-1.8-1.7-3.4-3.2-4.7-4.5c-0.1-0.1-0.2-0.2-0.4-0.3
			c-2.4,2.4-4.6,5.1-6.6,8.1c0.1,0.3,0.1,0.6,0.2,0.9c1.8,0,9.1-0.1,13.1-0.3c0.6,0,1.1-0.1,1.5-0.1c-0.1-0.2-0.2-0.3-0.3-0.5
			C196.3,462.8,196.1,462.5,195.8,462.1z"/>
		<path class="st18" d="M259.9,344.8c-1.5-0.5-3.3,0.5-4.8,2.4c-0.1-0.7-0.3-1.5-0.5-2.2c-0.1,1.2-0.2,2.3-0.4,3.4
			c-0.6,1-1.2,2.2-1.6,3.5c-0.7,2.1-0.9,4.1-0.8,5.8c-0.1,0.3-0.3,0.5-0.4,0.7c-3.1,4-1.4-15.7-3.9-21.3c-2.4-5.4-5.6-8.9-11.5-11.8
			c-3.4-1.6-16.2,1.7-25.2,3.1c-9,1.4-12.9-1.4-19.9,7c-4.7,5.7-1.6,26.2-3.9,23c-0.2-0.3-0.5-0.7-0.7-1.1c0.1-1.6-0.2-3.5-0.8-5.4
			c-0.3-1-0.8-2-1.2-2.8c-0.3-0.6-0.7-1.2-1.1-1.7c-1.6-2-3.4-3.1-4.9-2.6c-2.4,0.8-3.2,5.3-1.6,10c1.6,4.7,4.8,7.9,7.3,7.1
			c0.4-0.1,0.7-0.3,1-0.6c2.6,11.2,10.6,20.3,21.1,24.7c1.3,0.5,2.6,1,4,1.4c3.1,0.9,6.4,1.4,9.9,1.4c3,0,5.9-0.4,8.7-1.1
			c1-0.2,1.9-0.5,2.9-0.9c11.4-3.9,20.2-13.2,23.1-24.8c2.4,0.5,5.4-2.7,6.9-7.2C263,350.1,262.3,345.7,259.9,344.8z M222.9,354.5
			c4.7,5.3,7.8,11.1-2.6,11.5C227.5,363.6,225.1,360.1,222.9,354.5z M201.1,342.2c3.8-2.5,10.1-2.5,13.7,0.1
			c1.5,1.1-0.6,2.8-2.1,1.7c-2.5-1.8-7.4-2.5-10.1-0.7C201.1,344.3,199.5,343.2,201.1,342.2z M213.6,374c4.1,1.4,8.1,1.4,12.2,0
			C225.4,376.7,213.4,376.4,213.6,374z M205.7,369.8c9.3,2,18.7,2,28,0C232.7,373.7,205.2,373.3,205.7,369.8z M238.6,343.3
			c-2.6-1.8-7.6-1.1-10.1,0.7c-1.5,1-3.5-0.7-2.1-1.7c3.6-2.6,9.9-2.6,13.7-0.1C241.7,343.2,240.1,344.3,238.6,343.3z"/>
	</g>
	<path class="st4" d="M399.8,369.2c2.1,5.4,4.4,8.7-2.5,11.1C407.4,379.9,404.4,374.3,399.8,369.2z"/>
</g>
<path class="st19" d="M296.4,395.5c-5.6-0.4-10.7,13.1-14.6,29.3"/>
<path class="st19" d="M321.2,395.6c3.5,0.2,5.7,6.9,8.1,16.6"/>
<path class="st19" d="M384.3,400.9c-5.6-0.4-10.7,13.1-14.6,29.3"/>
<path class="st19" d="M409.1,401c3.5,0.2,5.7,6.9,8.1,16.6"/>
<path class="st20" d="M218.9,441.4c0.4,6.5,0.5,16.4,0.6,23.4"/>
<path class="st19" d="M205.8,387.4c-5.8-0.4-11.1,13.6-15.1,30.3"/>
<path class="st19" d="M231.5,387.5c5.1,0.3,7.5,13.5,11.5,30.2"/>
<path class="st21" d="M329,412c6.3-3,17,21.6,5.6,30.3"/>
<path class="st21" d="M329,412c-6.8,1.6,0.5,27.4,14.9,27"/>
<path class="st21" d="M416.8,417.4c6.3-3,17,21.6,5.6,30.3"/>
<path class="st21" d="M416.8,417.4c-6.8,1.6,0.5,27.4,14.9,27"/>
<path class="st21" d="M243,417.7c6.9-2,13.8,24.9,0.7,32"/>
<path class="st21" d="M243,417.7c-7.2,0.5-4.1,28.2,10.7,30.1"/>
<g>
	<path class="st22" d="M464.9,310.7c-30.5-23.4-76-38.2-126.6-38.2c-46.5,0-88.6,12.5-118.9,32.7c33.2-15.1,73.6-24.1,117.1-24.1
		C385.1,281.2,429.8,292.3,464.9,310.7z"/>
</g>
<path class="st16" d="M391,262.1c4.5-3.5,7.7-7.5,8.6-10.7c0.3-1.1,0.3-1.9,0.1-2.7c0-0.1-0.1-0.3-0.2-0.6c-0.2-0.3-0.3-0.4-0.3-0.4
	c-0.5-0.6-1.3-1-2.3-1.3c-3.2-0.9-8.3-0.2-13.6,1.8c-4.3,1.7-8.9,4.4-15.2,8.2c-1.1,0.6-2.2,1.3-3.4,2l-8.7-5.5l0,0
	c0.5-0.3,0.9-0.8,1-1.3c0.2-0.6,0.1-1.2-0.2-1.7l-1.2-2.2c-0.3-0.5-0.8-0.9-1.3-1c-0.6-0.2-1.2-0.1-1.7,0.2l-3.3,1.8l-1.2-0.8
	c0.4-0.3,0.7-0.7,0.8-1.2c0.2-0.6,0.1-1.2-0.2-1.7l-1.2-2.2c-0.3-0.5-0.8-0.9-1.3-1s-1.2-0.1-1.7,0.2l-3,1.7l-8.9-5.6
	c-0.2-0.1-0.4-0.2-0.7-0.3c-0.7-0.2-1.4-0.1-2,0.2l-4.3,2.4c-0.5,0.3-0.9,0.7-1,1.2c-0.2,0.7,0,1.5,0.5,2l17.1,17
	c0.1,0.1,0.3,0.4,0.4,0.5l4.2,7.4c-7,4.2-13.4,8.4-18.5,12.1c-0.5,0.3-0.9,0.7-1.4,1l-15.3-5.8c-0.1,0-0.2-0.1-0.3-0.1
	c-0.7-0.2-1.5-0.1-2.2,0.3l-2,1.1c-0.5,0.3-0.9,0.7-1,1.2c-0.2,0.8,0,1.6,0.6,2.1l9.6,8.3c0.1,0.1,0.3,0.3,0.3,0.4l0.7,1.2
	c-0.5,0.7-0.9,1.4-1,2c-0.2,0.8-0.2,1.6,0.2,2.3l0,0l0,0c0.4,0.6,1,1.1,1.8,1.3c0.6,0.2,1.3,0.2,2.2,0.1l0.7,1.2
	c0.1,0.1,0.2,0.4,0.2,0.5l2.2,12.5c0.1,0.8,0.7,1.4,1.4,1.7l0,0c0.5,0.1,1.1,0.1,1.6-0.2l2.1-1.2c0.6-0.4,1.1-1,1.3-1.7
	c0-0.1,0-0.2,0-0.2l3-16.2c0.5-0.2,1-0.4,1.6-0.6c5.9-2.4,12.7-5.7,19.9-9.5l4.2,7.4c0.1,0.1,0.2,0.5,0.2,0.6l5.7,23.4
	c0.2,0.7,0.7,1.3,1.5,1.5c0.5,0.1,1.1,0.1,1.6-0.2l4.4-2.5c0.6-0.3,1-0.9,1.2-1.6c0.1-0.2,0.1-0.5,0.1-0.7l-0.2-10.5l3-1.7
	c0.5-0.3,0.9-0.8,1-1.3c0.2-0.6,0.1-1.2-0.2-1.7l-1.2-2.2c-0.3-0.5-0.8-0.9-1.3-1c-0.5-0.1-1-0.1-1.4,0.1l0-1.5l3.3-1.8
	c0.5-0.3,0.9-0.8,1-1.3c0.2-0.6,0.1-1.2-0.2-1.7l-1.2-2.2c-0.3-0.5-0.8-0.9-1.3-1c-0.6-0.2-1.2-0.1-1.7,0.2l0,0l-0.2-10.3
	c1.2-0.7,2.4-1.3,3.6-1.9C382.7,267.3,387.4,264.9,391,262.1L391,262.1z"/>
<g>
	<g>
		<path class="st0" d="M97.6,532v-15h-3.2v-4.5h3.2v-1c0-4.2,2.7-6.8,6.6-6.8c1.9,0,3.8,0.5,5.1,1.8l-1.9,3
			c-0.5-0.5-1.2-0.8-2.1-0.8c-1.4,0-2.4,0.9-2.4,2.7v1h4v4.5h-4v15H97.6z"/>
		<path class="st0" d="M120.9,532v-2c-1.3,1.6-3.6,2.5-6.2,2.5c-3.1,0-6.8-2.1-6.8-6.5c0-4.6,3.7-6.3,6.8-6.3c2.6,0,4.9,0.8,6.2,2.4
			v-2.6c0-2-1.7-3.3-4.3-3.3c-2.1,0-4,0.8-5.7,2.3l-1.9-3.4c2.4-2.1,5.4-3.1,8.5-3.1c4.4,0,8.5,1.8,8.5,7.4V532H120.9z M120.9,527.3
			v-2.4c-0.8-1.1-2.5-1.7-4.1-1.7c-2,0-3.7,1-3.7,2.9c0,1.8,1.7,2.9,3.7,2.9C118.4,529,120.1,528.5,120.9,527.3z"/>
		<path class="st0" d="M154.7,532v-12.3c0-1.8-0.8-3.1-2.9-3.1c-1.8,0-3.3,1.2-4,2.3V532h-5.2v-12.3c0-1.8-0.8-3.1-2.9-3.1
			c-1.8,0-3.3,1.2-4,2.3V532h-5.1v-19.5h5.1v2.5c0.8-1.2,3.4-3,6.4-3c2.9,0,4.7,1.3,5.4,3.5c1.1-1.8,3.7-3.5,6.7-3.5
			c3.6,0,5.7,1.9,5.7,5.9V532H154.7z"/>
		<path class="st0" d="M163.9,507.4c0-1.7,1.4-3,3.1-3c1.7,0,3.1,1.3,3.1,3s-1.4,3.1-3.1,3.1C165.3,510.5,163.9,509.1,163.9,507.4z
			 M164.4,532v-19.5h5.1V532H164.4z"/>
		<path class="st0" d="M174.1,532v-26.9h5.1V532H174.1z"/>
		<path class="st0" d="M184.2,535c0.4,0.2,1.1,0.3,1.6,0.3c1.3,0,2.2-0.4,2.7-1.4l0.7-1.7l-7.9-19.8h5.5l5.1,13.5l5.1-13.5h5.5
			l-9.2,22.7c-1.5,3.7-4,4.6-7.4,4.7c-0.6,0-1.9-0.1-2.5-0.3L184.2,535z"/>
		<path class="st0" d="M217.3,532v-2.5c-1.5,1.9-3.7,3-6,3c-4.9,0-8.6-3.7-8.6-10.2c0-6.4,3.7-10.2,8.6-10.2c2.3,0,4.5,1,6,3v-9.9
			h5.2V532H217.3z M217.3,525.7v-6.9c-0.8-1.3-2.7-2.2-4.4-2.2c-2.9,0-4.9,2.3-4.9,5.7c0,3.3,2,5.6,4.9,5.6
			C214.6,528,216.4,527,217.3,525.7z"/>
		<path class="st0" d="M225.9,522.3c0-5.5,3.9-10.2,10.3-10.2c6.5,0,10.3,4.7,10.3,10.2c0,5.6-3.9,10.2-10.3,10.2
			C229.7,532.5,225.9,527.8,225.9,522.3z M241.1,522.3c0-3-1.8-5.6-5-5.6c-3.2,0-5,2.6-5,5.6c0,3.1,1.8,5.7,5,5.7
			C239.3,528,241.1,525.3,241.1,522.3z"/>
		<path class="st0" d="M248.7,522.3c0-6,4.3-10.2,10.3-10.2c4,0,6.4,1.7,7.7,3.5l-3.3,3.1c-0.9-1.4-2.3-2.1-4.1-2.1
			c-3.1,0-5.3,2.3-5.3,5.6s2.2,5.7,5.3,5.7c1.8,0,3.2-0.8,4.1-2.1l3.3,3.1c-1.3,1.8-3.7,3.5-7.7,3.5
			C253,532.5,248.7,528.3,248.7,522.3z"/>
		<path class="st0" d="M271.5,527.2V517h-3.2v-4.5h3.2v-5.3h5.2v5.3h4v4.5h-4v8.8c0,1.2,0.6,2.1,1.8,2.1c0.8,0,1.5-0.3,1.8-0.6
			l1.1,3.9c-0.8,0.7-2.1,1.2-4.3,1.2C273.4,532.5,271.5,530.7,271.5,527.2z"/>
		<path class="st0" d="M282.4,522.3c0-5.5,3.9-10.2,10.3-10.2c6.5,0,10.3,4.7,10.3,10.2c0,5.6-3.9,10.2-10.3,10.2
			C286.3,532.5,282.4,527.8,282.4,522.3z M297.7,522.3c0-3-1.8-5.6-5-5.6c-3.2,0-5,2.6-5,5.6c0,3.1,1.8,5.7,5,5.7
			C295.9,528,297.7,525.3,297.7,522.3z"/>
		<path class="st0" d="M306.4,532v-19.5h5.1v2.7c1.4-1.7,3.8-3.1,6.2-3.1v5c-0.4-0.1-0.8-0.1-1.4-0.1c-1.7,0-4,1-4.8,2.2V532H306.4z
			"/>
		<path class="st23" d="M317.5,529.2c0-1.8,1.5-3.3,3.3-3.3s3.3,1.5,3.3,3.3c0,1.8-1.5,3.3-3.3,3.3S317.5,531,317.5,529.2z"/>
		<path class="st23" d="M352.2,532v-12.3c0-1.8-0.8-3.1-2.9-3.1c-1.8,0-3.3,1.2-4,2.3V532h-5.2v-12.3c0-1.8-0.8-3.1-2.9-3.1
			c-1.8,0-3.3,1.2-4,2.3V532h-5.1v-19.5h5.1v2.5c0.8-1.2,3.4-3,6.4-3c2.9,0,4.7,1.3,5.4,3.5c1.1-1.8,3.7-3.5,6.7-3.5
			c3.6,0,5.7,1.9,5.7,5.9V532H352.2z"/>
		<path class="st23" d="M360.8,522.3c0-5.6,4.2-10.2,10.1-10.2c5.8,0,9.8,4.4,9.8,10.7v1.1h-14.5c0.3,2.5,2.3,4.5,5.6,4.5
			c1.7,0,4-0.7,5.2-1.9l2.3,3.3c-1.9,1.8-5,2.7-8,2.7C365.3,532.5,360.8,528.5,360.8,522.3z M370.9,516.1c-3.2,0-4.6,2.4-4.8,4.3
			h9.6C375.5,518.6,374.2,516.1,370.9,516.1z"/>
		<path class="st23" d="M384,532v-26.9h5.1V532H384z"/>
		<path class="st23" d="M393.6,532v-26.9h5.1v9.9c1.5-2,3.7-3,6-3c5,0,8.6,3.9,8.6,10.2c0,6.5-3.7,10.2-8.6,10.2c-2.3,0-4.5-1-6-3
			v2.5H393.6z M403.1,528c3,0,5-2.3,5-5.6c0-3.4-2-5.7-5-5.7c-1.7,0-3.5,1-4.4,2.3v6.9C399.6,527,401.5,528,403.1,528z"/>
		<path class="st23" d="M415.7,522.3c0-5.5,3.9-10.2,10.3-10.2c6.5,0,10.3,4.7,10.3,10.2c0,5.6-3.9,10.2-10.3,10.2
			C419.6,532.5,415.7,527.8,415.7,522.3z M431,522.3c0-3-1.8-5.6-5-5.6c-3.2,0-5,2.6-5,5.6c0,3.1,1.8,5.7,5,5.7
			C429.2,528,431,525.3,431,522.3z"/>
		<path class="st23" d="M452.8,532v-2.5c-1.3,1.5-3.7,2.9-6.9,2.9c-4.3,0-6.3-2.3-6.3-6.1v-13.8h5.1v11.8c0,2.7,1.4,3.6,3.6,3.6
			c2,0,3.5-1.1,4.4-2.2v-13.2h5.1V532H452.8z"/>
		<path class="st23" d="M462.5,532v-19.5h5.1v2.7c1.4-1.7,3.8-3.1,6.2-3.1v5c-0.4-0.1-0.8-0.1-1.4-0.1c-1.7,0-4,1-4.8,2.2V532H462.5
			z"/>
		<path class="st23" d="M489.5,532v-11.8c0-2.7-1.4-3.6-3.6-3.6c-2,0-3.6,1.1-4.4,2.3V532h-5.1v-19.5h5.1v2.5c1.3-1.5,3.6-3,6.8-3
			c4.3,0,6.3,2.4,6.3,6.2V532H489.5z"/>
		<path class="st23" d="M497.9,522.3c0-5.6,4.2-10.2,10.1-10.2c5.8,0,9.8,4.4,9.8,10.7v1.1h-14.5c0.3,2.5,2.3,4.5,5.6,4.5
			c1.7,0,4-0.7,5.2-1.9l2.3,3.3c-1.9,1.8-5,2.7-8,2.7C502.4,532.5,497.9,528.5,497.9,522.3z M508,516.1c-3.2,0-4.6,2.4-4.8,4.3h9.6
			C512.7,518.6,511.4,516.1,508,516.1z"/>
	</g>
</g>
<g>
	<path class="st24" d="M190.9,562.1l-1.4-3.6h-8l-1.4,3.6h-2.3l6.5-16.2h2.5l6.5,16.2H190.9z M185.4,548l-3.4,8.7h6.9L185.4,548z"/>
	<path class="st24" d="M206.8,562.1l-9.4-12.9v12.9h-2v-16.2h2.1l9.3,12.6v-12.6h2v16.2H206.8z"/>
	<path class="st24" d="M212.7,562.1v-16.2h5.5c5,0,8.3,3.5,8.3,8.1c0,4.6-3.3,8.1-8.3,8.1H212.7z M224.4,554c0-3.5-2.2-6.3-6.2-6.3
		h-3.5v12.6h3.5C222.1,560.3,224.4,557.5,224.4,554z"/>
	<path class="st24" d="M239.9,562.1v-14.4h-5.1v-1.8h12.3v1.8h-5.1v14.4H239.9z"/>
	<path class="st24" d="M258.9,562.1l-4.1-6.4h-3.2v6.4h-2v-16.2h6.5c3,0,5.1,1.9,5.1,4.9c0,2.9-2,4.5-4.2,4.7l4.4,6.6H258.9z
		 M259,550.8c0-1.8-1.3-3.1-3.2-3.1h-4.2v6.2h4.2C257.7,553.9,259,552.6,259,550.8z"/>
	<path class="st24" d="M276.3,562.1l-1.4-3.6h-8l-1.4,3.6H263l6.5-16.2h2.5l6.5,16.2H276.3z M270.8,548l-3.4,8.7h6.9L270.8,548z"/>
	<path class="st24" d="M284.1,562.1l-6.5-16.2h2.3l5.5,14l5.5-14h2.3l-6.5,16.2H284.1z"/>
	<path class="st24" d="M295.3,562.1v-16.2h10.6v1.8h-8.6v5.2h8.4v1.8h-8.4v5.6h8.6v1.8H295.3z"/>
	<path class="st24" d="M309.1,562.1v-16.2h2v14.4h7.5v1.8H309.1z"/>
	<path class="st24" d="M341.5,562.1v-13.3l-5.5,13.3h-0.8l-5.5-13.3v13.3h-2v-16.2h2.9l5,12.2l5-12.2h2.9v16.2H341.5z"/>
	<path class="st24" d="M347.5,562.1v-16.2h10.6v1.8h-8.6v5.2h8.4v1.8h-8.4v5.6h8.6v1.8H347.5z"/>
	<path class="st24" d="M361.2,562.1v-16.2h5.5c5,0,8.3,3.5,8.3,8.1c0,4.6-3.3,8.1-8.3,8.1H361.2z M373,554c0-3.5-2.2-6.3-6.2-6.3
		h-3.5v12.6h3.5C370.7,560.3,373,557.5,373,554z"/>
	<path class="st24" d="M378.2,562.1v-16.2h2v16.2H378.2z"/>
	<path class="st24" d="M383.3,554c0-5,3.7-8.4,8.3-8.4c2.9,0,4.8,1.4,6.1,3.2l-1.7,0.9c-0.9-1.4-2.6-2.4-4.4-2.4
		c-3.5,0-6.2,2.7-6.2,6.6c0,3.8,2.7,6.6,6.2,6.6c1.8,0,3.5-1,4.4-2.4l1.7,0.9c-1.4,1.8-3.3,3.2-6.2,3.2
		C387,562.4,383.3,559,383.3,554z"/>
	<path class="st24" d="M400.3,562.1v-16.2h2v16.2H400.3z"/>
	<path class="st24" d="M417.7,562.1l-9.4-12.9v12.9h-2v-16.2h2.1l9.3,12.6v-12.6h2v16.2H417.7z"/>
	<path class="st24" d="M423.5,562.1v-16.2h10.6v1.8h-8.6v5.2h8.4v1.8h-8.4v5.6h8.6v1.8H423.5z"/>
</g>
<g>
	<path class="st25" d="M383.8,364.8c-0.7,0-1.3,0.2-1.9,0.5c0.1,0,0.2,0,0.4,0c1.1,0,2,0.9,2,2c0,1.1-0.9,2-2,2c-1,0-1.8-0.7-2-1.6
		c0,0.2,0,0.4,0,0.6c0,1.9,1.6,3.5,3.5,3.5s3.5-1.6,3.5-3.5S385.8,364.8,383.8,364.8z"/>
	<path class="st25" d="M383.8,365.7c3.3,0,6.1,1,6.9,2.3c0.2-0.2,0.2-0.5,0.2-0.8c0-1.7-3.2-3-7.1-3s-7.1,1.4-7.1,3
		c0,0.3,0.1,0.5,0.2,0.8C377.8,366.7,380.5,365.7,383.8,365.7z"/>
</g>
<g>
	<path class="st25" d="M413.1,364.8c-0.7,0-1.3,0.2-1.9,0.5c0.1,0,0.2,0,0.4,0c1.1,0,2,0.9,2,2c0,1.1-0.9,2-2,2c-1,0-1.8-0.7-2-1.6
		c0,0.2,0,0.4,0,0.6c0,1.9,1.6,3.5,3.5,3.5c1.9,0,3.5-1.6,3.5-3.5S415.1,364.8,413.1,364.8z"/>
	<path class="st25" d="M413.1,365.7c3.3,0,6.1,1,6.9,2.3c0.2-0.2,0.2-0.5,0.2-0.8c0-1.7-3.2-3-7.1-3c-3.9,0-7.1,1.4-7.1,3
		c0,0.3,0.1,0.5,0.2,0.8C407.1,366.7,409.8,365.7,413.1,365.7z"/>
</g>
<g>
	<path class="st25" d="M295.8,358.5c-0.7,0-1.3,0.2-1.9,0.5c0.1,0,0.2,0,0.4,0c1.1,0,2,0.9,2,2c0,1.1-0.9,2-2,2c-1,0-1.8-0.7-2-1.6
		c0,0.2,0,0.4,0,0.6c0,1.9,1.6,3.5,3.5,3.5s3.5-1.6,3.5-3.5S297.8,358.5,295.8,358.5z"/>
	<path class="st25" d="M295.8,359.4c3.3,0,6.1,1,6.9,2.3c0.2-0.2,0.2-0.5,0.2-0.8c0-1.7-3.2-3-7.1-3c-3.9,0-7.1,1.4-7.1,3
		c0,0.3,0.1,0.5,0.2,0.8C289.8,360.3,292.5,359.4,295.8,359.4z"/>
</g>
<g>
	<path class="st25" d="M325.1,358.5c-0.7,0-1.3,0.2-1.9,0.5c0.1,0,0.2,0,0.4,0c1.1,0,2,0.9,2,2c0,1.1-0.9,2-2,2c-1,0-1.8-0.7-2-1.6
		c0,0.2,0,0.4,0,0.6c0,1.9,1.6,3.5,3.5,3.5c1.9,0,3.5-1.6,3.5-3.5S327.1,358.5,325.1,358.5z"/>
	<path class="st25" d="M325.1,359.4c3.3,0,6.1,1,6.9,2.3c0.2-0.2,0.2-0.5,0.2-0.8c0-1.7-3.2-3-7.1-3c-3.9,0-7.1,1.4-7.1,3
		c0,0.3,0.1,0.5,0.2,0.8C319.1,360.3,321.8,359.4,325.1,359.4z"/>
</g>
<g>
	<path class="st25" d="M205.7,347.4c-0.7,0-1.3,0.2-1.9,0.5c0.1,0,0.2,0,0.4,0c1.1,0,2,0.9,2,2c0,1.1-0.9,2-2,2c-1,0-1.8-0.7-2-1.6
		c0,0.2,0,0.4,0,0.6c0,1.9,1.6,3.5,3.5,3.5c1.9,0,3.5-1.6,3.5-3.5S207.7,347.4,205.7,347.4z"/>
	<path class="st25" d="M205.7,348.3c3.3,0,6.1,1,6.9,2.3c0.2-0.2,0.2-0.5,0.2-0.8c0-1.7-3.2-3-7.1-3c-3.9,0-7.1,1.4-7.1,3
		c0,0.3,0.1,0.5,0.2,0.8C199.6,349.2,202.4,348.3,205.7,348.3z"/>
</g>
<g>
	<path class="st25" d="M235,347.4c-0.7,0-1.3,0.2-1.9,0.5c0.1,0,0.2,0,0.4,0c1.1,0,2,0.9,2,2c0,1.1-0.9,2-2,2c-1,0-1.8-0.7-2-1.6
		c0,0.2,0,0.4,0,0.6c0,1.9,1.6,3.5,3.5,3.5c1.9,0,3.5-1.6,3.5-3.5S237,347.4,235,347.4z"/>
	<path class="st25" d="M235,348.3c3.3,0,6.1,1,6.9,2.3c0.2-0.2,0.2-0.5,0.2-0.8c0-1.7-3.2-3-7.1-3c-3.9,0-7.1,1.4-7.1,3
		c0,0.3,0.1,0.5,0.2,0.8C228.9,349.2,231.7,348.3,235,348.3z"/>
</g>
<path class="st26" d="M193,348.3l1.6,9.7l2.8,5.5l5,1.6l4.6-0.5l5.3-1.3l3.3-6l2.9-6.7l3.6-0.4l1.6,3.9l3.6,7.7l1.4,1.8l5.6,0.9
	l5.9,0.2l4.6-3.2l1.5-3.9l0.7-7.5l-1.2-2.4l-10.8-1.4l-5.2,0.4c0,0-5.5,1.4-5.6,1.6c-0.1,0.2-1.4,1.1-1.4,1.1l-4-0.1l-3.6-1.4
	l-6.2-1.9l-10.7,1.2L193,348.3z"/>
<path class="st25" d="M244.7,345.5c-3.6-0.2-11.4-0.4-14.8,0c-3.5,0.3-4.2,0.6-4.7,1c-0.5,0.4-0.8,1.1-1.8,1.2
	c-0.9,0.1-2.7,0.3-3,0.3c-0.4,0-2.2-0.2-3-0.3c-1-0.1-1.2-0.8-1.8-1.2c-0.5-0.4-1.2-0.7-4.7-1c-3.5-0.3-11.3-0.2-14.8,0
	c-3.6,0.2-6.1,1.2-6.1,1.2l0.2,4.4c0,0,0.4,0.2,1.1,0.4c0.7,0.2,2.3,5.9,3.4,8.8c1.1,2.9,2.7,4,5.3,4.8c5.1,1,10.1-0.3,11.6-0.9
	c1.5-0.6,2.5-2.2,3.5-3.9c1-1.8,2.8-6.5,3.4-7.6c0.4-0.9,1.4-1.2,1.9-1.3c0.5,0.1,1.5,0.4,1.9,1.3c0.6,1.2,2.4,5.9,3.4,7.6
	c1,1.8,2,3.4,3.5,3.9c1.5,0.6,6.4,1.8,11.6,0.9c2.6-0.8,4.2-1.9,5.3-4.8c1.1-2.9,2.6-8.6,3.4-8.8c0.7-0.2,1.1-0.4,1.1-0.4l0.2-4.4
	C250.8,346.7,248.3,345.7,244.7,345.5z M215.6,355.8c-1.1,3.5-2.1,6-4.1,7.1c-2,1-9.7,2.8-13.3,0.1c-0.7-0.5-2.7-2.7-3.1-6.9
	c-0.4-4.2-0.8-6.4,1.7-7.6c0,0,4.9-1.7,8.9-1.7c4.5,0,8.4,0.7,9.3,1.9C215.8,349.9,216.8,351.4,215.6,355.8z M245.7,356.1
	c-0.4,4.2-2.4,6.4-3.1,6.9c-3.5,2.7-11.2,0.9-13.3-0.1c-2-1-3.1-3.6-4.1-7.1c-1.3-4.4-0.2-5.9,0.7-7.1c0.9-1.2,4.8-1.9,9.3-1.9
	c3.9,0,8.9,1.7,8.9,1.7C246.5,349.7,246,351.9,245.7,356.1z"/>
<path class="st27" d="M323,379.6c-5.8-2.4-10.4,0.6-11.9,0.6c-1.5,0-7-2.8-12.3-0.6C305.3,389.4,316.5,389.3,323,379.6z"/>
<path class="st27" d="M409.4,385.6c-5.1-2.6-9.1,0.6-10.5,0.6c-1.3,0-6.1-3.1-10.8-0.6C393.9,396.2,403.7,396.2,409.4,385.6z"/>
<path class="st9" d="M439.9,358.5c-5.6-15.5-21.4-29.5-42.3-29.5c-11,0-20,3.6-27.1,9.6h-0.2v0.1c-6.3,5.4-11.1,12.7-14.5,21.2
	c-6.3,15.4-3,36.1,25.3,41.9c1.5-0.6,2.6-0.9,3.4-1.2c0-0.2,0-0.3,0-0.4c0-0.6,0.1-1.2,0.2-1.8c-8.6-4.6-17.3-12.9-20.3-22.8
	c-0.3,0.4-0.7,0.7-1.2,0.9c-2.4,0.8-5.5-2.3-7-6.9c-1.5-4.6-0.8-8.9,1.5-9.7c1.5-0.5,3.3,0.5,4.8,2.5c0.2,1.5,0.4,3,0.8,4.6
	c0.1,0.4,0.2,0.8,0.3,1.2c0.4,1.3,0.6,1.5,0.7,1.1c0,0.1,0,0.1,0,0.2c0.2-0.7,0.4-1.4,0.6-2.1c1.5-4.7,4.4-9.6,8.4-13.9
	c7.3-1.2,15.3-1.8,22.3-1.8c0.1-3,0.7-6.1,1.8-7.2c0.7,0.9,1.4,3.3,2,7.2c7.7,0.2,15.7,1.1,23.3,2.4c3,3.6,5.4,7.7,7.1,11.5
	c0.7,1.6,1.3,3.1,1.7,4.5c0-0.2,0.1-0.3,0.1-0.5c0.2,0.1,0.4-0.4,0.7-1.5c0,0,0,0,0-0.1c0.8-2.7,1.1-5.2,1.2-7.6
	c1-0.7,2-0.9,2.9-0.6c2.4,0.8,3,5.1,1.5,9.7c-1.5,4.6-4.6,7.6-7,6.9c0,0,0,0-0.1,0c-3.5,10.3-13,18.7-22,23c0,0.3,0.1,0.6,0.1,0.8
	c0,0.5-0.1,1-0.2,1.6c0.2,0.1,0.5,0.1,0.7,0.2c-0.1-0.7-0.2-1.4-0.3-1.9c0,0.5,1.9,0.8,4.5,1.9C443,395.9,444.8,371.9,439.9,358.5z"
	/>
<path class="st15" d="M431.8,362.3c0-0.2,0-0.4-0.1-0.6c-0.7-5.2-2.7-10.7-6.3-15.4c-2.2-2.9-5-5.6-8.5-7.7
	c-4.8-2.9-10.8-4.8-18.3-4.9c-8.1-0.2-14.6,1.8-19.8,4.9c-3.5,2.1-6.3,4.8-8.5,7.8c-2.3,3.2-4,6.6-5,10.1c-0.8,2.8-1.3,5.7-1.3,8.4
	c0,1.5,0.1,3,0.3,4.4c0,0.1,0,0.1,0,0.2c0.2-0.7,0.4-1.4,0.6-2.1c1.5-4.7,4.4-9.6,8.4-13.9c6.2-6.7,15.1-11.8,25.3-11.8
	c10.1,0,18.3,5.6,24.1,12.5c3,3.6,5.4,7.7,7.1,11.5c0.7,1.6,1.3,3.1,1.7,4.5c0-0.2,0.1-0.3,0.1-0.5
	C432,367.5,432.1,364.9,431.8,362.3z"/>
</svg>
