<?xml version="1.0" encoding="UTF-8" standalone="no"?>
<svg width="228px" height="176px" viewBox="0 0 228 176" version="1.1" xmlns="http://www.w3.org/2000/svg" xmlns:xlink="http://www.w3.org/1999/xlink">
    <!-- Generator: Sketch 3.8.3 (29802) - http://www.bohemiancoding.com/sketch -->
    <title>familydoctor.melbourne Logo</title>
    <desc>Created with Sketch.</desc>
    <defs></defs>
    <g id="Page-1" stroke="none" stroke-width="1" fill="none" fill-rule="evenodd">
        <g id="familydoctor.melbourne-Logo">
            <g id="Layer_1">
                <g id="Group">
                    <path d="M95.1333333,147.4 C95.6666667,147.466667 96.2,147.533333 96.8,147.6 L96.8,145.2 C96.2,146 95.6666667,146.733333 95.1333333,147.4 L95.1333333,147.4 Z" id="Shape" fill="#00B4D7"></path>
                    <path d="M145.8,148.066667 C145.666667,143.466667 149.333333,135.666667 154.266667,128.466667 C154.466667,128.066667 154.666667,127.733333 154.866667,127.333333 C155.6,125.6 156.666667,124.2 158.066667,123.066667 C160.2,121 162.4,119.933333 164.066667,119.266667 C145.2,115.4 143.066667,101.666667 147.2,91.3333333 C149.466667,85.6666667 152.666667,80.8 156.866667,77.2 L156.866667,77.1333333 L157,77.1333333 C161.733333,73.1333333 167.733333,70.7333333 175.066667,70.7333333 C189,70.7333333 199.533333,80.0666667 203.266667,90.4 C206.533333,99.4 205.333333,115.333333 185.8,119.4 C186.6,119.733333 187.6,120.2 188.6,120.8 C189.866667,121.066667 191.066667,121.8 191.866667,123.066667 C192.133333,123.466667 192.4,123.866667 192.666667,124.266667 C193.2,124.866667 193.733333,125.6 194.2,126.333333 C223.133333,98 235.6,63.1333333 222.666667,36 C204.2,-2.93333333 140.266667,-11.4666667 80.4,16.9333333 C20.5333333,45.4 -13.2,100.4 5.33333333,139.266667 C10.2666667,149.733333 18.5333333,158 29.0666667,163.933333 C29.1333333,162.333333 29.2666667,160.733333 29.3333333,159.066667 C23.5333333,152.866667 14.4666667,142.4 16.5333333,139.2 C18.2666667,132.066667 31.3333333,118.4 41.0666667,112.333333 C41.6,112 42.2,111.8 42.8,111.666667 C44.8666667,110.666667 46.4666667,110.066667 47,109.733333 L47,109.6 L47.1333333,109.666667 C47.2,109.6 47.2,109.533333 47.2666667,109.533333 L47.2666667,109.733333 L47.4,109.8 C47.4,109.6 47.3333333,109.333333 47.3333333,109.133333 L47.3333333,108.733333 C40.3333333,105.8 35,99.7333333 33.2666667,92.2666667 C33.0666667,92.4666667 32.8666667,92.6 32.6,92.6666667 C31,93.2 28.8,91.0666667 27.7333333,87.9333333 C26.6666667,84.8 27.1333333,81.8 28.8,81.2666667 C29.8,80.9333333 31.0666667,81.6666667 32.0666667,83 C31.7333333,80.4 31.8666667,77.4666667 32.9333333,74.6666667 C35.3333333,68.3333333 43.9333333,60.0666667 54.9333333,59.5333333 C64.4666667,59.0666667 69.1333333,64.4 69.1333333,64.4 C69.1333333,64.4 74,65.3333333 77.7333333,69.4666667 C79.7333333,71.6666667 80.0666667,76.8 79.6666667,81.4666667 C79.8,81.9333333 79.8666667,82.4 80,82.9333333 C81,81.6666667 82.2,81 83.2,81.3333333 C84.8,81.8666667 85.3333333,84.8666667 84.2666667,88 C83.2666667,91 81.2666667,93.0666667 79.6666667,92.8 C77.6666667,100.533333 71.8,106.8 64.2666667,109.333333 L64.2666667,109.666667 L64.2666667,109.666667 L64.2666667,109.8 C65.3333333,110.333333 69.8666667,110.866667 73.8,115.133333 C78.9333333,118.933333 84.3333333,124.2 88.4,129.133333 C90.2666667,126.8 92.4666667,124.333333 94.8,122.2 C87.5333333,115.533333 87.5333333,104.466667 88.5333333,93.1333333 C88,90.8666667 88.3333333,88.8666667 89.2666667,88 C92.4666667,73.1333333 103.733333,67.0666667 116.4,67.0666667 C130.333333,67.0666667 142.666667,73.8666667 144.6,91.4 C145.933333,103.333333 146.2,116.2 137,123.266667 C141.4,127.8 144.733333,133.333333 146.333333,137.4 C145.4,138 143.733333,138.866667 141.733333,139.866667 C143.133333,147.333333 142.666667,153.733333 139.333333,154.666667 L139.333333,154.666667 C138.866667,155.266667 138.066667,155.8 137.066667,156.333333 C137.066667,158.733333 137.066667,160.933333 137.133333,163 C140.2,161.733333 143.266667,160.4 146.333333,159 C145.466667,155.266667 144.866667,149.8 145.8,148.066667 L145.8,148.066667 Z" id="Shape" fill="#00B4D7"></path>
                    <path d="M24.9333333,141.333333 C26.6666667,142.533333 28.4666667,144 30.2666667,145.6 C30.5333333,142.666667 30.8,139.866667 31.1333333,137.266667 C29,138.866667 26.8666667,140.266667 24.9333333,141.333333 L24.9333333,141.333333 Z" id="Shape" fill="#00B4D7"></path>
                    <path d="M88.8666667,151.133333 C87.6666667,150.266667 87.2666667,148.333333 87.5333333,145.8 C86.1333333,146.266667 84.6,146.666667 83,147.066667 L81.8,152.8 C82.6,160.933333 83.2666667,169.066667 83.6666667,175 C87.6666667,174.8 91.8,174.466667 95.9333333,173.866667 C96.0666667,171.866667 96.6,163.666667 96.7333333,153.666667 C93.2,153.133333 90.1333333,152.4 88.8666667,151.133333 L88.8666667,151.133333 Z" id="Shape" fill="#00B4D7"></path>
                    <path id="Shape" fill="#A5D0EB"></path>
                    <g transform="translate(98.000000, 127.333333)" id="Shape" fill="#76644D">
                        <path d="M11.5333333,29.0666667 C11.1333333,28.6666667 10.6666667,28.2666667 10.1333333,27.9333333 C7.46666667,27.5333333 4.2,27.1333333 1.06666667,26.7333333 L1.34572488e-16,29.4 L10.4666667,33.5333333 C10.9333333,32.8666667 12.4666667,32.5333333 12.8666667,31.6666667 C13.4666667,30.3333333 10.8,30.6 11.5333333,29.0666667 L11.5333333,29.0666667 Z"></path>
                        <path d="M27.1333333,6.6 L12.6,0.866666667 L11.4666667,0.4 L11.3333333,0.666666667 L3.33333333,20.9333333 C5.93333333,21.4666667 8.66666667,22.1333333 11.4,22.8666667 L11.4,22.9333333 C12.4666667,23.2 13.8,23.2666667 15.8666667,22.6 C18.6666667,21.7333333 19.4666667,19.7333333 20.6,21.2 C21.8,22.7333333 18.9333333,22.8666667 19.6,24.0666667 C20.3333333,25.2666667 23.2,24.8666667 22.2,26.7333333 C21.3333333,28.3333333 20.6666667,28.1333333 20.2,29.4666667 C20.4666667,29.4 20.6666667,29.3333333 20.8666667,29.2666667 C20.8666667,29.2666667 20.8666667,29.2666667 20.8666667,29.2 C21.1333333,29.0666667 21.4,29 21.6666667,28.8666667 L28.6,11.2666667 L30,7.66666667 L27.1333333,6.6 L27.1333333,6.6 Z"></path>
                    </g>
                    <g transform="translate(88.000000, 115.333333)" id="Shape" fill="#D7EEFB">
                        <path d="M32.8666667,46 C32.3333333,46.4666667 31.9333333,47 31.5333333,47.4666667 C30.6666667,48.6 30.0666667,49.6666667 29.2,50.1333333 C27.3333333,51.1333333 24.0666667,51.8 23.3333333,49.6666667 C22.8666667,48.2 22.4,48.1333333 21.7333333,47.6 C21.4666667,47.4 21.1333333,47.0666667 20.7333333,46.5333333 C20.4,46.0666667 20.4,45.6666667 20.5333333,45.4 L10.0666667,41.2666667 L11.1333333,38.6 C10.3333333,38.4666667 9.53333333,38.4 8.8,38.2666667 C8.66666667,48.2 8.13333333,56.4666667 8,58.4666667 C9.73333333,58.2666667 11.5333333,58 13.3333333,57.6666667 L13.3333333,57.6666667 C19,56.7333333 24.7333333,55.4666667 30.5333333,53.8666667 C35.0666667,52.6 39.6666667,51.1333333 44.2,49.4666667 C45.8666667,48.8666667 47.4666667,48.2 49.1333333,47.6 C49.1333333,45.5333333 49.0666667,43.3333333 49.0666667,40.9333333 C45.1333333,42.9333333 37.9333333,44.4666667 32.8666667,46 L32.8666667,46 Z"></path>
                        <path d="M49.0666667,7.93333333 C47,5.8 44.6666667,3.86666667 42.2,2.4 C41.1333333,1.73333333 40.0666667,1.4 39,1.33333333 C38,0.933333333 37,0.6 35.9333333,0.333333333 C35.8,0.866666667 35.6,1.53333333 35.3333333,2.2 C34.8666667,3.4 34.2,4.73333333 33.4666667,6.06666667 C31.6,9.46666667 29.2,12.6 28,12.6 C27.1333333,12.6 25.3333333,10.5333333 23.6,7.93333333 C22.2,5.8 20.8666667,3.26666667 20.1333333,1.33333333 C20,0.933333333 19.8666667,0.533333333 19.8,0.2 C18.8666667,0.4 17.9333333,0.666666667 17.0666667,1 C16.4666667,1.06666667 15.8,1.2 15.1333333,1.4 C12.4,2.33333333 9.46666667,4.4 6.73333333,6.8 C4.4,8.93333333 2.13333333,11.3333333 0.333333333,13.7333333 C1.53333333,15.2 2.6,16.6666667 3.53333333,18 C4.2,19 4.73333333,19.9333333 5.2,20.8 C5.93333333,19.8 7.06666667,19.0666667 8.33333333,18.8666667 C8.53333333,18.8666667 8.66666667,18.8 8.86666667,18.8 C9.2,18.8 9.53333333,18.8666667 9.8,18.9333333 L9.8,18.9333333 C11.5333333,19.3333333 12.8666667,20.6 13.2666667,22.3333333 C13.3333333,22.6666667 13.4,23 13.4,23.3333333 C13.4,25.4 12,27.2 10.0666667,27.6666667 C9.93333333,27.7333333 9.8,27.7333333 9.66666667,27.7333333 C9.4,27.8 9.13333333,27.8 8.86666667,27.8 L8.66666667,27.8 L8.66666667,29.7333333 L8.66666667,32.1333333 C10.0666667,32.3333333 11.6,32.6 13.2,32.9333333 L21.2,12.6666667 L21.3333333,12.4 L22.4666667,12.8666667 L37,18.6 L39.9333333,19.7333333 L38.5333333,23.3333333 L31.6,40.9333333 C37.3333333,38.5333333 43.2666667,36.3333333 47.2,35.9333333 C46.4,34.5333333 45.6666667,32.8666667 44.9333333,30.9333333 L44.9333333,31.7333333 C44.8,31.8 44.6666667,31.8 44.4666667,31.8 C43.4,31.9333333 42.4666667,31.6666667 42.4,31.1333333 C42.3333333,30.6666667 43.2,30.1333333 44.2666667,30 L44.6,30 C44.4666667,29.6 44.3333333,29.2 44.1333333,28.8 C45.6,28.2 47.3333333,27.4 49.1333333,26.6 C50.6666667,25.8666667 52.2666667,25.2 53.6666667,24.4666667 C55.6666667,23.4666667 57.4,22.6 58.2666667,22 C56.8,17.9333333 53.4666667,12.4666667 49.0666667,7.93333333 L49.0666667,7.93333333 Z"></path>
                    </g>
                    <path d="M117,101.266667 C123.733333,101 121.666667,97.2666667 118.666667,93.8666667 C120.066667,97.4666667 121.533333,99.7333333 117,101.266667 L117,101.266667 Z" id="Shape" fill="#B3895B"></path>
                    <path d="M95.1333333,140.333333 C95.5333333,140.8 96.0666667,141.066667 96.6666667,141.133333 C96.6,139.533333 96.5333333,137.933333 96.4666667,136.4 C95.3333333,136.6 94.4666667,137.6 94.4666667,138.8 C94.4666667,139.133333 94.5333333,139.4 94.6666667,139.666667 C94.9333333,139.8 95.0666667,140.066667 95.1333333,140.333333 L95.1333333,140.333333 Z" id="Shape" fill="#B4B4B4"></path>
                    <path d="M96.9333333,141.133333 C98.2666667,141.133333 99.3333333,140.066667 99.3333333,138.733333 C99.3333333,137.4 98.2666667,136.333333 96.9333333,136.333333 C96.8,136.333333 96.6666667,136.333333 96.4666667,136.4 C96.5333333,138 96.6,139.533333 96.6666667,141.133333 L96.9333333,141.133333 L96.9333333,141.133333 Z" id="Shape" fill="#B4B4B4"></path>
                    <path d="M130.466667,146.533333 C130.533333,147 131.466667,147.333333 132.533333,147.2 C132.666667,147.2 132.866667,147.133333 133,147.133333 C133.066667,146.866667 133.066667,146.6 133,146.333333 C132.866667,146 132.733333,145.733333 132.666667,145.4 L132.333333,145.4 C131.266667,145.533333 130.4,146.066667 130.466667,146.533333 L130.466667,146.533333 Z" id="Shape" fill="#B4B4B4"></path>
                    <path id="Shape" fill="#B4B4B4"></path>
                    <path d="M139.2,144 C139.333333,144.266667 139.466667,144.533333 139.666667,144.733333 C139.8,144.666667 139.933333,144.6 140.066667,144.533333 C141.066667,144.066667 141.733333,143.333333 141.466667,142.866667 C141.266667,142.4 140.266667,142.4 139.266667,142.866667 C139.133333,142.933333 139,143 138.866667,143.066667 C139,143.466667 139.066667,143.733333 139.2,144 L139.2,144 Z" id="Shape" fill="#B4B4B4"></path>
                    <path id="Shape" fill="#E6E6E5"></path>
                    <path id="Shape" fill="#E6E6E5"></path>
                    <path d="M191.733333,149.133333 C192,149.066667 192.266667,149 192.533333,148.866667 C192.333333,148.666667 192.133333,148.466667 191.933333,148.2 C191.866667,148.533333 191.8,148.866667 191.733333,149.133333 L191.733333,149.133333 Z" id="Shape" fill="#E6E6E5"></path>
                    <path d="M192.533333,148.866667 C194.4,148.333333 196.2,147.866667 197.666667,147.733333 L197.666667,147.6 C196.2,147.2 194.133333,147.466667 191.933333,148.066667 L191.933333,148.2 C192.133333,148.466667 192.333333,148.666667 192.533333,148.866667 L192.533333,148.866667 Z" id="Shape" fill="#E6E6E5"></path>
                    <path d="M191.866667,148.133333 C191.733333,148.2 191.6,148.2 191.533333,148.266667 C192.066667,148.666667 191.8,148.733333 191.133333,148.4 C189.066667,149.066667 187,150.066667 185.333333,151.066667 C185.2,151.133333 185.066667,151.266667 184.866667,151.333333 L184.866667,151.533333 C186.133333,151.066667 187.6,150.533333 189.066667,150.066667 C189.133333,149.6 189.933333,149.2 190.933333,149.066667 L191.4,149.066667 C191.466667,149.133333 191.466667,149.266667 191.466667,149.333333 C191.533333,149.333333 191.666667,149.266667 191.733333,149.266667 C191.8,149 191.866667,148.666667 191.933333,148.4 C191.933333,148.2 191.866667,148.2 191.866667,148.133333 L191.866667,148.133333 Z" id="Shape" fill="#E6E6E5"></path>
                    <path id="Shape" fill="#E6E6E5"></path>
                    <path d="M175.333333,142.066667 L165.266667,138.133333 L164.2,137.733333 L163.8,137.6 L163.066667,139.466667 L158.4,151.333333 L157.666667,153.2 L157.2,154.333333 L157.266667,154.266667 C157.266667,154.266667 157.6,155.866667 157.6,156.8 C157.6,157.133333 158.6,157.666667 159.933333,158.333333 C161.4,159.066667 163.266667,159.933333 164.533333,160.733333 C165.6,161.4 166.333333,162 166.133333,162.466667 C165.933333,163 165.266667,162.933333 164.533333,162.6 C163.066667,162 161.066667,160.666667 160.733333,161 C160.4,161.4 163.266667,162.533333 164.533333,163.733333 C164.8,164 165,164.266667 165.066667,164.533333 C165.133333,164.733333 165.066667,164.933333 165,165.066667 C164.933333,165.133333 164.866667,165.2 164.8,165.266667 C164.733333,165.333333 164.666667,165.333333 164.533333,165.4 C164.333333,165.466667 164.066667,165.4 163.8,165.266667 C163.466667,165.133333 163.133333,164.933333 162.8,164.666667 C162.133333,164.2 161.466667,163.6 160.866667,163.133333 C160.4,162.733333 160,162.466667 159.8,162.6 C159.533333,162.8 160.2,163.4 161,164.066667 C161.266667,164.266667 161.466667,164.466667 161.733333,164.733333 C161.866667,164.866667 162.066667,165.066667 162.2,165.2 C162.666667,165.733333 163,166.266667 162.666667,166.6 C162.666667,166.6 162.666667,166.666667 162.6,166.666667 C162.4,166.866667 162.133333,166.866667 161.866667,166.8 C161.666667,166.733333 161.533333,166.666667 161.333333,166.533333 C160.866667,166.2 160.4,165.733333 159.933333,165.266667 C159.866667,165.2 159.8,165.133333 159.733333,165.066667 C159.066667,164.4 158.466667,163.866667 158.133333,164 C157.666667,164.2 158.533333,165.066667 159.4,165.933333 C159.533333,166.066667 159.666667,166.2 159.8,166.4 C160.466667,167.133333 161,167.8 160.666667,168.2 C160.4,168.466667 160.133333,168.6 159.866667,168.533333 C159.733333,168.533333 159.6,168.466667 159.466667,168.4 C158.933333,168.133333 158.266667,167.466667 157.4,166.733333 C156.6,166 154.933333,165.2 153.333333,164.2 L152.466667,166.466667 L159.533333,169.266667 L159.933333,169.4 L162.2,170.266667 L164.6,171.2 L164.6,171.2 L169.866667,173.266667 L171.066667,173.733333 L171.933333,171.466667 L172.8,169.266667 L173.866667,166.466667 L173.866667,166.466667 L174.4,165.2 L174.8,164.133333 L175.733333,161.8 C174.933333,161.8 174.266667,161.866667 173.733333,162 C171.733333,162.466667 170.4,162.933333 170.133333,161.733333 C169.933333,160.6 175,160.133333 174.4,159.333333 C173.8,158.533333 169.666667,160.933333 169.2,159.533333 C168.733333,158.133333 174,158 173.666667,157.333333 C173.333333,156.666667 168.066667,158.733333 167.933333,156.933333 C167.8,155.066667 173.733333,156.133333 173.6,155.4 C173.466667,154.666667 167.933333,155.666667 168.2,154 C168.466667,152.333333 177.933333,154.066667 178.4,153.2 C178.866667,152.333333 179.933333,151.133333 179.933333,151.133333 C179.933333,151.133333 179.933333,151.133333 179.933333,151.2 L182.466667,144.8 L175.333333,142.066667 L175.333333,142.066667 Z" id="Shape" fill="#1D4864"></path>
                    <g transform="translate(107.333333, 112.666667)" id="Shape" fill="#E3BB91">
                        <path d="M14,2.4 C12.3333333,2.93333333 10.7333333,3.26666667 9.33333333,3.26666667 C7.8,3.26666667 6,2.93333333 4.06666667,2.2 C2.93333333,1.8 1.73333333,1.26666667 0.533333333,0.6 C0.4,1 0.4,1.4 0.4,1.8 C0.4,2.06666667 0.466666667,2.4 0.533333333,2.8 C0.6,3.13333333 0.733333333,3.53333333 0.866666667,3.93333333 C1.53333333,5.86666667 2.86666667,8.4 4.33333333,10.5333333 C6,13.1333333 7.8,15.2 8.73333333,15.2 C9.93333333,15.2 12.3333333,12 14.2,8.66666667 C14.9333333,7.33333333 15.6,6 16.0666667,4.8 C16.3333333,4.13333333 16.5333333,3.46666667 16.6666667,2.93333333 C16.7333333,2.53333333 16.8,2.13333333 16.8,1.86666667 C16.8,1.66666667 16.8,1.46666667 16.7333333,1.33333333 C15.8,1.8 14.8666667,2.13333333 14,2.4 L14,2.4 Z"></path>
                        <path d="M75.3333333,4.93333333 C74.4,5.4 73.4666667,5.73333333 72.6,6.06666667 C70.9333333,6.6 69.3333333,6.93333333 67.9333333,6.93333333 C66.4,6.93333333 64.6,6.6 62.6666667,5.86666667 C61.5333333,5.46666667 60.3333333,4.93333333 59.1333333,4.26666667 C59,4.66666667 59,5.06666667 59,5.46666667 L59,5.73333333 C59,5.93333333 59.0666667,6.2 59.1333333,6.46666667 C59.2,6.66666667 59.2,6.8 59.2666667,7 L59.2666667,7.13333333 C60.5333333,11.3333333 65.5333333,18.8666667 67.2666667,18.8666667 C69.0666667,18.8666667 73.8,11.4666667 75.0666667,7.2 C75.1333333,7 75.2,6.73333333 75.2666667,6.53333333 C75.3333333,6.13333333 75.4,5.73333333 75.4,5.46666667 C75.3333333,5.26666667 75.3333333,5.13333333 75.3333333,4.93333333 L75.3333333,4.93333333 Z"></path>
                    </g>
                    <path d="M153.133333,142.333333 C153.133333,143.666667 154.2,144.733333 155.533333,144.733333 C155.933333,144.733333 156.333333,144.6 156.666667,144.466667 C156.266667,143 155.866667,141.533333 155.4,139.933333 C154.133333,140 153.133333,141.066667 153.133333,142.333333 L153.133333,142.333333 Z" id="Shape" fill="#B4B4B4"></path>
                    <path d="M157.933333,142.333333 C157.933333,141 156.866667,139.933333 155.533333,139.933333 L155.4,139.933333 C155.866667,141.533333 156.266667,143 156.666667,144.466667 C157.4,144.066667 157.933333,143.266667 157.933333,142.333333 L157.933333,142.333333 Z" id="Shape" fill="#B4B4B4"></path>
                    <path d="M180.4,90.6 C182.533333,88.5333333 184.933333,89.6666667 186.333333,89.8 C188.533333,89.9333333 182.733333,87.2 179.6,89.7333333 C178.8,90.4 179.666667,91.2666667 180.4,90.6 L180.4,90.6 Z" id="Shape" fill="#8B5E3C"></path>
                    <path d="M170.333333,89.7333333 C167.266667,87.2 161.466667,89.9333333 163.6,89.8 C165,89.7333333 167.4,88.6 169.533333,90.6 C170.333333,91.2666667 171.133333,90.4 170.333333,89.7333333 L170.333333,89.7333333 Z" id="Shape" fill="#8B5E3C"></path>
                    <g transform="translate(87.333333, 77.333333)" id="Shape" fill="#FBD5AE">
                        <path d="M49.8666667,64.6666667 C48.1333333,65.4666667 46.3333333,66.2666667 44.8666667,66.8666667 C45,67.2666667 45.1333333,67.6666667 45.3333333,68.0666667 L45.4666667,68.0666667 C45.6,68.3333333 45.6666667,68.6 45.7333333,68.9333333 L45.7333333,69 C46.4666667,70.8666667 47.2666667,72.6 48,74 C44.0666667,74.4 38.0666667,76.6 32.4,79 C32.1333333,79.1333333 31.8666667,79.2 31.6,79.3333333 C31.6,79.3333333 31.6,79.3333333 31.6,79.4 C31.4,79.4666667 31.1333333,79.5333333 30.9333333,79.6 C31.3333333,78.2 32.0666667,78.4666667 32.9333333,76.8666667 C33.9333333,75 31,75.4 30.3333333,74.2 C29.6,73 32.4666667,72.8666667 31.3333333,71.3333333 C30.1333333,69.8 29.4,71.8666667 26.6,72.7333333 C24.5333333,73.4 23.2,73.2666667 22.1333333,73.0666667 L22.1333333,73 C19.4666667,72.2666667 16.6666667,71.6 14.0666667,71.0666667 C12.4666667,70.7333333 10.9333333,70.4666667 9.53333333,70.2666667 C8.93333333,70.2 8.4,70.1333333 7.86666667,70.0666667 C8.4,69.4 8.93333333,68.6666667 9.46666667,67.8666667 L9.46666667,65.9333333 C8.6,65.8666667 7.8,65.6 7.13333333,65.2 C5.86666667,66.4666667 3.33333333,67.5333333 0.2,68.5333333 C-0.0666666667,71.0666667 0.266666667,72.9333333 1.53333333,73.8666667 C2.8,75.1333333 5.86666667,75.8666667 9.46666667,76.4 C10.2,76.5333333 11,76.6666667 11.8,76.7333333 C14.8666667,77.1333333 18.1333333,77.4666667 20.8666667,77.9333333 C21.4,78.2666667 21.8666667,78.6666667 22.2666667,79.0666667 C21.5333333,80.6 24.2,80.4 23.6666667,81.6 C23.2666667,82.5333333 21.7333333,82.8 21.2666667,83.4666667 C21.0666667,83.7333333 21.0666667,84.1333333 21.4666667,84.6 C21.8666667,85.1333333 22.2,85.4 22.4666667,85.6666667 C23.1333333,86.1333333 23.6,86.2666667 24.0666667,87.7333333 C24.7333333,89.8 28,89.2 29.9333333,88.2 C30.8,87.7333333 31.4666667,86.6666667 32.2666667,85.5333333 C32.6666667,85 33.0666667,84.5333333 33.6,84.0666667 C38.6666667,82.4666667 45.8666667,81 49.8,79 C50.8,78.4666667 51.6,77.9333333 52.0666667,77.3333333 L52.0666667,77.3333333 C55.4,76.4 55.9333333,70 54.4666667,62.5333333 C53,63.2 51.4666667,63.9333333 49.8666667,64.6666667 L49.8666667,64.6666667 Z M52.8,67.2666667 C52.6666667,67.3333333 52.5333333,67.4 52.4,67.4666667 C52.2,67.2666667 52.0666667,67 51.9333333,66.7333333 C51.8,66.4666667 51.7333333,66.2 51.6666667,65.8666667 C51.8,65.8 51.9333333,65.7333333 52.0666667,65.6666667 C53.0666667,65.2 54.0666667,65.2 54.2666667,65.6666667 C54.4666667,66.0666667 53.8,66.8 52.8,67.2666667 L52.8,67.2666667 Z"></path>
                        <path d="M48.9333333,6.46666667 C45.5333333,7.26666667 41.1333333,7.33333333 36.9333333,6.46666667 C40.4666667,7.66666667 44.8,8.4 50,8.6 C49.7333333,7.86666667 49.3333333,7.13333333 48.9333333,6.46666667 L48.9333333,6.46666667 Z"></path>
                        <path d="M55.0666667,10.3333333 C54.4666667,10.1333333 53.8,10.3333333 53.1333333,10.7333333 C53.0666667,12.3333333 52.8,14 52.3333333,15.8 C52.3333333,15.8 52.3333333,15.8 52.3333333,15.8666667 C51.6666667,18.2666667 51.7333333,16.2 51.2,13.0666667 C51,12.0666667 50.8,10.8666667 50.4666667,9.8 C45.3333333,11.4 39.5333333,11.2 34.4,9.73333333 C33.9333333,10.0666667 33.4666667,9.8 33.4,9.4 C28,7.6 23.5333333,4.26666667 21.9333333,3.2728029e-14 C18.6666667,5.13333333 12.6666667,9.46666667 8.26666667,9.86666667 C7.66666667,11.7333333 7.4,13.6666667 7.2,15 C6.93333333,16.7333333 6.86666667,17.4666667 6.4,15.8666667 C6.33333333,15.6 6.26666667,15.3333333 6.2,15.0666667 C5.93333333,14 5.8,13 5.66666667,12 C4.66666667,10.6666667 3.46666667,10 2.46666667,10.3333333 C2.26666667,10.4 2.06666667,10.5333333 1.93333333,10.6666667 C1,11.5333333 0.666666667,13.5333333 1.2,15.8 C1.26666667,16.1333333 1.4,16.4666667 1.46666667,16.8 C2.46666667,19.8666667 4.53333333,21.8666667 6.13333333,21.4 C6.46666667,21.2666667 6.73333333,21.0666667 6.93333333,20.8 C8.93333333,27.4 14.7333333,32.9333333 20.4666667,36 C21.6666667,36.6 22.8,37.1333333 24,37.6 C25.8666667,38.2666667 27.6666667,38.6666667 29.2666667,38.6666667 C30.6666667,38.6666667 32.2666667,38.3333333 33.9333333,37.8 C34.8,37.5333333 35.7333333,37.1333333 36.6666667,36.6666667 C42.6666667,33.8666667 49,28.2 51.3333333,21.3333333 L51.4,21.3333333 C53,21.8666667 55.0666667,19.8 56.0666667,16.7333333 C57.0666667,13.7333333 56.6666667,10.8666667 55.0666667,10.3333333 L55.0666667,10.3333333 Z M23.6666667,9.66666667 C21.5333333,7.6 19.1333333,8.73333333 17.7333333,8.86666667 C15.5333333,9 21.3333333,6.26666667 24.4666667,8.8 C25.2666667,9.46666667 24.4,10.3333333 23.6666667,9.66666667 L23.6666667,9.66666667 Z M29.6666667,23.9333333 C34.2,22.3333333 32.7333333,20.1333333 31.3333333,16.5333333 C34.3333333,19.9333333 36.3333333,23.6666667 29.6666667,23.9333333 L29.6666667,23.9333333 Z"></path>
                        <path d="M113.666667,13.9333333 C113.066667,13.7333333 112.4,13.9333333 111.733333,14.3333333 C111.666667,15.9333333 111.4,17.6 110.933333,19.4 C110.933333,19.4 110.933333,19.4 110.933333,19.4666667 C110.733333,20.2666667 110.6,20.5333333 110.466667,20.4666667 C110.466667,20.6 110.4,20.6666667 110.4,20.8 C110.066667,19.8666667 109.733333,18.8 109.266667,17.8 C108.133333,15.2666667 106.533333,12.6 104.533333,10.1333333 C99.4666667,9.2 94.1333333,8.66666667 89,8.53333333 C88.6666667,5.93333333 88.1333333,4.26666667 87.6666667,3.73333333 C86.9333333,4.4 86.5333333,6.53333333 86.4666667,8.53333333 C81.7333333,8.6 76.4,8.93333333 71.6,9.73333333 C68.9333333,12.6 67,15.8666667 66,19 C65.8666667,19.4666667 65.7333333,19.9333333 65.6,20.4 L65.6,20.2666667 C65.4666667,20.5333333 65.3333333,20.3333333 65.1333333,19.5333333 C65.0666667,19.2666667 65,19 64.9333333,18.7333333 C64.6666667,17.6666667 64.5333333,16.6666667 64.4,15.6666667 C63.4,14.3333333 62.2,13.6666667 61.2,14 C59.6,14.5333333 59.2,17.4 60.2,20.4666667 C61.2,23.5333333 63.2666667,25.5333333 64.8666667,25.0666667 C65.2,24.9333333 65.4666667,24.7333333 65.6666667,24.4666667 C67.6666667,31.0666667 73.4666667,36.6 79.2,39.6666667 C80.4,40.2666667 81.5333333,40.8 82.7333333,41.2666667 C84.6,41.9333333 86.4,42.3333333 88,42.3333333 C89.4,42.3333333 91,42 92.6666667,41.4666667 C93.5333333,41.2 94.4666667,40.8 95.4,40.3333333 C101.4,37.5333333 107.733333,31.8666667 110.066667,25 L110.133333,25 C111.733333,25.5333333 113.8,23.4666667 114.8,20.4 C115.666667,17.3333333 115.2,14.4666667 113.666667,13.9333333 L113.666667,13.9333333 Z M82.2666667,13.2666667 C80.1333333,11.2 77.7333333,12.3333333 76.3333333,12.4666667 C74.1333333,12.6 79.9333333,9.86666667 83.0666667,12.4 C83.8,13.0666667 83,13.9333333 82.2666667,13.2666667 L82.2666667,13.2666667 Z M99,12.4666667 C97.6,12.4 95.2,11.2666667 93.0666667,13.2666667 C92.3333333,13.9333333 91.5333333,13.0666667 92.3333333,12.4 C95.4,9.86666667 101.2,12.6 99,12.4666667 L99,12.4666667 Z"></path>
                        <path d="M77.2,83.3333333 C75.8666667,82.5333333 74.0666667,81.6666667 72.6,80.9333333 C71.2666667,80.2666667 70.2666667,79.7333333 70.2666667,79.4 C70.2666667,78.4 69.9333333,76.8666667 69.9333333,76.8666667 C69.9333333,76.8666667 69.9333333,76.9333333 69.8666667,76.9333333 C69.5333333,77.3333333 68.1333333,78.9333333 66.8666667,79.3333333 C66.4666667,79.4666667 66.0666667,79.4666667 65.7333333,79.2666667 C65.1333333,79.2 64.6,79.3333333 64.1333333,79.6 C62.8,80.3333333 62.2,82.1333333 62.4666667,83.8666667 C62.6666667,84.2 62.9333333,84.4666667 63.2,84.8 C63.4,85 63.6666667,85.2666667 63.9333333,85.4666667 C64.5333333,85.9333333 65.2666667,86.4 65.9333333,86.8 C67.5333333,87.7333333 69.2,88.6 70,89.3333333 C70.8666667,90.0666667 71.5333333,90.7333333 72.0666667,91 C72.2,91.0666667 72.3333333,91.1333333 72.4666667,91.1333333 C72.7333333,91.2 73,91.1333333 73.2666667,90.8 C73.6,90.4 73.0666667,89.7333333 72.4,89 C72.2666667,88.8666667 72.1333333,88.7333333 72,88.5333333 C71.1333333,87.6666667 70.2666667,86.8 70.7333333,86.6 C71.0666667,86.4666667 71.6666667,87 72.3333333,87.6666667 C72.4,87.7333333 72.4666667,87.8 72.5333333,87.8666667 C73,88.3333333 73.4666667,88.8 73.9333333,89.1333333 C74.1333333,89.2666667 74.3333333,89.4 74.4666667,89.4 C74.7333333,89.4666667 75,89.4666667 75.2,89.2666667 C75.2,89.2666667 75.2,89.2 75.2666667,89.2 C75.6,88.8666667 75.2666667,88.3333333 74.8,87.8 C74.6666667,87.6666667 74.5333333,87.4666667 74.3333333,87.3333333 C74.1333333,87.1333333 73.8666667,86.8666667 73.6,86.6666667 C72.8,85.9333333 72.1333333,85.3333333 72.4,85.2 C72.6,85.0666667 72.9333333,85.3333333 73.4666667,85.7333333 C74,86.1333333 74.7333333,86.7333333 75.4,87.2666667 C75.7333333,87.5333333 76.0666667,87.7333333 76.4,87.8666667 C76.6666667,88 76.9333333,88 77.1333333,88 C77.2,88 77.3333333,87.9333333 77.4,87.8666667 C77.4666667,87.8 77.5333333,87.7333333 77.6,87.6666667 C77.7333333,87.4666667 77.7333333,87.2666667 77.6666667,87.1333333 C77.6,86.8666667 77.4,86.6 77.1333333,86.3333333 C75.8666667,85.1333333 73,84 73.3333333,83.6 C73.6666667,83.2666667 75.6,84.6 77.1333333,85.2 C77.9333333,85.4666667 78.6,85.6 78.7333333,85.0666667 C79,84.6 78.3333333,84 77.2,83.3333333 L77.2,83.3333333 Z"></path>
                        <path d="M95.5333333,78.3333333 C95.4,78.2 95.2,78.1333333 95,78.0666667 C94.0666667,78.0666667 93.4,76.8666667 93,75.6666667 C92.7333333,74.8666667 92.5333333,74.0666667 92.5333333,73.8666667 L92.5333333,73.8 C92.5333333,73.8 91.4666667,75 91,75.8666667 C90.5333333,76.7333333 81.0666667,75 80.8,76.6666667 C80.5333333,78.3333333 86.0666667,77.3333333 86.2,78.0666667 C86.3333333,78.8 80.4,77.7333333 80.5333333,79.6 C80.6666667,81.4666667 85.8666667,79.3333333 86.2666667,80 C86.6,80.6666667 81.3333333,80.8 81.8,82.2 C82.2666667,83.6 86.4666667,81.2 87,82 C87.6,82.8 82.5333333,83.2666667 82.7333333,84.4 C82.9333333,85.5333333 84.2666667,85.1333333 86.3333333,84.6666667 C86.8666667,84.5333333 87.5333333,84.5333333 88.3333333,84.4666667 C90.1333333,84.4 92.4666667,84.5333333 94.2666667,84.0666667 C94.8,83.9333333 95.2666667,83.8 95.6666667,83.5333333 C96.0666667,83.0666667 96.3333333,82.4666667 96.5333333,81.9333333 C97,80.6666667 96.7333333,79.1333333 95.5333333,78.3333333 L95.5333333,78.3333333 Z"></path>
                    </g>
                    <path d="M191.4,148.933333 L190.933333,148.933333 C189.933333,149.066667 189.133333,149.466667 189.066667,149.933333 C189.866667,149.666667 190.666667,149.4 191.466667,149.133333 C191.4,149.133333 191.4,149.066667 191.4,148.933333 L191.4,148.933333 Z" id="Shape" fill="#B4B4B4"></path>
                    <path id="Shape" fill="#B4B4B4"></path>
                    <path d="M189.066667,150 L189.066667,150.133333 C189.133333,150.6 190.066667,150.933333 191.133333,150.8 C191.2,150.8 191.266667,150.8 191.4,150.733333 C191.466667,150.4 191.533333,150.066667 191.6,149.733333 C191.6,149.533333 191.533333,149.4 191.466667,149.2 C190.666667,149.466667 189.866667,149.733333 189.066667,150 L189.066667,150 Z" id="Shape" fill="#B4B4B4"></path>
                    <path d="M197.8,147.6 C197.8,147.6 197.8,147.666667 197.866667,147.666667 C197.933333,147.666667 198,147.733333 198,147.733333 C198.533333,147.666667 199,147.733333 199.4,147.733333 C199.933333,147.333333 200.266667,146.866667 200.133333,146.533333 C199.933333,146.066667 198.933333,146.066667 197.933333,146.533333 C197.8,146.6 197.666667,146.666667 197.6,146.733333 C197.6,146.866667 197.6,147.066667 197.666667,147.2 C197.666667,147.333333 197.733333,147.466667 197.8,147.6 L197.8,147.6 Z" id="Shape" fill="#B4B4B4"></path>
                    <path id="Shape" fill="#B4B4B4"></path>
                    <path id="Shape" fill="#B4B4B4"></path>
                    <path id="Shape" fill="#B4B4B4"></path>
                    <path d="M197.866667,147.733333 C198,147.933333 198.133333,148.133333 198.266667,148.333333 C198.4,148.266667 198.533333,148.2 198.666667,148.133333 L198.733333,148.133333 C198.533333,147.933333 198.266667,147.8 198,147.733333 C197.933333,147.733333 197.933333,147.733333 197.866667,147.733333 L197.866667,147.733333 Z" id="Shape" fill="#B4B4B4"></path>
                    <path d="M191.133333,148.4 C191.266667,148.333333 191.4,148.333333 191.533333,148.266667 L191.533333,148.266667 C190.6,147.6 189,145 187.666667,142.466667 C187,141.466667 186.4,140.4 185.8,139.333333 C186.8,145.133333 189.8,147.666667 191.133333,148.4 L191.133333,148.4 Z" id="Shape" fill="#E6E6E5"></path>
                    <path d="M185.533333,137.266667 C185.6,137.933333 185.666667,138.6 185.8,139.266667 C186.4,140.333333 187.066667,141.4 187.666667,142.4 C186.533333,140.266667 185.666667,138.133333 185.533333,137.266667 L185.533333,137.266667 Z" id="Shape" fill="#E6E6E5"></path>
                    <path id="Shape" fill="#E6E6E5"></path>
                    <path d="M62.3333333,109.866667 C60.4666667,110.333333 58.5333333,110.6 56.5333333,110.6 C54.2666667,110.6 52.0666667,110.266667 49.9333333,109.666667 C49,109.4 48.1333333,109.133333 47.2666667,108.733333 L47.2666667,109.133333 C47.2666667,109.333333 47.2666667,109.6 47.3333333,109.8 L47.8666667,110.066667 L55.6,114.066667 L56,114.066667 L63.4,110.066667 L64.0666667,109.666667 L64.1333333,109.6 L64.2,109.533333 L64.2,109.2 C63.6666667,109.466667 63,109.666667 62.3333333,109.866667 L62.3333333,109.866667 Z" id="Shape" fill="#C1915D"></path>
                    <path d="M65.8,97.8666667 C59.6,99.2 53.3333333,99.2 47.1333333,97.8666667 C46.8,100.2 65.1333333,100.466667 65.8,97.8666667 L65.8,97.8666667 Z" id="Shape" fill="#B3895B"></path>
                    <path d="M52.4,100.666667 C52.2666667,102.266667 60.2666667,102.466667 60.5333333,100.666667 C57.8,101.6 55.1333333,101.6 52.4,100.666667 L52.4,100.666667 Z" id="Shape" fill="#B3895B"></path>
                    <path d="M56.9333333,95.3333333 C63.8666667,95 61.8,91.1333333 58.6666667,87.6666667 C60.0666667,91.4 61.6666667,93.7333333 56.9333333,95.3333333 L56.9333333,95.3333333 Z" id="Shape" fill="#B3895B"></path>
                    <path id="Shape" fill="#1B5375"></path>
                    <path d="M47.6,113 L47.1333333,110.2 C47.1333333,110.333333 47.0666667,110.533333 47.0666667,110.666667 L47.1333333,112.6 C47.2666667,112.733333 47.4666667,112.866667 47.6,113 L47.6,113 Z" id="Shape" fill="#1B5375"></path>
                    <path d="M53,115.6 L53,115.6 L55.8,114.133333 L49.8666667,116.2 C50,116.533333 50.0666667,116.8 50.1333333,117.133333 L53,115.6 L53,115.6 Z" id="Shape" fill="#1B5375"></path>
                    <path d="M47.4,118.6 L50.1333333,117.133333 C50.0666667,116.8 50,116.466667 49.8666667,116.2 L48.2666667,116.733333 L47.6,113 C47.4666667,112.866667 47.2666667,112.733333 47.1333333,112.666667 L47.4,118.6 L47.4,118.6 Z" id="Shape" fill="#1B5375"></path>
                    <path id="Shape" fill="#1B5375"></path>
                    <path id="Shape" fill="#1B5375"></path>
                    <polygon id="Shape" fill="#1B5375" points="64.2 109.8 64.2 109.6"></polygon>
                    <path id="Shape" fill="#1B5375"></path>
                    <path d="M58.6,115.666667 L60.9333333,116.933333 C61,116.733333 61,116.533333 61.0666667,116.333333 L55.8,114.133333 L58.6,115.666667 L58.6,115.666667 L58.6,115.666667 Z" id="Shape" fill="#1B5375"></path>
                    <path d="M64.2,112.466667 C64.1333333,112.533333 64.0666667,112.533333 64,112.6 L63.5333333,117.4 L61.1333333,116.4 C61.0666667,116.6 61,116.8 61,117 L64,118.666667 L64.2,112.466667 L64.2,112.466667 Z" id="Shape" fill="#1B5375"></path>
                    <path id="Shape" fill="#1B5375"></path>
                    <path id="Shape" fill="#1B5375"></path>
                    <polygon id="Shape" fill="#FDBD68" points="57.0666667 118.533333 58.6 115.666667 58.6 115.666667 55.8 114.133333 53 115.6 53 115.6 54.5333333 118.533333 51.6 136.133333 56 146.266667 60 136.133333"></polygon>
                    <g transform="translate(62.000000, 66.666667)" id="Shape" fill="#F7941E">
                        <path d="M49.8,19.4666667 C46.7333333,16.9333333 40.9333333,19.6666667 43.0666667,19.5333333 C44.4666667,19.4666667 46.8666667,18.3333333 49,20.3333333 C49.7333333,21 50.6,20.1333333 49.8,19.4666667 L49.8,19.4666667 Z"></path>
                        <path d="M32.3333333,31.4666667 C32.1333333,31.7333333 31.8666667,31.9333333 31.5333333,32.0666667 C29.9333333,32.6 27.8666667,30.5333333 26.8666667,27.4666667 C26.7333333,27.1333333 26.6666667,26.8 26.6,26.4666667 C25.6,37.8 25.5333333,48.8666667 32.8666667,55.5333333 C35.6,53.0666667 38.4666667,51.0666667 41.2666667,50.1333333 C41.9333333,49.9333333 42.6,49.8 43.2,49.7333333 C44.0666667,49.4 45,49.2 45.9333333,48.9333333 C45.8666667,48.5333333 45.8,48.2 45.8,47.9333333 C45.8,47.5333333 45.8666667,47.1333333 45.9333333,46.7333333 C40.1333333,43.6 34.3333333,38.0666667 32.3333333,31.4666667 L32.3333333,31.4666667 Z"></path>
                        <path d="M54.4666667,0.4 C41.8,0.4 30.5333333,6.46666667 27.3333333,21.3333333 C27.5333333,21.2 27.6666667,21.0666667 27.8666667,21 C28.8666667,20.6666667 30.0666667,21.3333333 31.0666667,22.6666667 C31.2,23.6666667 31.3333333,24.6666667 31.6,25.7333333 C31.6666667,26 31.7333333,26.2666667 31.8,26.5333333 C32.2666667,28.1333333 32.3333333,27.4 32.6,25.6666667 C32.8,24.3333333 33.0666667,22.4 33.6666667,20.5333333 C38,20.1333333 44.0666667,15.7333333 47.3333333,10.6666667 C48.9333333,15 53.4,18.2666667 58.8,20.0666667 C58.8666667,20.4666667 59.3333333,20.7333333 59.8,20.4 C64.8666667,21.8666667 70.7333333,22.0666667 75.8666667,20.4666667 C76.2,21.6 76.4666667,22.7333333 76.6,23.7333333 C77.1333333,26.8 77.0666667,28.8666667 77.7333333,26.5333333 C77.7333333,26.5333333 77.7333333,26.5333333 77.7333333,26.4666667 C78.2,24.6666667 78.4666667,23 78.5333333,21.4 C79.2,20.9333333 79.8666667,20.8 80.4666667,21 C82.0666667,21.5333333 82.4666667,24.4 81.4666667,27.4666667 C80.4666667,30.5333333 78.4,32.5333333 76.8,32.0666667 C76.8,32.0666667 76.8,32.0666667 76.7333333,32.0666667 C74.4,38.9333333 68.0666667,44.5333333 62.0666667,47.4 C62.0666667,47.6 62.1333333,47.8 62.1333333,47.9333333 C62.1333333,48.2666667 62.0666667,48.6 62,49 C63.0666667,49.2666667 64.1333333,49.6 65.0666667,50 C66.0666667,50.1333333 67.1333333,50.4666667 68.2666667,51.0666667 C70.7333333,52.5333333 73.0666667,54.4666667 75.1333333,56.6 C84.3333333,49.6 84.0666667,36.7333333 82.7333333,24.7333333 C80.7333333,7.2 68.4,0.4 54.4666667,0.4 L54.4666667,0.4 Z M62.2666667,17.1333333 C66.4666667,18 70.8666667,17.9333333 74.2666667,17.1333333 C74.6666667,17.8 75.0666667,18.5333333 75.3333333,19.2666667 C70.1333333,19.1333333 65.8,18.3333333 62.2666667,17.1333333 L62.2666667,17.1333333 Z"></path>
                        <path d="M122.266667,69.8666667 C122.266667,69.4 122.2,69 122.2,68.5333333 C121.933333,63.2 121.6,58.5333333 121.266667,55.2666667 C121.2,54.4666667 121.133333,53.8 121.066667,53.1333333 C121.066667,53 121,52.8 121,52.6666667 C120.866667,52.6 120.666667,52.6 120.533333,52.5333333 C120.466667,52.7333333 120.4,52.9333333 120.333333,53.2 C119.066667,57.4 114.4,64.8666667 112.533333,64.8666667 C110.8,64.8666667 105.8,57.3333333 104.533333,53.1333333 C104.4,54.0666667 104.333333,55.2 104.2,56.4666667 C103.933333,59.8 103.6,64.2 103.333333,69.1333333 C103.266667,69.8666667 103.266667,70.6666667 103.2,71.4666667 L113.266667,75.4 L120.4,78.2 L117.866667,84.6 C117.933333,84.8 118.066667,85.6 118.333333,86.4 C118.666667,86.2666667 119.066667,86.1333333 119.6,86 C120.333333,85.8 121.2,85.4666667 122.2,85.1333333 C122.4,85 122.6,84.8666667 122.866667,84.7333333 C122.733333,79.5333333 122.533333,74.4666667 122.266667,69.8666667 L122.266667,69.8666667 Z"></path>
                        <path d="M92.8666667,60.6666667 C93.8666667,58.8666667 94.9333333,57.4666667 96.0666667,56.4 C94.6666667,57.6 93.5333333,59 92.8666667,60.6666667 L92.8666667,60.6666667 Z"></path>
                        <path d="M14.2666667,81.8 C12.2,82.2 10.3333333,82.4666667 8.73333333,82.7333333 C8.8,81.7333333 8.8,80.7333333 8.8,79.7333333 C7.46666667,80.8 6.46666667,81.8666667 5.4,82.1333333 L5.33333333,82.1333333 C4.06666667,82.4666667 2.26666667,82.4666667 1.06666667,81.9333333 L0.2,86.3333333 L5.6,86.8 L13.2,87.4 L19.3333333,87.8666667 L19.7333333,86 L20.9333333,80.2666667 C20.3333333,80.4 19.8,80.5333333 19.2,80.6666667 C17.6,81.2 15.8666667,81.5333333 14.2666667,81.8 L14.2666667,81.8 Z M10.2666667,85.3333333 L9.8,85.3333333 C8.66666667,85.2666667 7.73333333,84.8 7.8,84.3333333 C7.8,83.8 8.73333333,83.4 9.86666667,83.4666667 C10,83.4666667 10.2,83.4666667 10.3333333,83.5333333 C10.4,83.8 10.4666667,84.1333333 10.4,84.4666667 C10.4,84.7333333 10.4,85.0666667 10.2666667,85.3333333 L10.2666667,85.3333333 Z M19.7333333,82.5333333 C19.8,82.7333333 19.6666667,82.9333333 19.5333333,83.1333333 C19.2666667,83.4666667 18.6666667,83.8 18,83.9333333 C17.8666667,84 17.6666667,84 17.5333333,84.0666667 C17.4,83.8 17.2666667,83.5333333 17.1333333,83.2 C17.0666667,82.8666667 17,82.6 17,82.2666667 C17.1333333,82.2 17.2666667,82.1333333 17.4666667,82.1333333 C18.2666667,81.9333333 19,81.9333333 19.4,82.1333333 C19.6,82.2666667 19.6666667,82.4 19.7333333,82.5333333 L19.7333333,82.5333333 Z"></path>
                        <path d="M16.2666667,59.4 L5.8,57.4 L5.26666667,60.2 L4.33333333,65.2 L3.06666667,71.8 C3.53333333,72.2 4.13333333,72.6 4.86666667,72.9333333 C4.86666667,72.9333333 4.93333333,72.9333333 4.93333333,73 C6.6,73.7333333 7.53333333,73.8666667 8.33333333,73.7333333 C8.26666667,73.4 8.2,73.0666667 8.13333333,72.7333333 C10.4666667,72.1333333 13,71.7333333 15.5333333,71.4 C16.4,71.2666667 17.2666667,71.2 18.1333333,71.1333333 L18.4,71.1333333 C20,71 21.5333333,70.9333333 23,70.9333333 L23.5333333,68.4 L24.1333333,65.4666667 L25.0666667,61.1333333 L16.5333333,59.4666667 L16.2666667,59.4 L16.2666667,59.4 Z"></path>
                    </g>
                    <path d="M36.1333333,136.666667 C37.5333333,136.666667 38.6666667,135.533333 38.6666667,134.133333 C38.6666667,133.333333 38.2666667,132.6 37.6666667,132.133333 C36.4666667,133.133333 35.2,134.2 33.9333333,135.2 C34.2666667,136.066667 35.1333333,136.666667 36.1333333,136.666667 L36.1333333,136.666667 Z" id="Shape" fill="#B4B4B4"></path>
                    <path d="M33.6666667,134.2 C33.6666667,134.6 33.7333333,134.933333 33.8666667,135.2 C35.1333333,134.2 36.4,133.2 37.6,132.133333 C37.2,131.8 36.6666667,131.666667 36.1333333,131.666667 C34.8,131.666667 33.6666667,132.8 33.6666667,134.2 L33.6666667,134.2 Z" id="Shape" fill="#B4B4B4"></path>
                    <path d="M72.3333333,150.2 C72.2,150.2 72,150.133333 71.8666667,150.133333 C70.7333333,150.066667 69.8,150.466667 69.8,151 C69.8,151.533333 70.6666667,152 71.8,152 L72.2666667,152 C72.3333333,151.733333 72.4,151.4 72.4666667,151.066667 C72.4666667,150.8 72.4,150.466667 72.3333333,150.2 L72.3333333,150.2 Z" id="Shape" fill="#B4B4B4"></path>
                    <path id="Shape" fill="#B4B4B4"></path>
                    <path d="M79.5333333,148.8 C79.4,148.866667 79.2,148.866667 79.0666667,148.933333 C79.0666667,149.266667 79.0666667,149.533333 79.2,149.866667 C79.2666667,150.2 79.4,150.466667 79.6,150.733333 C79.7333333,150.733333 79.9333333,150.666667 80.0666667,150.6 C80.7333333,150.4 81.2666667,150.133333 81.6,149.8 C81.6,149.466667 81.5333333,149.133333 81.5333333,148.866667 C81,148.6 80.2666667,148.6 79.5333333,148.8 L79.5333333,148.8 Z" id="Shape" fill="#B4B4B4"></path>
                    <g transform="translate(39.333333, 109.333333)" id="Shape" fill="#1C75BC">
                        <path d="M28.3333333,44.2 L22.9333333,43.7333333 L23.8,39.3333333 C23,39 22.4,38.4 22.3333333,37.4666667 C22.2,35.2 21.3333333,35.6666667 20.5333333,33.6666667 C19.8,31.6666667 22.6666667,32.4 23.6,31.2666667 C24.4666667,30.1333333 21.6,29.6 22.9333333,28.2 C23.9333333,27.2 24.4666667,28 25.7333333,29 L27,22.4 C26.8,20.2 26.6666667,18.0666667 26.4666667,16.0666667 C26,10.6 25.5333333,6 25.1333333,2.86666667 C25.0666667,2.26666667 25,1.73333333 24.9333333,1.26666667 L24.8666667,3 L24.6,9.13333333 L21.6,7.46666667 L19.2666667,6.2 L17.7333333,9.06666667 L20.6666667,26.6666667 L16.6666667,36.8 L12.3333333,26.6666667 L15.2666667,9.06666667 L13.7333333,6.13333333 L10.8666667,7.66666667 L8.13333333,9.13333333 L7.86666667,3.2 L7.8,1.26666667 C7.73333333,1.8 7.66666667,2.33333333 7.6,3 C7.2,6.06666667 6.73333333,10.5333333 6.33333333,15.8 C5.46666667,25.8 4.6,38.6666667 4.2,50 L4.2,51 C12.1333333,52.0666667 20.8666667,52.0666667 28.7333333,51 C28.7333333,50.5333333 28.7333333,50.0666667 28.6666667,49.6 C28.4666667,47.8666667 28.4,46.0666667 28.3333333,44.2 L28.3333333,44.2 Z"></path>
                        <path d="M3.4,2.4 C2.2,2.93333333 1.13333333,3.6 0.133333333,4.33333333 C1.26666667,3.53333333 2.4,2.86666667 3.4,2.4 L3.4,2.4 Z"></path>
                        <polygon points="7.8 0.866666667 7.8 0.866666667 8.26666667 3.66666667 8.93333333 7.4 10.5333333 6.86666667 16.4666667 4.8 21.7333333 7.06666667 24.1333333 8.06666667 24.6666667 3.26666667 24.8666667 1.06666667 24.8666667 0.933333333 24.9333333 0.4 24.9333333 0.266666667 24.9333333 0.266666667 24.8 0.333333333 24.7333333 0.333333333 24.0666667 0.733333333 16.6666667 4.66666667 16.2666667 4.66666667 8.53333333 0.666666667 8 0.4 7.86666667 0.333333333 7.8 0.333333333 7.66666667 0.266666667 7.66666667 0.4"></polygon>
                    </g>
                    <g transform="translate(16.000000, 109.333333)" id="Shape" fill="#FFFFFF">
                        <path d="M180,20.7333333 C179.866667,20.3333333 179.733333,19.9333333 179.6,19.6 C179.133333,18.6 178.666667,17.7333333 178.2,16.9333333 C177.733333,16.2 177.2,15.4666667 176.666667,14.8666667 C176.4,14.4666667 176.133333,14.0666667 175.866667,13.6666667 C175.066667,12.4 173.866667,11.6666667 172.6,11.4 C171.6,10.8 170.666667,10.3333333 169.8,10 C168.066667,9.26666667 166.866667,9.06666667 166.8,8.73333333 C166.866667,9.06666667 166.933333,9.53333333 167,10 C167,10.1333333 167.066667,10.2666667 167.066667,10.4666667 C167.133333,11.0666667 167.2,11.8 167.266667,12.6 C167.6,15.9333333 167.933333,20.6 168.2,25.8666667 C168.2,26.2666667 168.266667,26.7333333 168.266667,27.2 C168.533333,31.8 168.733333,36.8666667 168.866667,42 C169,41.9333333 169.133333,41.8 169.333333,41.7333333 C171,40.7333333 173.066667,39.8 175.133333,39.0666667 C173.8,38.3333333 170.8,35.8 169.8,29.9333333 C169.666667,29.3333333 169.6,28.6666667 169.533333,27.9333333 C169.666667,28.7333333 170.6,30.8666667 171.666667,33.0666667 C173,35.6 174.533333,38.2 175.533333,38.8666667 L175.533333,38.8666667 C175.666667,38.8 175.8,38.8 175.866667,38.7333333 L176,38.7333333 C178.2,38.0666667 180.266667,37.8 181.733333,38.2666667 C181.8,38.2666667 181.866667,38.3333333 181.866667,38.3333333 C181.866667,38.3333333 181.866667,38.2666667 181.8,38.2666667 C181.733333,38.1333333 181.666667,38 181.666667,37.8666667 C181.6,37.7333333 181.6,37.5333333 181.6,37.4 L181.666667,37.4 C181.8,37.3333333 181.866667,37.2666667 182,37.2 C183,36.7333333 184,36.7333333 184.2,37.2 C184.333333,37.5333333 184.066667,38 183.466667,38.4 C183.266667,38.5333333 183.066667,38.6666667 182.8,38.8 C182.8,38.8 182.8,38.8 182.733333,38.8 C182.6,38.8666667 182.466667,38.9333333 182.333333,39 C182.2,38.8 182.066667,38.6 181.933333,38.4 L181.733333,38.4 C180.266667,38.5333333 178.466667,38.9333333 176.6,39.5333333 C176.333333,39.6 176.066667,39.6666667 175.8,39.8 C175.733333,39.8 175.6,39.8666667 175.533333,39.8666667 C175.6,40.0666667 175.666667,40.2 175.666667,40.4 L175.666667,40.4666667 C175.733333,40.8 175.666667,41.0666667 175.666667,41.3333333 C175.6,41.3333333 175.533333,41.3333333 175.466667,41.4 C175.4,41.4 175.333333,41.4 175.2,41.4666667 C174.133333,41.6 173.2,41.3333333 173.133333,40.8 L173.133333,40.6666667 C171.666667,41.2 170.266667,41.6666667 168.933333,42.1333333 C168.733333,42.2 168.466667,42.2666667 168.266667,42.4 C167.266667,42.7333333 166.4,43.0666667 165.666667,43.2666667 C165.2,43.4 164.733333,43.5333333 164.4,43.6666667 C164.8,44.8 165.466667,46.0666667 166.4,46.0666667 C166.6,46.1333333 166.733333,46.2666667 166.933333,46.3333333 C168.133333,47.1333333 168.4,48.6 167.933333,50.0666667 C167.733333,50.6 167.466667,51.2 167.066667,51.6666667 C166.666667,51.8666667 166.2,52.0666667 165.666667,52.2 C166.2,52.4666667 166.8,52.5333333 167.4,52.4666667 C167.666667,52.4 168.266667,52.2 169.133333,51.9333333 C170.333333,51.4666667 172,50.7333333 173.8,49.8666667 C176.6,48.4666667 179.8,46.7333333 182.133333,44.8666667 C184.066667,43.3333333 185.333333,41.8 185.4,40.4666667 C186.666667,36.4666667 184.066667,28.5333333 180,20.7333333 L180,20.7333333 Z"></path>
                        <path d="M150.4,9.8 C150.333333,9.53333333 150.333333,9.33333333 150.266667,9.06666667 C149.8,9.26666667 149,9.46666667 148,9.86666667 C146.333333,10.5333333 144.133333,11.6 142,13.6666667 C140.866667,14.8 139.733333,16.2 138.8,17.9333333 C138.6,18.2666667 138.4,18.6666667 138.2,19.0666667 C133.333333,26.2666667 129.6,34 129.733333,38.6666667 C128.8,40.4 129.333333,45.8666667 130.2,49.5333333 C130.6,51.2666667 131.066667,52.6 131.466667,52.9333333 C132.2,53.4666667 133.333333,53.4 134.4,52.8 C134.066667,52.5333333 133.866667,52.2 133.666667,51.8666667 C133.333333,50.1333333 134,48.3333333 135.333333,47.6 C135.8,47.3333333 136.333333,47.2 136.933333,47.2666667 C137.266667,47.4666667 137.666667,47.4666667 138.066667,47.3333333 C139.333333,46.9333333 140.733333,45.3333333 141.066667,44.9333333 L141.533333,43.8 L142.266667,41.9333333 L146.933333,30.0666667 L147.666667,28.2 L148.066667,28.3333333 L149.133333,28.7333333 C149.2,27.9333333 149.2,27.2 149.266667,26.4 C149.533333,21.4666667 149.8,17.0666667 150.133333,13.7333333 C150.266667,12.4666667 150.333333,11.3333333 150.466667,10.4 L150.466667,10.2666667 C150.533333,10.1333333 150.466667,10 150.4,9.8 L150.4,9.8 Z M143.733333,34.7333333 C143.4,35.5333333 142.8,36.2666667 142.066667,36.7333333 C141.8,36.9333333 141.533333,37.0666667 141.2,37.2 C140.666667,37.4 140.133333,37.5333333 139.533333,37.5333333 C138.2,37.5333333 136.933333,36.9333333 136.133333,36 C135.466667,35.2 135,34.1333333 135,33 C135,31.5333333 135.733333,30.2 136.8,29.4 C137.4,29 138.066667,28.6666667 138.733333,28.5333333 C139,28.4666667 139.2,28.4666667 139.466667,28.4666667 C139.8,28.4666667 140.133333,28.5333333 140.4,28.6 L140.4,28.6 C142.466667,29.0666667 144,30.8666667 144,33 C144.066667,33.6 143.933333,34.2 143.733333,34.7333333 L143.733333,34.7333333 Z"></path>
                        <path d="M31,0.4 C30.4666667,0.8 28.8,1.33333333 26.8,2.33333333 C26.2,2.46666667 25.6666667,2.66666667 25.0666667,3 C15.2666667,9.06666667 2.26666667,22.7333333 0.533333333,29.8666667 C-1.53333333,33.0666667 7.53333333,43.5333333 13.3333333,49.7333333 C13.2666667,51.4 13.1333333,53 13.0666667,54.6 C13.8666667,55.0666667 14.6666667,55.4666667 15.4666667,55.8666667 C17.5333333,56.9333333 19.6666667,57.9333333 21.8666667,58.8 C22.7333333,59.1333333 23.6666667,59.5333333 24.5333333,59.8 C25.4,60.1333333 26.2666667,60.4 27.1333333,60.6666667 C27.1333333,57.6666667 27.2,54.4 27.2666667,51 L27.2666667,50 C27.6666667,38.6666667 28.5333333,25.8666667 29.4,15.8 C29.8666667,10.5333333 30.3333333,6.06666667 30.6666667,3 C30.7333333,2.33333333 30.8,1.8 30.8666667,1.26666667 L30.8666667,0.8 L31,0.4 L31,0.4 Z M15.6,23.8 C15.8,22.8666667 16.2666667,22.0666667 16.9333333,21.4 C17.8,20.6 18.9333333,20.1333333 20.1333333,20.1333333 C20.4666667,20.1333333 20.8,20.2 21.1333333,20.2666667 L21.1333333,20.2666667 C21.9333333,20.4666667 22.7333333,20.8666667 23.3333333,21.4 C24.2666667,22.2666667 24.8666667,23.4666667 24.8666667,24.8666667 C24.8666667,27.4666667 22.7333333,29.5333333 20.2,29.5333333 C19.2,29.5333333 18.3333333,29.2 17.5333333,28.7333333 C16.9333333,28.3333333 16.4666667,27.8 16.1333333,27.2666667 C15.8,26.6666667 15.5333333,25.9333333 15.4666667,25.2 L15.4666667,24.8666667 C15.4666667,24.4666667 15.5333333,24.1333333 15.6,23.8 L15.6,23.8 Z M14.3333333,36.2666667 C12.5333333,34.6666667 10.7333333,33.2 9,32 C10.9333333,30.9333333 13,29.5333333 15.2,27.9333333 C14.8666667,30.5333333 14.6,33.4 14.3333333,36.2666667 L14.3333333,36.2666667 Z M24.2666667,51.1333333 C21.6,51.2666667 16.7333333,51.3333333 15.5333333,51.3333333 C15.4666667,51.1333333 15.4666667,50.9333333 15.4,50.7333333 C16.7333333,48.8 18.2,47 19.8,45.3333333 C19.8666667,45.4 19.9333333,45.4666667 20.0666667,45.5333333 C20.9333333,46.4 22,47.4 23.2,48.5333333 C23.7333333,49.0666667 24.2,49.5333333 24.5333333,50 C24.7333333,50.2666667 24.9333333,50.4666667 25.0666667,50.7333333 C25.1333333,50.8666667 25.2,50.9333333 25.2666667,51.0666667 C24.9333333,51.0666667 24.6,51.1333333 24.2666667,51.1333333 L24.2666667,51.1333333 Z M23.4666667,4.26666667 C24.4,3.53333333 25.5333333,2.93333333 26.7333333,2.33333333 C25.7333333,2.86666667 24.6,3.53333333 23.4666667,4.26666667 L23.4666667,4.26666667 Z"></path>
                        <path></path>
                        <path d="M65.4,45.3333333 L59.2666667,44.8666667 L51.6666667,44.2666667 C51.7333333,46.1333333 51.8,47.9333333 51.8666667,49.7333333 C51.8666667,50.2 51.8666667,50.6666667 51.9333333,51.1333333 C52.0666667,56.4666667 52.1333333,61.4 52,65.5333333 C53.4,65.6666667 54.8,65.7333333 56.2,65.7333333 C59.9333333,65.8666667 63.8,65.8666667 67.6666667,65.6666667 C67.2666667,59.7333333 66.6,51.6 65.8,43.4666667 L65.4,45.3333333 L65.4,45.3333333 Z"></path>
                        <path d="M78.7333333,30.2666667 C78.6666667,30.2 78.6,30.1333333 78.5333333,30.0666667 C78.3333333,29.0666667 77.8666667,28 77.2666667,26.8 C76.8,25.9333333 76.2666667,25 75.6,24 C74.6666667,22.6 73.6,21.2 72.4,19.7333333 C68.3333333,14.8 62.9333333,9.53333333 57.8,5.73333333 C53.8666667,1.46666667 49.3333333,0.933333333 48.2666667,0.4 L48.2666667,0.933333333 L48.2666667,1.4 C48.3333333,1.86666667 48.4,2.4 48.4666667,3 C48.8666667,6.13333333 49.3333333,10.8 49.8,16.2 C50,18.2 50.1333333,20.3333333 50.3333333,22.5333333 L51.2666667,17.5333333 L51.8,14.7333333 L62.2666667,16.7333333 L62.6,16.8 L71.1333333,18.4666667 L70.2,22.8 L69.6,25.7333333 L69.0666667,28.2666667 C67.6,28.2666667 66.0666667,28.3333333 64.4666667,28.4666667 L64.2,28.4666667 C63.3333333,28.5333333 62.4666667,28.6 61.6,28.7333333 C59.0666667,29.0666667 56.5333333,29.5333333 54.2,30.0666667 C54.2666667,30.4 54.3333333,30.7333333 54.4,31.0666667 C54.7333333,33.0666667 54.8666667,35.0666667 54.8666667,37.2 C54.8666667,38.2 54.8666667,39.2 54.8,40.2 C56.4,39.9333333 58.2666667,39.6666667 60.3333333,39.2666667 C61.9333333,38.9333333 63.6666667,38.6 65.3333333,38.2666667 C65.9333333,38.1333333 66.5333333,38 67.0666667,37.8666667 C68.6,37.4666667 70.1333333,37.0666667 71.6,36.6 C74.7333333,35.6 77.2666667,34.5333333 78.5333333,33.2666667 C78.8666667,32.9333333 79.0666667,32.6666667 79.2,32.3333333 C79.3333333,32.0666667 79.3333333,31.8 79.3333333,31.4666667 C79.3333333,31.3333333 79.2666667,31.2 79.2666667,31.0666667 C79.0666667,30.7333333 78.9333333,30.4666667 78.7333333,30.2666667 L78.7333333,30.2666667 Z"></path>
                    </g>
                    <g transform="translate(31.333333, 59.333333)" id="Shape" fill="#676767">
                        <path d="M66.6,75 L66.6,75 C66.2666667,74.9333333 66,74.8666667 65.6666667,74.8666667 C65.4666667,74.8666667 65.2666667,74.8666667 65.1333333,74.9333333 C63.8,75.0666667 62.6666667,75.8 62,76.8666667 C62.6,78.0666667 63.0666667,79.1333333 63.2666667,80.1333333 C63.3333333,80.2 63.4,80.2666667 63.4666667,80.3333333 C63.3333333,80.0666667 63.2666667,79.8 63.2666667,79.4666667 C63.2666667,78.2666667 64.1333333,77.3333333 65.2666667,77.0666667 C65.4,77.0666667 65.5333333,77 65.7333333,77 C67.0666667,77 68.1333333,78.0666667 68.1333333,79.4 C68.1333333,80.7333333 67.0666667,81.8 65.7333333,81.8 L65.4666667,81.8 C64.8666667,81.7333333 64.3333333,81.4666667 63.9333333,81 C64,81.1333333 64,81.2666667 64,81.4 C64,81.6666667 64,81.9333333 63.8666667,82.2666667 C63.7333333,82.6 63.5333333,82.9333333 63.2,83.2 C63.8666667,83.6666667 64.6666667,83.9333333 65.5333333,83.9333333 L65.7333333,83.9333333 C66,83.9333333 66.2666667,83.9333333 66.5333333,83.8666667 C66.6666667,83.8666667 66.8,83.8 66.9333333,83.8 C68.8666667,83.2666667 70.2666667,81.5333333 70.2666667,79.4666667 C70.2666667,79.1333333 70.2,78.8 70.1333333,78.4666667 C69.6666667,76.6666667 68.2666667,75.3333333 66.6,75 L66.6,75 Z"></path>
                        <path d="M125.133333,78.6 L125.133333,78.6 C124.8,78.5333333 124.533333,78.4666667 124.2,78.4666667 C123.933333,78.4666667 123.733333,78.4666667 123.466667,78.5333333 C122.733333,78.6666667 122.066667,78.9333333 121.533333,79.4 C120.466667,80.2 119.733333,81.5333333 119.733333,83 C119.733333,84.1333333 120.133333,85.2 120.866667,86 C121.666667,86.9333333 122.933333,87.5333333 124.266667,87.5333333 C124.866667,87.5333333 125.4,87.4 125.933333,87.2 C126.2,87.0666667 126.533333,86.9333333 126.8,86.7333333 C127.533333,86.2666667 128.133333,85.5333333 128.466667,84.7333333 C128.666667,84.2 128.8,83.6 128.8,83 C128.733333,80.8 127.2,79 125.133333,78.6 L125.133333,78.6 Z M125.333333,85.1333333 C125,85.3333333 124.6,85.4 124.2,85.4 C122.866667,85.4 121.8,84.3333333 121.8,83 C121.8,81.7333333 122.8,80.6666667 124.066667,80.6 L124.2,80.6 C125.533333,80.6 126.6,81.6666667 126.6,83 C126.6,83.9333333 126.066667,84.7333333 125.333333,85.1333333 L125.333333,85.1333333 Z"></path>
                        <path d="M12,101.133333 C11.8666667,104.533333 11.8666667,107.8 11.8666667,110.8 C19.4666667,113.266667 27.8,114.866667 36.6666667,115.533333 C36.8,111.4 36.7333333,106.466667 36.6,101.133333 C28.6666667,102.2 19.9333333,102.2 12,101.133333 L12,101.133333 Z"></path>
                        <path d="M13.7333333,20.8666667 C15.4666667,19.6666667 18.8,20.1333333 20.4666667,21.3333333 C21.4666667,22 22.8,20.8666667 21.8666667,20.2 C19.4666667,18.4666667 15.2666667,18.4666667 12.7333333,20.1333333 C11.6666667,20.8 12.7333333,21.5333333 13.7333333,20.8666667 L13.7333333,20.8666667 Z"></path>
                        <path d="M38.8,20.1333333 C36.2666667,18.4666667 32.0666667,18.4666667 29.6666667,20.2 C28.6666667,20.9333333 30.0666667,22.0666667 31.0666667,21.3333333 C32.7333333,20.1333333 36,19.6666667 37.8,20.8666667 C38.7333333,21.5333333 39.8,20.8 38.8,20.1333333 L38.8,20.1333333 Z"></path>
                        <path d="M5.8,70.2666667 L5.8,70.2666667 C5.46666667,70.2 5.13333333,70.1333333 4.8,70.1333333 C3.53333333,70.1333333 2.4,70.6 1.6,71.4 C0.933333333,72 0.466666667,72.8666667 0.266666667,73.8 C0.2,74.1333333 0.133333333,74.4666667 0.133333333,74.8 L0.133333333,75.1333333 C0.2,75.8666667 0.4,76.6 0.8,77.2 C1.13333333,77.8 1.6,78.3333333 2.2,78.6666667 C2.93333333,79.2 3.86666667,79.4666667 4.86666667,79.4666667 C7.46666667,79.4666667 9.53333333,77.3333333 9.53333333,74.8 C9.53333333,73.4666667 8.93333333,72.2 8,71.3333333 C7.4,70.8666667 6.66666667,70.4666667 5.8,70.2666667 L5.8,70.2666667 Z M4.8,77.3333333 C3.8,77.3333333 2.93333333,76.7333333 2.53333333,75.8666667 C2.4,75.5333333 2.33333333,75.2 2.33333333,74.8666667 C2.33333333,73.4666667 3.46666667,72.3333333 4.86666667,72.3333333 C5.4,72.3333333 5.93333333,72.5333333 6.33333333,72.8 C6.93333333,73.2666667 7.33333333,74 7.33333333,74.8 C7.33333333,76.2 6.2,77.3333333 4.8,77.3333333 L4.8,77.3333333 Z"></path>
                        <path d="M37.8666667,5.06666667 C37.8666667,5.06666667 33.2,-0.266666667 23.6666667,0.2 C12.6,0.733333333 4.06666667,9 1.66666667,15.3333333 C0.6,18.1333333 0.466666667,21.0666667 0.8,23.6666667 C1.06666667,24 1.26666667,24.4 1.53333333,24.8 C1.86666667,25.4 2.13333333,26 2.33333333,26.6666667 C2.73333333,27.9333333 2.93333333,29.2 2.86666667,30.2666667 C3,30.5333333 3.2,30.8 3.33333333,31 C4.86666667,33.2 2.8,19.4666667 5.93333333,15.6666667 C10.6,10.0666667 13.2,11.9333333 19.2,11 C25.2,10.0666667 33.7333333,7.86666667 36,8.93333333 C39.9333333,10.8666667 42.0666667,13.2 43.6666667,16.8 C45.3333333,20.5333333 44.2,33.6666667 46.2666667,31 C46.3333333,30.8666667 46.4666667,30.7333333 46.5333333,30.5333333 C46.4,29.4 46.6,28 47.0666667,26.6666667 C47.3333333,25.8 47.7333333,25 48.1333333,24.3333333 C48.2666667,23.6 48.3333333,22.8666667 48.4,22.0666667 C48.8,17.4 48.4666667,12.2666667 46.4666667,10.0666667 C42.7333333,6 37.8666667,5.06666667 37.8666667,5.06666667 L37.8666667,5.06666667 Z"></path>
                    </g>
                    <g transform="translate(26.666667, 67.333333)" id="Shape" fill="#E5B683">
                        <path d="M40.2666667,72.2666667 C40.2666667,72.2666667 40.2,72.2666667 40.2,72.2 C39.4666667,71.8666667 38.8666667,71.4 38.4,71.0666667 C37.1333333,70.0666667 36.6,69.2666667 35.6,70.2666667 C34.2,71.6666667 37.1333333,72.2 36.2666667,73.3333333 C35.4,74.4666667 32.4666667,73.7333333 33.2,75.7333333 C33.9333333,77.7333333 34.8666667,77.2666667 35,79.5333333 C35.0666667,80.4666667 35.6666667,81.0666667 36.4666667,81.4 C37.6666667,81.9333333 39.4666667,81.8666667 40.7333333,81.6 L40.8,81.6 C41.8666667,81.3333333 42.8666667,80.2666667 44.2,79.2 C44.2,77.1333333 44.0666667,75.0666667 43.7333333,73.0666667 C42.9333333,73.1333333 41.9333333,73 40.2666667,72.2666667 L40.2666667,72.2666667 Z"></path>
                        <path d="M13.8666667,92.0666667 C13.5333333,91.6 13.0666667,91.1333333 12.5333333,90.6 C11.3333333,89.4666667 10.2666667,88.4666667 9.4,87.6 C9.33333333,87.5333333 9.26666667,87.4666667 9.13333333,87.4 C7.53333333,89 6.06666667,90.8 4.73333333,92.8 C4.8,93 4.8,93.2 4.86666667,93.4 C6.06666667,93.4 10.9333333,93.3333333 13.6,93.2 C14,93.2 14.3333333,93.1333333 14.6,93.1333333 C14.5333333,93 14.4666667,92.9333333 14.4,92.8 C14.2,92.5333333 14.0666667,92.3333333 13.8666667,92.0666667 L13.8666667,92.0666667 Z"></path>
                        <path d="M56.6,13.8666667 C55.6,13.5333333 54.4,14.2 53.4,15.4666667 C53.3333333,15 53.2,14.4666667 53.0666667,14 C53,14.8 52.9333333,15.5333333 52.8,16.2666667 C52.4,16.9333333 52,17.7333333 51.7333333,18.6 C51.2666667,20 51.1333333,21.3333333 51.2,22.4666667 C51.1333333,22.6666667 51,22.8 50.9333333,22.9333333 C48.8666667,25.6 50,12.4666667 48.3333333,8.73333333 C46.7333333,5.13333333 44.6,2.8 40.6666667,0.866666667 C38.4,-0.2 29.8666667,2 23.8666667,2.93333333 C17.8666667,3.86666667 15.2666667,2 10.6,7.6 C7.46666667,11.4 9.53333333,25.0666667 8,22.9333333 C7.86666667,22.7333333 7.66666667,22.4666667 7.53333333,22.2 C7.6,21.1333333 7.4,19.8666667 7,18.6 C6.8,17.9333333 6.46666667,17.2666667 6.2,16.7333333 C6,16.3333333 5.73333333,15.9333333 5.46666667,15.6 C4.4,14.2666667 3.2,13.5333333 2.2,13.8666667 C0.6,14.4 0.0666666667,17.4 1.13333333,20.5333333 C2.2,23.6666667 4.33333333,25.8 6,25.2666667 C6.26666667,25.2 6.46666667,25.0666667 6.66666667,24.8666667 C8.4,32.3333333 13.7333333,38.4 20.7333333,41.3333333 C21.6,41.6666667 22.4666667,42 23.4,42.2666667 C25.4666667,42.8666667 27.6666667,43.2 30,43.2 C32,43.2 33.9333333,42.9333333 35.8,42.4666667 C36.4666667,42.3333333 37.0666667,42.1333333 37.7333333,41.8666667 C45.3333333,39.2666667 51.2,33.0666667 53.1333333,25.3333333 C54.7333333,25.6666667 56.7333333,23.5333333 57.7333333,20.5333333 C58.6666667,17.4 58.2,14.4666667 56.6,13.8666667 L56.6,13.8666667 Z M31.9333333,20.3333333 C35.0666667,23.8666667 37.1333333,27.7333333 30.2,28 C35,26.4 33.4,24.0666667 31.9333333,20.3333333 L31.9333333,20.3333333 Z M17.4,12.1333333 C19.9333333,10.4666667 24.1333333,10.4666667 26.5333333,12.2 C27.5333333,12.9333333 26.1333333,14.0666667 25.1333333,13.3333333 C23.4666667,12.1333333 20.2,11.6666667 18.4,12.8666667 C17.4,13.5333333 16.3333333,12.8 17.4,12.1333333 L17.4,12.1333333 Z M25.7333333,33.3333333 C28.4666667,34.2666667 31.1333333,34.2666667 33.8666667,33.3333333 C33.6,35.1333333 25.6,34.9333333 25.7333333,33.3333333 L25.7333333,33.3333333 Z M20.4666667,30.5333333 C26.6666667,31.8666667 32.9333333,31.8666667 39.1333333,30.5333333 C38.4666667,33.1333333 20.1333333,32.8666667 20.4666667,30.5333333 L20.4666667,30.5333333 Z M42.4,12.8666667 C40.6666667,11.6666667 37.3333333,12.1333333 35.6666667,13.3333333 C34.6666667,14 33.3333333,12.8666667 34.2666667,12.2 C36.6666667,10.4666667 40.8666667,10.4666667 43.4,12.1333333 C44.4666667,12.8 43.4,13.5333333 42.4,12.8666667 L42.4,12.8666667 Z"></path>
                    </g>
                    <path d="M176.533333,97.4666667 C177.933333,101.066667 179.466667,103.266667 174.866667,104.866667 C181.6,104.6 179.6,100.866667 176.533333,97.4666667 L176.533333,97.4666667 Z" id="Shape" fill="#B3895B"></path>
                </g>
                <path d="M107.6,115 C103.866667,114.733333 100.466667,123.733333 97.8666667,134.533333" id="Shape" stroke="#676767" stroke-width="1.9199"></path>
                <path d="M124.133333,115.066667 C126.466667,115.2 127.933333,119.666667 129.533333,126.133333" id="Shape" stroke="#676767" stroke-width="1.9199"></path>
                <path d="M166.2,118.6 C162.466667,118.333333 159.066667,127.333333 156.466667,138.133333" id="Shape" stroke="#676767" stroke-width="1.9199"></path>
                <path d="M182.733333,118.666667 C185.066667,118.8 186.533333,123.266667 188.133333,129.733333" id="Shape" stroke="#676767" stroke-width="1.9199"></path>
                <path id="Shape" stroke="#1B5375" stroke-width="1.9199"></path>
                <path d="M47.2,109.6 C43.3333333,109.333333 39.8,118.666667 37.1333333,129.8" id="Shape" stroke="#676767" stroke-width="1.9199"></path>
                <path d="M64.3333333,109.666667 C67.7333333,109.866667 69.3333333,118.666667 72,129.8" id="Shape" stroke="#676767" stroke-width="1.9199"></path>
                <path d="M129.333333,126 C133.533333,124 140.666667,140.4 133.066667,146.2" id="Shape" stroke="#676767" stroke-width="0.9601"></path>
                <path d="M129.333333,126 C124.8,127.066667 129.666667,144.266667 139.266667,144" id="Shape" stroke="#676767" stroke-width="0.9601"></path>
                <path d="M187.866667,129.6 C192.066667,127.6 199.2,144 191.6,149.8" id="Shape" stroke="#676767" stroke-width="0.9601"></path>
                <path d="M187.866667,129.6 C183.333333,130.666667 188.2,147.866667 197.8,147.6" id="Shape" stroke="#676767" stroke-width="0.9601"></path>
                <path d="M72,129.8 C76.6,128.466667 81.2,146.4 72.4666667,151.133333" id="Shape" stroke="#676767" stroke-width="0.9601"></path>
                <path d="M72,129.8 C67.2,130.133333 69.2666667,148.6 79.1333333,149.866667" id="Shape" stroke="#676767" stroke-width="0.9601"></path>
                <path d="M219.933333,58.4666667 C199.6,42.8666667 169.266667,33 135.533333,33 C104.533333,33 76.4666667,41.3333333 56.2666667,54.8 C78.4,44.7333333 105.333333,38.7333333 134.333333,38.7333333 C166.733333,38.8 196.533333,46.2 219.933333,58.4666667 L219.933333,58.4666667 Z" id="Shape" fill="#65CBE3"></path>
                <path d="M170.666667,26.0666667 C173.666667,23.7333333 175.8,21.0666667 176.4,18.9333333 C176.6,18.2 176.6,17.6666667 176.466667,17.1333333 C176.466667,17.0666667 176.4,16.9333333 176.333333,16.7333333 C176.2,16.5333333 176.133333,16.4666667 176.133333,16.4666667 C175.8,16.0666667 175.266667,15.8 174.6,15.6 C172.466667,15 169.066667,15.4666667 165.533333,16.8 C162.666667,17.9333333 159.6,19.7333333 155.4,22.2666667 C154.666667,22.6666667 153.933333,23.1333333 153.133333,23.6 L147.333333,19.9333333 L147.333333,19.9333333 C147.666667,19.7333333 147.933333,19.4 148,19.0666667 C148.133333,18.6666667 148.066667,18.2666667 147.866667,17.9333333 L147.066667,16.4666667 C146.866667,16.1333333 146.533333,15.8666667 146.2,15.8 C145.8,15.6666667 145.4,15.7333333 145.066667,15.9333333 L142.866667,17.1333333 L142.066667,16.6 C142.333333,16.4 142.533333,16.1333333 142.6,15.8 C142.733333,15.4 142.666667,15 142.466667,14.6666667 L141.666667,13.2 C141.466667,12.8666667 141.133333,12.6 140.8,12.5333333 C140.466667,12.4666667 140,12.4666667 139.666667,12.6666667 L137.666667,13.8 L131.733333,10.0666667 C131.6,10 131.466667,9.93333333 131.266667,9.86666667 C130.8,9.73333333 130.333333,9.8 129.933333,10 L127.066667,11.6 C126.733333,11.8 126.466667,12.0666667 126.4,12.4 C126.266667,12.8666667 126.4,13.4 126.733333,13.7333333 L138.133333,25.0666667 C138.2,25.1333333 138.333333,25.3333333 138.4,25.4 L141.2,30.3333333 C136.533333,33.1333333 132.266667,35.9333333 128.866667,38.4 C128.533333,38.6 128.266667,38.8666667 127.933333,39.0666667 L117.733333,35.2 C117.666667,35.2 117.6,35.1333333 117.533333,35.1333333 C117.066667,35 116.533333,35.0666667 116.066667,35.3333333 L114.733333,36.0666667 C114.4,36.2666667 114.133333,36.5333333 114.066667,36.8666667 C113.933333,37.4 114.066667,37.9333333 114.466667,38.2666667 L120.866667,43.8 C120.933333,43.8666667 121.066667,44 121.066667,44.0666667 L121.533333,44.8666667 C121.2,45.3333333 120.933333,45.8 120.866667,46.2 C120.733333,46.7333333 120.733333,47.2666667 121,47.7333333 L121,47.7333333 L121,47.7333333 C121.266667,48.1333333 121.666667,48.4666667 122.2,48.6 C122.6,48.7333333 123.066667,48.7333333 123.666667,48.6666667 L124.133333,49.4666667 C124.2,49.5333333 124.266667,49.7333333 124.266667,49.8 L125.733333,58.1333333 C125.8,58.6666667 126.2,59.0666667 126.666667,59.2666667 L126.666667,59.2666667 C127,59.3333333 127.4,59.3333333 127.733333,59.1333333 L129.133333,58.3333333 C129.533333,58.0666667 129.866667,57.6666667 130,57.2 L130,57.0666667 L132,46.2666667 C132.333333,46.1333333 132.666667,46 133.066667,45.8666667 C137,44.2666667 141.533333,42.0666667 146.333333,39.5333333 L149.133333,44.4666667 C149.2,44.5333333 149.266667,44.8 149.266667,44.8666667 L153.066667,60.4666667 C153.2,60.9333333 153.533333,61.3333333 154.066667,61.4666667 C154.4,61.5333333 154.8,61.5333333 155.133333,61.3333333 L158.066667,59.6666667 C158.466667,59.4666667 158.733333,59.0666667 158.866667,58.6 C158.933333,58.4666667 158.933333,58.2666667 158.933333,58.1333333 L158.8,51.1333333 L160.8,50 C161.133333,49.8 161.4,49.4666667 161.466667,49.1333333 C161.6,48.7333333 161.533333,48.3333333 161.333333,48 L160.533333,46.5333333 C160.333333,46.2 160,45.9333333 159.666667,45.8666667 C159.333333,45.8 159,45.8 158.733333,45.9333333 L158.733333,44.9333333 L160.933333,43.7333333 C161.266667,43.5333333 161.533333,43.2 161.6,42.8666667 C161.733333,42.4666667 161.666667,42.0666667 161.466667,41.7333333 L160.666667,40.2666667 C160.466667,39.9333333 160.133333,39.6666667 159.8,39.6 C159.4,39.4666667 159,39.5333333 158.666667,39.7333333 L158.666667,39.7333333 L158.533333,32.8666667 C159.333333,32.4 160.133333,32 160.933333,31.6 C165.133333,29.5333333 168.266667,27.9333333 170.666667,26.0666667 L170.666667,26.0666667 L170.666667,26.0666667 Z" id="Shape" fill="#FFFFFF"></path>
                <g id="Group" transform="translate(160.666667, 94.000000)" fill="#3F4544">
                    <path d="M5.2,0.533333333 C4.73333333,0.533333333 4.33333333,0.666666667 3.93333333,0.866666667 L4.2,0.866666667 C4.93333333,0.866666667 5.53333333,1.46666667 5.53333333,2.2 C5.53333333,2.93333333 4.93333333,3.53333333 4.2,3.53333333 C3.53333333,3.53333333 3,3.06666667 2.86666667,2.46666667 L2.86666667,2.86666667 C2.86666667,4.13333333 3.93333333,5.2 5.2,5.2 C6.46666667,5.2 7.53333333,4.13333333 7.53333333,2.86666667 C7.53333333,1.6 6.53333333,0.533333333 5.2,0.533333333 L5.2,0.533333333 Z" id="Shape"></path>
                    <path d="M5.2,1.13333333 C7.4,1.13333333 9.26666667,1.8 9.8,2.66666667 C9.93333333,2.53333333 9.93333333,2.33333333 9.93333333,2.13333333 C9.93333333,1 7.8,0.133333333 5.2,0.133333333 C2.6,0.133333333 0.466666667,1.06666667 0.466666667,2.13333333 C0.466666667,2.33333333 0.533333333,2.46666667 0.6,2.66666667 C1.2,1.8 3,1.13333333 5.2,1.13333333 L5.2,1.13333333 Z" id="Shape"></path>
                </g>
                <g id="Group" transform="translate(180.666667, 94.000000)" fill="#3F4544">
                    <path d="M4.73333333,0.533333333 C4.26666667,0.533333333 3.86666667,0.666666667 3.46666667,0.866666667 L3.73333333,0.866666667 C4.46666667,0.866666667 5.06666667,1.46666667 5.06666667,2.2 C5.06666667,2.93333333 4.46666667,3.53333333 3.73333333,3.53333333 C3.06666667,3.53333333 2.53333333,3.06666667 2.4,2.46666667 L2.4,2.86666667 C2.4,4.13333333 3.46666667,5.2 4.73333333,5.2 C6,5.2 7.06666667,4.13333333 7.06666667,2.86666667 C7.06666667,1.6 6.06666667,0.533333333 4.73333333,0.533333333 L4.73333333,0.533333333 Z" id="Shape"></path>
                    <path d="M4.73333333,1.13333333 C6.93333333,1.13333333 8.8,1.8 9.33333333,2.66666667 C9.46666667,2.53333333 9.46666667,2.33333333 9.46666667,2.13333333 C9.46666667,1 7.33333333,0.133333333 4.73333333,0.133333333 C2.13333333,0.133333333 -3.2728029e-14,1.06666667 -3.2728029e-14,2.13333333 C-3.2728029e-14,2.33333333 0.0666666667,2.46666667 0.133333333,2.66666667 C0.733333333,1.8 2.53333333,1.13333333 4.73333333,1.13333333 L4.73333333,1.13333333 Z" id="Shape"></path>
                </g>
                <g id="Group" transform="translate(102.000000, 89.333333)" fill="#3F4544">
                    <path d="M5.2,1 C4.73333333,1 4.33333333,1.13333333 3.93333333,1.33333333 L4.2,1.33333333 C4.93333333,1.33333333 5.53333333,1.93333333 5.53333333,2.66666667 C5.53333333,3.4 4.93333333,4 4.2,4 C3.53333333,4 3,3.53333333 2.86666667,2.93333333 L2.86666667,3.33333333 C2.86666667,4.6 3.93333333,5.66666667 5.2,5.66666667 C6.46666667,5.66666667 7.53333333,4.6 7.53333333,3.33333333 C7.53333333,2.06666667 6.53333333,1 5.2,1 L5.2,1 Z" id="Shape"></path>
                    <path d="M5.2,1.6 C7.4,1.6 9.26666667,2.26666667 9.8,3.13333333 C9.93333333,3 9.93333333,2.8 9.93333333,2.6 C9.93333333,1.46666667 7.8,0.6 5.2,0.6 C2.6,0.6 0.466666667,1.53333333 0.466666667,2.6 C0.466666667,2.8 0.533333333,2.93333333 0.6,3.13333333 C1.2,2.2 3,1.6 5.2,1.6 L5.2,1.6 Z" id="Shape"></path>
                </g>
                <g id="Group" transform="translate(122.000000, 89.333333)" fill="#3F4544">
                    <path d="M4.73333333,1 C4.26666667,1 3.86666667,1.13333333 3.46666667,1.33333333 L3.73333333,1.33333333 C4.46666667,1.33333333 5.06666667,1.93333333 5.06666667,2.66666667 C5.06666667,3.4 4.46666667,4 3.73333333,4 C3.06666667,4 2.53333333,3.53333333 2.4,2.93333333 L2.4,3.33333333 C2.4,4.6 3.46666667,5.66666667 4.73333333,5.66666667 C6,5.66666667 7.06666667,4.6 7.06666667,3.33333333 C7.06666667,2.06666667 6.06666667,1 4.73333333,1 L4.73333333,1 Z" id="Shape"></path>
                    <path d="M4.73333333,1.6 C6.93333333,1.6 8.8,2.26666667 9.33333333,3.13333333 C9.46666667,3 9.46666667,2.8 9.46666667,2.6 C9.46666667,1.46666667 7.33333333,0.6 4.73333333,0.6 C2.13333333,0.6 -3.2728029e-14,1.53333333 -3.2728029e-14,2.6 C-3.2728029e-14,2.8 0.0666666667,2.93333333 0.133333333,3.13333333 C0.733333333,2.2 2.53333333,1.6 4.73333333,1.6 L4.73333333,1.6 Z" id="Shape"></path>
                </g>
                <g id="Group" transform="translate(42.000000, 82.000000)" fill="#3F4544">
                    <path d="M5.13333333,0.933333333 C4.66666667,0.933333333 4.26666667,1.06666667 3.86666667,1.26666667 L4.13333333,1.26666667 C4.86666667,1.26666667 5.46666667,1.86666667 5.46666667,2.6 C5.46666667,3.33333333 4.86666667,3.93333333 4.13333333,3.93333333 C3.46666667,3.93333333 2.93333333,3.46666667 2.8,2.86666667 L2.8,3.26666667 C2.8,4.53333333 3.86666667,5.6 5.13333333,5.6 C6.4,5.6 7.46666667,4.53333333 7.46666667,3.26666667 C7.46666667,2 6.46666667,0.933333333 5.13333333,0.933333333 L5.13333333,0.933333333 Z" id="Shape"></path>
                    <path d="M5.13333333,1.53333333 C7.33333333,1.53333333 9.2,2.2 9.73333333,3.06666667 C9.86666667,2.93333333 9.86666667,2.73333333 9.86666667,2.53333333 C9.86666667,1.4 7.73333333,0.533333333 5.13333333,0.533333333 C2.53333333,0.533333333 0.4,1.46666667 0.4,2.53333333 C0.4,2.73333333 0.466666667,2.86666667 0.533333333,3.06666667 C1.06666667,2.13333333 2.93333333,1.53333333 5.13333333,1.53333333 L5.13333333,1.53333333 Z" id="Shape"></path>
                </g>
                <g id="Group" transform="translate(61.333333, 82.000000)" fill="#3F4544">
                    <path d="M5.33333333,0.933333333 C4.86666667,0.933333333 4.46666667,1.06666667 4.06666667,1.26666667 L4.33333333,1.26666667 C5.06666667,1.26666667 5.66666667,1.86666667 5.66666667,2.6 C5.66666667,3.33333333 5.06666667,3.93333333 4.33333333,3.93333333 C3.66666667,3.93333333 3.13333333,3.46666667 3,2.86666667 L3,3.26666667 C3,4.53333333 4.06666667,5.6 5.33333333,5.6 C6.6,5.6 7.66666667,4.53333333 7.66666667,3.26666667 C7.66666667,2 6.66666667,0.933333333 5.33333333,0.933333333 L5.33333333,0.933333333 Z" id="Shape"></path>
                    <path d="M5.33333333,1.53333333 C7.53333333,1.53333333 9.4,2.2 9.93333333,3.06666667 C10.0666667,2.93333333 10.0666667,2.73333333 10.0666667,2.53333333 C10.0666667,1.4 7.93333333,0.533333333 5.33333333,0.533333333 C2.73333333,0.533333333 0.6,1.46666667 0.6,2.53333333 C0.6,2.73333333 0.666666667,2.86666667 0.733333333,3.06666667 C1.26666667,2.13333333 3.13333333,1.53333333 5.33333333,1.53333333 L5.33333333,1.53333333 Z" id="Shape"></path>
                </g>
                <path d="M38.6666667,83.5333333 L39.7333333,90 L41.6,93.6666667 L44.9333333,94.7333333 L48,94.4 L51.5333333,93.5333333 L53.7333333,89.5333333 L55.6666667,85.0666667 L58.0666667,84.8 L59.1333333,87.4 L61.5333333,92.5333333 L62.4666667,93.7333333 L66.2,94.3333333 L70.1333333,94.4666667 L73.2,92.3333333 L74.2,89.7333333 L74.6666667,84.7333333 L73.8666667,83.1333333 L66.6666667,82.2 L63.2,82.4666667 C63.2,82.4666667 59.5333333,83.4 59.4666667,83.5333333 C59.4,83.6666667 58.5333333,84.2666667 58.5333333,84.2666667 L55.8666667,84.2 L53.4666667,83.2666667 L49.3333333,82 L42.2,82.8 L38.6666667,83.5333333 L38.6666667,83.5333333 Z" id="Shape" fill="#CDCCCC" opacity="0.5"></path>
                <path d="M73.1333333,81.6666667 C70.7333333,81.5333333 65.5333333,81.4 63.2666667,81.6666667 C60.9333333,81.8666667 60.4666667,82.0666667 60.1333333,82.3333333 C59.8,82.6 59.6,83.0666667 58.9333333,83.1333333 C58.3333333,83.2 57.1333333,83.3333333 56.9333333,83.3333333 C56.6666667,83.3333333 55.4666667,83.2 54.9333333,83.1333333 C54.2666667,83.0666667 54.1333333,82.6 53.7333333,82.3333333 C53.4,82.0666667 52.9333333,81.8666667 50.6,81.6666667 C48.2666667,81.4666667 43.0666667,81.5333333 40.7333333,81.6666667 C38.3333333,81.8 36.6666667,82.4666667 36.6666667,82.4666667 L36.8,85.4 C36.8,85.4 37.0666667,85.5333333 37.5333333,85.6666667 C38,85.8 39.0666667,89.6 39.8,91.5333333 C40.5333333,93.4666667 41.6,94.2 43.3333333,94.7333333 C46.7333333,95.4 50.0666667,94.5333333 51.0666667,94.1333333 C52.0666667,93.7333333 52.7333333,92.6666667 53.4,91.5333333 C54.0666667,90.3333333 55.2666667,87.2 55.6666667,86.4666667 C55.9333333,85.8666667 56.6,85.6666667 56.9333333,85.6 C57.2666667,85.6666667 57.9333333,85.8666667 58.2,86.4666667 C58.6,87.2666667 59.8,90.4 60.4666667,91.5333333 C61.1333333,92.7333333 61.8,93.8 62.8,94.1333333 C63.8,94.5333333 67.0666667,95.3333333 70.5333333,94.7333333 C72.2666667,94.2 73.3333333,93.4666667 74.0666667,91.5333333 C74.8,89.6 75.8,85.8 76.3333333,85.6666667 C76.8,85.5333333 77.0666667,85.4 77.0666667,85.4 L77.2,82.4666667 C77.2,82.4666667 75.5333333,81.8 73.1333333,81.6666667 L73.1333333,81.6666667 Z M53.7333333,88.5333333 C53,90.8666667 52.3333333,92.5333333 51,93.2666667 C49.6666667,93.9333333 44.5333333,95.1333333 42.1333333,93.3333333 C41.6666667,93 40.3333333,91.5333333 40.0666667,88.7333333 C39.8,85.9333333 39.5333333,84.4666667 41.2,83.6666667 C41.2,83.6666667 44.4666667,82.5333333 47.1333333,82.5333333 C50.1333333,82.5333333 52.7333333,83 53.3333333,83.8 C53.8666667,84.6 54.5333333,85.6 53.7333333,88.5333333 L53.7333333,88.5333333 Z M73.8,88.7333333 C73.5333333,91.5333333 72.2,93 71.7333333,93.3333333 C69.4,95.1333333 64.2666667,93.9333333 62.8666667,93.2666667 C61.5333333,92.6 60.8,90.8666667 60.1333333,88.5333333 C59.2666667,85.6 60,84.6 60.6,83.8 C61.2,83 63.8,82.5333333 66.8,82.5333333 C69.4,82.5333333 72.7333333,83.6666667 72.7333333,83.6666667 C74.3333333,84.4666667 74,85.9333333 73.8,88.7333333 L73.8,88.7333333 Z" id="Shape" fill="#3F4544"></path>
                <path d="M125.333333,104.4 C121.466667,102.8 118.4,104.8 117.4,104.8 C116.4,104.8 112.733333,102.933333 109.2,104.4 C113.533333,110.933333 121,110.866667 125.333333,104.4 L125.333333,104.4 Z" id="Shape" fill="#E18C66"></path>
                <path d="M182.933333,108.4 C179.533333,106.666667 176.866667,108.8 175.933333,108.8 C175.066667,108.8 171.866667,106.733333 168.733333,108.4 C172.6,115.466667 179.133333,115.466667 182.933333,108.4 L182.933333,108.4 Z" id="Shape" fill="#E18C66"></path>
                <path d="M203.266667,90.3333333 C199.533333,80 189,70.6666667 175.066667,70.6666667 C167.733333,70.6666667 161.733333,73.0666667 157,77.0666667 L156.866667,77.0666667 L156.866667,77.1333333 C152.666667,80.7333333 149.466667,85.6 147.2,91.2666667 C143,101.533333 145.2,115.333333 164.066667,119.2 C165.066667,118.8 165.8,118.6 166.333333,118.4 L166.333333,118.133333 C166.333333,117.733333 166.4,117.333333 166.466667,116.933333 C160.733333,113.866667 154.933333,108.333333 152.933333,101.733333 C152.733333,102 152.466667,102.2 152.133333,102.333333 C150.533333,102.866667 148.466667,100.8 147.466667,97.7333333 C146.466667,94.6666667 146.933333,91.8 148.466667,91.2666667 C149.466667,90.9333333 150.666667,91.6 151.666667,92.9333333 C151.8,93.9333333 151.933333,94.9333333 152.2,96 C152.266667,96.2666667 152.333333,96.5333333 152.4,96.8 C152.666667,97.6666667 152.8,97.8 152.866667,97.5333333 L152.866667,97.6666667 C153,97.2 153.133333,96.7333333 153.266667,96.2666667 C154.266667,93.1333333 156.2,89.8666667 158.866667,87 C163.733333,86.2 169.066667,85.8 173.733333,85.8 C173.8,83.8 174.2,81.7333333 174.933333,81 C175.4,81.6 175.866667,83.2 176.266667,85.8 C181.4,85.9333333 186.733333,86.5333333 191.8,87.4 C193.8,89.8 195.4,92.5333333 196.533333,95.0666667 C197,96.1333333 197.4,97.1333333 197.666667,98.0666667 C197.666667,97.9333333 197.733333,97.8666667 197.733333,97.7333333 C197.866667,97.8 198,97.4666667 198.2,96.7333333 C198.2,96.7333333 198.2,96.7333333 198.2,96.6666667 C198.733333,94.8666667 198.933333,93.2 199,91.6 C199.666667,91.1333333 200.333333,91 200.933333,91.2 C202.533333,91.7333333 202.933333,94.6 201.933333,97.6666667 C200.933333,100.733333 198.866667,102.733333 197.266667,102.266667 C197.266667,102.266667 197.266667,102.266667 197.2,102.266667 C194.866667,109.133333 188.533333,114.733333 182.533333,117.6 C182.533333,117.8 182.6,118 182.6,118.133333 C182.6,118.466667 182.533333,118.8 182.466667,119.2 C182.6,119.266667 182.8,119.266667 182.933333,119.333333 C182.866667,118.866667 182.8,118.4 182.733333,118.066667 C182.733333,118.4 184,118.6 185.733333,119.333333 C205.333333,115.266667 206.533333,99.2666667 203.266667,90.3333333 L203.266667,90.3333333 Z" id="Shape" fill="#8B5E3C"></path>
                <path d="M197.866667,92.8666667 C197.866667,92.7333333 197.866667,92.6 197.8,92.4666667 C197.333333,89 196,85.3333333 193.6,82.2 C192.133333,80.2666667 190.266667,78.4666667 187.933333,77.0666667 C184.733333,75.1333333 180.733333,73.8666667 175.733333,73.8 C170.333333,73.6666667 166,75 162.533333,77.0666667 C160.2,78.4666667 158.333333,80.2666667 156.866667,82.2666667 C155.333333,84.4 154.2,86.6666667 153.533333,89 C153,90.8666667 152.666667,92.8 152.666667,94.6 C152.666667,95.6 152.733333,96.6 152.866667,97.5333333 L152.866667,97.6666667 C153,97.2 153.133333,96.7333333 153.266667,96.2666667 C154.266667,93.1333333 156.2,89.8666667 158.866667,87 C163,82.5333333 168.933333,79.1333333 175.733333,79.1333333 C182.466667,79.1333333 187.933333,82.8666667 191.8,87.4666667 C193.8,89.8666667 195.4,92.6 196.533333,95.1333333 C197,96.2 197.4,97.2 197.666667,98.1333333 C197.666667,98 197.733333,97.9333333 197.733333,97.8 C198,96.3333333 198.066667,94.6 197.866667,92.8666667 L197.866667,92.8666667 Z" id="Shape" fill="#1C75BC"></path>
            </g>
        </g>
    </g>
</svg>